# MagicaVoxel @ Ephtracy

# group
g tanuki_sad_2

# material
mtllib tanuki_sad_2.mtl
usemtl palette

# normals
vn -1 0 0
vn 1 0 0
vn 0 0 1
vn 0 0 -1
vn 0 -1 0
vn 0 1 0

# texcoords
vt 0.0644531 0.5
vt 0.373047 0.5
vt 0.591797 0.5
vt 0.841797 0.5
vt 0.876953 0.5
vt 0.958984 0.5

# verts
v -7 7 2
v -7 7 -1
v -7 12 2
v -7 12 -1
v -7 13 1
v -7 13 -1
v -7 15 1
v -7 15 -1
v -6 2 -0
v -6 2 -1
v -6 4 -0
v -6 4 -1
v -6 6 2
v -6 6 -2
v -6 7 2
v -6 7 -1
v -6 12 2
v -6 12 -1
v -6 13 2
v -6 13 1
v -6 13 -1
v -6 13 -2
v -5 4 -0
v -5 4 -1
v -5 5 -0
v -5 5 -1
v -5 7 -2
v -5 7 -3
v -5 13 -2
v -5 13 -3
v -4 0 -0
v -4 0 -1
v -4 1 -0
v -4 1 -1
v -4 2 1
v -4 2 -2
v -4 4 -0
v -4 4 -1
v -4 5 -0
v -4 5 -1
v -4 6 1
v -4 6 -2
v -4 6 -3
v -4 7 -2
v -4 7 -3
v -4 13 2
v -4 13 -2
v -4 14 2
v -4 14 -2
v -3 1 1
v -3 1 -0
v -3 1 -1
v -3 1 -2
v -3 2 1
v -3 2 -2
v 2 0 -0
v 2 0 -1
v 2 1 -0
v 2 1 -1
v 5 2 -0
v 5 2 -1
v 5 4 -0
v 5 4 -1
v 5 13 1
v 5 13 -1
v 5 15 1
v 5 15 -1
v -5 2 -0
v -5 2 -1
v -5 4 -0
v -5 4 -1
v -5 13 1
v -5 13 -1
v -5 15 1
v -5 15 -1
v -2 0 -0
v -2 0 -1
v -2 1 -0
v -2 1 -1
v 3 1 1
v 3 1 -0
v 3 1 -1
v 3 1 -2
v 3 2 1
v 3 2 -2
v 4 0 -0
v 4 0 -1
v 4 1 -0
v 4 1 -1
v 4 2 1
v 4 2 -2
v 4 4 -0
v 4 4 -1
v 4 5 -0
v 4 5 -1
v 4 6 1
v 4 6 -2
v 4 6 -3
v 4 7 -2
v 4 7 -3
v 4 13 2
v 4 13 -2
v 4 14 2
v 4 14 -2
v 5 4 -0
v 5 4 -1
v 5 5 -0
v 5 5 -1
v 5 7 -2
v 5 7 -3
v 5 13 -2
v 5 13 -3
v 6 2 -0
v 6 2 -1
v 6 4 -0
v 6 4 -1
v 6 6 2
v 6 6 -2
v 6 7 2
v 6 7 -1
v 6 12 2
v 6 12 -1
v 6 13 2
v 6 13 1
v 6 13 -1
v 6 13 -2
v 7 7 2
v 7 7 -1
v 7 12 2
v 7 12 -1
v 7 13 1
v 7 13 -1
v 7 15 1
v 7 15 -1
v -7 7 2
v -7 12 2
v -6 6 2
v -6 7 2
v -6 12 2
v -6 13 2
v -5 9 2
v -5 11 2
v -4 8 2
v -4 9 2
v -4 10 2
v -4 11 2
v -4 12 2
v -4 13 2
v -4 14 2
v -3 8 2
v -3 10 2
v -3 11 2
v -2 8 2
v -2 9 2
v -2 10 2
v -2 11 2
v -1 7 2
v -1 8 2
v -1 9 2
v -1 10 2
v -1 11 2
v 1 7 2
v 1 8 2
v 1 9 2
v 1 10 2
v 1 11 2
v 2 7 2
v 2 9 2
v 2 10 2
v 2 11 2
v 3 7 2
v 3 8 2
v 3 10 2
v 3 11 2
v 4 8 2
v 4 9 2
v 4 10 2
v 4 11 2
v 4 12 2
v 4 13 2
v 4 14 2
v 5 9 2
v 5 11 2
v 6 6 2
v 6 7 2
v 6 12 2
v 6 13 2
v 7 7 2
v 7 12 2
v -7 13 1
v -7 15 1
v -6 13 1
v -5 13 1
v -5 15 1
v -4 2 1
v -4 6 1
v -3 1 1
v -3 2 1
v -2 2 1
v -2 4 1
v -1 4 1
v -1 5 1
v 1 4 1
v 1 5 1
v 2 2 1
v 2 4 1
v 3 1 1
v 3 2 1
v 4 2 1
v 4 6 1
v 5 13 1
v 5 15 1
v 6 13 1
v 7 13 1
v 7 15 1
v -6 2 -0
v -6 4 -0
v -5 2 -0
v -5 4 -0
v -5 5 -0
v -4 0 -0
v -4 1 -0
v -4 4 -0
v -4 5 -0
v -3 1 -0
v -2 0 -0
v -2 1 -0
v 2 0 -0
v 2 1 -0
v 3 1 -0
v 4 0 -0
v 4 1 -0
v 4 4 -0
v 4 5 -0
v 5 2 -0
v 5 4 -0
v 5 5 -0
v 6 2 -0
v 6 4 -0
v -7 7 -1
v -7 12 -1
v -7 13 -1
v -7 15 -1
v -6 2 -1
v -6 4 -1
v -6 7 -1
v -6 12 -1
v -6 13 -1
v -5 2 -1
v -5 4 -1
v -5 5 -1
v -5 13 -1
v -5 15 -1
v -4 0 -1
v -4 1 -1
v -4 4 -1
v -4 5 -1
v -3 1 -1
v -2 0 -1
v -2 1 -1
v 2 0 -1
v 2 1 -1
v 3 1 -1
v 4 0 -1
v 4 1 -1
v 4 4 -1
v 4 5 -1
v 5 2 -1
v 5 4 -1
v 5 5 -1
v 5 13 -1
v 5 15 -1
v 6 2 -1
v 6 4 -1
v 6 7 -1
v 6 12 -1
v 6 13 -1
v 7 7 -1
v 7 12 -1
v 7 13 -1
v 7 15 -1
v -6 6 -2
v -6 13 -2
v -5 7 -2
v -5 13 -2
v -4 2 -2
v -4 6 -2
v -4 7 -2
v -4 13 -2
v -4 14 -2
v -3 1 -2
v -3 2 -2
v 3 1 -2
v 3 2 -2
v 4 2 -2
v 4 6 -2
v 4 7 -2
v 4 13 -2
v 4 14 -2
v 5 7 -2
v 5 13 -2
v 6 6 -2
v 6 13 -2
v -5 7 -3
v -5 13 -3
v -4 6 -3
v -4 7 -3
v 4 6 -3
v 4 7 -3
v 5 7 -3
v 5 13 -3
v -4 0 -0
v -2 0 -0
v 2 0 -0
v 4 0 -0
v -4 0 -1
v -2 0 -1
v 2 0 -1
v 4 0 -1
v -3 1 1
v 3 1 1
v -3 1 -0
v -2 1 -0
v 2 1 -0
v 3 1 -0
v -3 1 -1
v -2 1 -1
v 2 1 -1
v 3 1 -1
v -3 1 -2
v 3 1 -2
v -4 2 1
v -3 2 1
v 3 2 1
v 4 2 1
v -6 2 -0
v -5 2 -0
v 5 2 -0
v 6 2 -0
v -6 2 -1
v -5 2 -1
v 5 2 -1
v 6 2 -1
v -4 2 -2
v -3 2 -2
v 3 2 -2
v 4 2 -2
v -5 4 -0
v -4 4 -0
v 4 4 -0
v 5 4 -0
v -5 4 -1
v -4 4 -1
v 4 4 -1
v 5 4 -1
v -6 6 2
v 6 6 2
v -4 6 1
v 4 6 1
v -6 6 -2
v -4 6 -2
v 4 6 -2
v 6 6 -2
v -4 6 -3
v 4 6 -3
v -7 7 2
v -6 7 2
v 6 7 2
v 7 7 2
v -7 7 -1
v -6 7 -1
v 6 7 -1
v 7 7 -1
v -5 7 -2
v -4 7 -2
v 4 7 -2
v 5 7 -2
v -5 7 -3
v -4 7 -3
v 4 7 -3
v 5 7 -3
v -7 13 1
v -6 13 1
v 6 13 1
v 7 13 1
v -7 13 -1
v -6 13 -1
v 6 13 -1
v 7 13 -1
v -4 1 -0
v -3 1 -0
v 3 1 -0
v 4 1 -0
v -4 1 -1
v -3 1 -1
v 3 1 -1
v 4 1 -1
v -6 4 -0
v -5 4 -0
v 5 4 -0
v 6 4 -0
v -6 4 -1
v -5 4 -1
v 5 4 -1
v 6 4 -1
v -5 5 -0
v -4 5 -0
v 4 5 -0
v 5 5 -0
v -5 5 -1
v -4 5 -1
v 4 5 -1
v 5 5 -1
v -7 12 2
v -6 12 2
v 6 12 2
v 7 12 2
v -7 12 -1
v -6 12 -1
v 6 12 -1
v 7 12 -1
v -6 13 2
v -4 13 2
v 4 13 2
v 6 13 2
v -6 13 1
v -5 13 1
v 5 13 1
v 6 13 1
v -6 13 -1
v -5 13 -1
v 5 13 -1
v 6 13 -1
v -6 13 -2
v -5 13 -2
v -4 13 -2
v 4 13 -2
v 5 13 -2
v 6 13 -2
v -5 13 -3
v 5 13 -3
v -4 14 2
v 4 14 2
v -4 14 -2
v 4 14 -2
v -7 15 1
v -5 15 1
v 5 15 1
v 7 15 1
v -7 15 -1
v -5 15 -1
v 5 15 -1
v 7 15 -1

# faces
f 3/1/1 2/1/1 1/1/1
f 4/1/1 2/1/1 3/1/1
f 7/2/1 6/2/1 5/2/1
f 8/2/1 6/2/1 7/2/1
f 11/2/1 10/2/1 9/2/1
f 12/2/1 10/2/1 11/2/1
f 15/1/1 14/1/1 13/1/1
f 16/1/1 14/1/1 15/1/1
f 18/1/1 14/1/1 16/1/1
f 19/1/1 18/1/1 17/1/1
f 20/1/1 18/1/1 19/1/1
f 21/1/1 14/1/1 18/1/1
f 21/1/1 18/1/1 20/1/1
f 22/1/1 14/1/1 21/1/1
f 25/2/1 24/2/1 23/2/1
f 26/2/1 24/2/1 25/2/1
f 29/1/1 28/1/1 27/1/1
f 30/1/1 28/1/1 29/1/1
f 33/2/1 32/2/1 31/2/1
f 34/2/1 32/2/1 33/2/1
f 37/1/1 36/1/1 35/1/1
f 38/1/1 36/1/1 37/1/1
f 39/1/1 37/1/1 35/1/1
f 40/1/1 36/1/1 38/1/1
f 41/1/1 39/1/1 35/1/1
f 41/1/1 40/1/1 39/1/1
f 42/1/1 36/1/1 40/1/1
f 42/1/1 40/1/1 41/1/1
f 44/1/1 43/1/1 42/1/1
f 45/1/1 43/1/1 44/1/1
f 48/1/1 47/1/1 46/1/1
f 49/1/1 47/1/1 48/1/1
f 54/1/1 51/1/1 50/1/1
f 54/1/1 53/1/1 52/1/1
f 54/1/1 52/1/1 51/1/1
f 55/1/1 53/1/1 54/1/1
f 58/2/1 57/2/1 56/2/1
f 59/2/1 57/2/1 58/2/1
f 62/2/1 61/2/1 60/2/1
f 63/2/1 61/2/1 62/2/1
f 66/2/1 65/2/1 64/2/1
f 67/2/1 65/2/1 66/2/1
f 68/2/2 69/2/2 70/2/2
f 70/2/2 69/2/2 71/2/2
f 72/2/2 73/2/2 74/2/2
f 74/2/2 73/2/2 75/2/2
f 76/2/2 77/2/2 78/2/2
f 78/2/2 77/2/2 79/2/2
f 80/1/2 81/1/2 84/1/2
f 82/1/2 83/1/2 84/1/2
f 81/1/2 82/1/2 84/1/2
f 84/1/2 83/1/2 85/1/2
f 86/2/2 87/2/2 88/2/2
f 88/2/2 87/2/2 89/2/2
f 90/1/2 91/1/2 92/1/2
f 92/1/2 91/1/2 93/1/2
f 90/1/2 92/1/2 94/1/2
f 93/1/2 91/1/2 95/1/2
f 90/1/2 94/1/2 96/1/2
f 94/1/2 95/1/2 96/1/2
f 95/1/2 91/1/2 97/1/2
f 96/1/2 95/1/2 97/1/2
f 97/1/2 98/1/2 99/1/2
f 99/1/2 98/1/2 100/1/2
f 101/1/2 102/1/2 103/1/2
f 103/1/2 102/1/2 104/1/2
f 105/2/2 106/2/2 107/2/2
f 107/2/2 106/2/2 108/2/2
f 109/1/2 110/1/2 111/1/2
f 111/1/2 110/1/2 112/1/2
f 113/2/2 114/2/2 115/2/2
f 115/2/2 114/2/2 116/2/2
f 117/1/2 118/1/2 119/1/2
f 119/1/2 118/1/2 120/1/2
f 120/1/2 118/1/2 122/1/2
f 121/1/2 122/1/2 123/1/2
f 123/1/2 122/1/2 124/1/2
f 122/1/2 118/1/2 125/1/2
f 124/1/2 122/1/2 125/1/2
f 125/1/2 118/1/2 126/1/2
f 127/1/2 128/1/2 129/1/2
f 129/1/2 128/1/2 130/1/2
f 131/2/2 132/2/2 133/2/2
f 133/2/2 132/2/2 134/2/2
f 138/1/3 136/1/3 135/1/3
f 139/1/3 136/1/3 138/1/3
f 141/1/3 138/1/3 137/1/3
f 141/1/3 140/1/3 139/1/3
f 141/1/3 139/1/3 138/1/3
f 142/1/3 140/1/3 141/1/3
f 143/1/3 141/1/3 137/1/3
f 144/2/3 142/2/3 141/2/3
f 144/1/3 141/1/3 143/1/3
f 145/2/3 142/2/3 144/2/3
f 146/1/3 140/1/3 142/1/3
f 146/2/3 142/2/3 145/2/3
f 147/1/3 140/1/3 146/1/3
f 148/1/3 140/1/3 147/1/3
f 150/2/3 145/2/3 144/2/3
f 150/1/3 143/1/3 137/1/3
f 150/2/3 144/2/3 143/2/3
f 151/6/3 146/6/3 145/6/3
f 151/2/3 145/2/3 150/2/3
f 152/2/3 147/2/3 146/2/3
f 152/6/3 146/6/3 151/6/3
f 153/3/3 151/3/3 150/3/3
f 153/1/3 150/1/3 137/1/3
f 154/3/3 151/3/3 153/3/3
f 155/5/3 152/5/3 151/5/3
f 155/3/3 151/3/3 154/3/3
f 156/2/3 147/2/3 152/2/3
f 156/5/3 152/5/3 155/5/3
f 157/1/3 154/1/3 153/1/3
f 157/1/3 153/1/3 137/1/3
f 158/1/3 154/1/3 157/1/3
f 159/2/3 155/2/3 154/2/3
f 159/1/3 154/1/3 158/1/3
f 160/6/3 156/6/3 155/6/3
f 160/2/3 155/2/3 159/2/3
f 161/2/3 147/2/3 156/2/3
f 161/6/3 156/6/3 160/6/3
f 162/4/3 158/4/3 157/4/3
f 162/1/3 157/1/3 137/1/3
f 163/1/3 159/1/3 158/1/3
f 163/4/3 158/4/3 162/4/3
f 164/5/3 160/5/3 159/5/3
f 164/1/3 159/1/3 163/1/3
f 165/2/3 161/2/3 160/2/3
f 165/5/3 160/5/3 164/5/3
f 166/2/3 147/2/3 161/2/3
f 166/2/3 161/2/3 165/2/3
f 167/1/3 163/1/3 162/1/3
f 167/1/3 162/1/3 137/1/3
f 167/1/3 164/1/3 163/1/3
f 168/2/3 165/2/3 164/2/3
f 168/1/3 164/1/3 167/1/3
f 169/6/3 166/6/3 165/6/3
f 169/2/3 165/2/3 168/2/3
f 170/2/3 147/2/3 166/2/3
f 170/6/3 166/6/3 169/6/3
f 171/1/3 167/1/3 137/1/3
f 171/3/3 169/3/3 168/3/3
f 171/3/3 168/3/3 167/3/3
f 172/3/3 169/3/3 171/3/3
f 173/5/3 170/5/3 169/5/3
f 173/3/3 169/3/3 172/3/3
f 174/2/3 147/2/3 170/2/3
f 174/5/3 170/5/3 173/5/3
f 175/2/3 173/2/3 172/2/3
f 175/1/3 172/1/3 171/1/3
f 176/2/3 173/2/3 175/2/3
f 177/6/3 174/6/3 173/6/3
f 177/2/3 173/2/3 176/2/3
f 178/2/3 147/2/3 174/2/3
f 178/6/3 174/6/3 177/6/3
f 179/1/3 149/1/3 148/1/3
f 179/2/3 147/2/3 178/2/3
f 179/1/3 148/1/3 147/1/3
f 180/1/3 149/1/3 179/1/3
f 181/1/3 149/1/3 180/1/3
f 182/2/3 178/2/3 177/2/3
f 182/2/3 177/2/3 176/2/3
f 182/1/3 176/1/3 175/1/3
f 183/1/3 180/1/3 179/1/3
f 183/2/3 178/2/3 182/2/3
f 183/1/3 179/1/3 178/1/3
f 184/1/3 175/1/3 171/1/3
f 184/1/3 182/1/3 175/1/3
f 184/1/3 183/1/3 182/1/3
f 184/1/3 171/1/3 137/1/3
f 185/1/3 183/1/3 184/1/3
f 186/1/3 180/1/3 183/1/3
f 186/1/3 183/1/3 185/1/3
f 187/1/3 180/1/3 186/1/3
f 188/1/3 186/1/3 185/1/3
f 189/1/3 186/1/3 188/1/3
f 192/2/3 191/2/3 190/2/3
f 193/2/3 191/2/3 192/2/3
f 194/2/3 191/2/3 193/2/3
f 198/1/3 196/1/3 195/1/3
f 199/1/3 196/1/3 198/1/3
f 199/1/3 198/1/3 197/1/3
f 200/1/3 196/1/3 199/1/3
f 201/2/3 200/2/3 199/2/3
f 201/1/3 196/1/3 200/1/3
f 202/1/3 196/1/3 201/1/3
f 203/2/3 201/2/3 199/2/3
f 203/2/3 202/2/3 201/2/3
f 204/1/3 196/1/3 202/1/3
f 204/2/3 202/2/3 203/2/3
f 205/1/3 199/1/3 197/1/3
f 205/2/3 203/2/3 199/2/3
f 206/1/3 204/1/3 203/1/3
f 206/2/3 203/2/3 205/2/3
f 207/1/3 205/1/3 197/1/3
f 207/1/3 206/1/3 205/1/3
f 208/1/3 206/1/3 207/1/3
f 209/1/3 206/1/3 208/1/3
f 210/1/3 196/1/3 204/1/3
f 210/1/3 206/1/3 209/1/3
f 210/1/3 204/1/3 206/1/3
f 213/2/3 212/2/3 211/2/3
f 214/2/3 212/2/3 213/2/3
f 215/2/3 212/2/3 214/2/3
f 218/2/3 217/2/3 216/2/3
f 219/2/3 217/2/3 218/2/3
f 223/2/3 220/2/3 219/2/3
f 224/2/3 220/2/3 223/2/3
f 225/2/3 222/2/3 221/2/3
f 226/2/3 225/2/3 221/2/3
f 227/2/3 225/2/3 226/2/3
f 230/2/3 229/2/3 228/2/3
f 231/2/3 230/2/3 228/2/3
f 232/2/3 230/2/3 231/2/3
f 236/2/3 234/2/3 233/2/3
f 237/2/3 234/2/3 236/2/3
f 238/2/3 236/2/3 235/2/3
f 239/2/3 236/2/3 238/2/3
f 240/1/4 241/1/4 246/1/4
f 246/1/4 241/1/4 247/1/4
f 242/2/4 243/2/4 248/2/4
f 244/2/4 245/2/4 249/2/4
f 249/2/4 245/2/4 250/2/4
f 248/2/4 243/2/4 252/2/4
f 252/2/4 243/2/4 253/2/4
f 250/2/4 251/2/4 256/2/4
f 256/2/4 251/2/4 257/2/4
f 254/2/4 255/2/4 258/2/4
f 254/2/4 258/2/4 259/2/4
f 259/2/4 258/2/4 260/2/4
f 261/2/4 262/2/4 263/2/4
f 261/2/4 263/2/4 264/2/4
f 264/2/4 263/2/4 265/2/4
f 266/2/4 267/2/4 269/2/4
f 269/2/4 267/2/4 270/2/4
f 268/2/4 269/2/4 273/2/4
f 273/2/4 269/2/4 274/2/4
f 271/2/4 272/2/4 277/2/4
f 275/1/4 276/1/4 278/1/4
f 278/1/4 276/1/4 279/1/4
f 277/2/4 272/2/4 280/2/4
f 280/2/4 272/2/4 281/2/4
f 282/1/4 283/1/4 284/1/4
f 284/1/4 283/1/4 285/1/4
f 282/1/4 284/1/4 287/1/4
f 287/1/4 284/1/4 288/1/4
f 286/1/4 287/1/4 292/1/4
f 291/1/4 292/1/4 293/1/4
f 292/1/4 287/1/4 294/1/4
f 293/1/4 292/1/4 294/1/4
f 294/1/4 287/1/4 295/1/4
f 295/1/4 287/1/4 296/1/4
f 289/1/4 290/1/4 298/1/4
f 298/1/4 290/1/4 299/1/4
f 296/1/4 297/1/4 300/1/4
f 296/1/4 300/1/4 302/1/4
f 300/1/4 301/1/4 302/1/4
f 302/1/4 301/1/4 303/1/4
f 304/1/4 305/1/4 307/1/4
f 306/1/4 307/1/4 308/1/4
f 307/1/4 305/1/4 309/1/4
f 308/1/4 307/1/4 309/1/4
f 309/1/4 305/1/4 310/1/4
f 310/1/4 305/1/4 311/1/4
f 316/2/5 313/2/5 312/2/5
f 317/2/5 313/2/5 316/2/5
f 318/2/5 315/2/5 314/2/5
f 319/2/5 315/2/5 318/2/5
f 322/1/5 321/1/5 320/1/5
f 323/1/5 321/1/5 322/1/5
f 324/1/5 321/1/5 323/1/5
f 325/1/5 321/1/5 324/1/5
f 327/1/5 324/1/5 323/1/5
f 328/1/5 324/1/5 327/1/5
f 330/1/5 327/1/5 326/1/5
f 330/1/5 329/1/5 328/1/5
f 330/1/5 328/1/5 327/1/5
f 331/1/5 329/1/5 330/1/5
f 340/2/5 337/2/5 336/2/5
f 341/2/5 337/2/5 340/2/5
f 342/2/5 339/2/5 338/2/5
f 343/2/5 339/2/5 342/2/5
f 344/1/5 333/1/5 332/1/5
f 345/1/5 333/1/5 344/1/5
f 346/1/5 335/1/5 334/1/5
f 347/1/5 335/1/5 346/1/5
f 352/2/5 349/2/5 348/2/5
f 353/2/5 349/2/5 352/2/5
f 354/2/5 351/2/5 350/2/5
f 355/2/5 351/2/5 354/2/5
f 358/1/5 357/1/5 356/1/5
f 359/1/5 357/1/5 358/1/5
f 360/1/5 358/1/5 356/1/5
f 361/1/5 358/1/5 360/1/5
f 362/1/5 357/1/5 359/1/5
f 363/1/5 357/1/5 362/1/5
f 364/1/5 362/1/5 361/1/5
f 365/1/5 362/1/5 364/1/5
f 370/1/5 367/1/5 366/1/5
f 371/1/5 367/1/5 370/1/5
f 372/1/5 369/1/5 368/1/5
f 373/1/5 369/1/5 372/1/5
f 378/1/5 375/1/5 374/1/5
f 379/1/5 375/1/5 378/1/5
f 380/1/5 377/1/5 376/1/5
f 381/1/5 377/1/5 380/1/5
f 386/2/5 383/2/5 382/2/5
f 387/2/5 383/2/5 386/2/5
f 388/2/5 385/2/5 384/2/5
f 389/2/5 385/2/5 388/2/5
f 390/2/6 391/2/6 394/2/6
f 394/2/6 391/2/6 395/2/6
f 392/2/6 393/2/6 396/2/6
f 396/2/6 393/2/6 397/2/6
f 398/2/6 399/2/6 402/2/6
f 402/2/6 399/2/6 403/2/6
f 400/2/6 401/2/6 404/2/6
f 404/2/6 401/2/6 405/2/6
f 406/2/6 407/2/6 410/2/6
f 410/2/6 407/2/6 411/2/6
f 408/2/6 409/2/6 412/2/6
f 412/2/6 409/2/6 413/2/6
f 414/1/6 415/1/6 418/1/6
f 418/1/6 415/1/6 419/1/6
f 416/1/6 417/1/6 420/1/6
f 420/1/6 417/1/6 421/1/6
f 422/1/6 423/1/6 426/1/6
f 426/1/6 423/1/6 427/1/6
f 424/1/6 425/1/6 428/1/6
f 428/1/6 425/1/6 429/1/6
f 427/1/6 423/1/6 431/1/6
f 424/1/6 428/1/6 432/1/6
f 430/1/6 431/1/6 434/1/6
f 431/1/6 423/1/6 435/1/6
f 434/1/6 431/1/6 435/1/6
f 435/1/6 423/1/6 436/1/6
f 432/1/6 433/1/6 437/1/6
f 424/1/6 432/1/6 437/1/6
f 437/1/6 433/1/6 438/1/6
f 438/1/6 433/1/6 439/1/6
f 435/1/6 436/1/6 440/1/6
f 437/1/6 438/1/6 440/1/6
f 436/1/6 437/1/6 440/1/6
f 440/1/6 438/1/6 441/1/6
f 442/1/6 443/1/6 444/1/6
f 444/1/6 443/1/6 445/1/6
f 446/2/6 447/2/6 450/2/6
f 450/2/6 447/2/6 451/2/6
f 448/2/6 449/2/6 452/2/6
f 452/2/6 449/2/6 453/2/6
