# MagicaVoxel @ Ephtracy

# group
g tanuki_run_1

# material
mtllib tanuki_run_1.mtl
usemtl palette

# normals
vn -1 0 0
vn 1 0 0
vn 0 0 1
vn 0 0 -1
vn 0 -1 0
vn 0 1 0

# texcoords
vt 0.0644531 0.5
vt 0.373047 0.5
vt 0.841797 0.5
vt 0.876953 0.5
vt 0.958984 0.5

# verts
v -7 7 2
v -7 7 -1
v -7 12 2
v -7 12 -1
v -7 13 1
v -7 13 -1
v -7 15 1
v -7 15 -1
v -6 6 2
v -6 6 -2
v -6 7 2
v -6 7 -1
v -6 12 2
v -6 12 -1
v -6 13 2
v -6 13 1
v -6 13 -1
v -6 13 -2
v -5 3 2
v -5 3 -0
v -5 4 2
v -5 4 -0
v -5 4 -1
v -5 5 -0
v -5 5 -1
v -5 7 -2
v -5 7 -3
v -5 13 -2
v -5 13 -3
v -4 2 1
v -4 2 -2
v -4 3 1
v -4 3 -0
v -4 4 1
v -4 4 -0
v -4 4 -1
v -4 5 -0
v -4 5 -1
v -4 6 1
v -4 6 -2
v -4 6 -3
v -4 7 -2
v -4 7 -3
v -4 13 2
v -4 13 -2
v -4 14 2
v -4 14 -2
v -3 0 -0
v -3 0 -1
v -3 1 1
v -3 1 -0
v -3 1 -1
v -3 1 -2
v -3 2 1
v -3 2 -2
v 2 0 -0
v 2 0 -1
v 2 1 -0
v 2 1 -1
v 4 3 2
v 4 3 1
v 4 4 2
v 4 4 1
v 5 13 1
v 5 13 -1
v 5 15 1
v 5 15 -1
v -5 13 1
v -5 13 -1
v -5 15 1
v -5 15 -1
v -4 3 2
v -4 3 1
v -4 4 2
v -4 4 1
v -2 0 -0
v -2 0 -1
v -2 1 -0
v -2 1 -1
v 3 0 -0
v 3 0 -1
v 3 1 1
v 3 1 -0
v 3 1 -1
v 3 1 -2
v 3 2 1
v 3 2 -2
v 4 2 1
v 4 2 -2
v 4 3 1
v 4 3 -0
v 4 4 1
v 4 4 -0
v 4 4 -1
v 4 5 -0
v 4 5 -1
v 4 6 1
v 4 6 -2
v 4 6 -3
v 4 7 -2
v 4 7 -3
v 4 13 2
v 4 13 -2
v 4 14 2
v 4 14 -2
v 5 3 2
v 5 3 -0
v 5 4 2
v 5 4 -0
v 5 4 -1
v 5 5 -0
v 5 5 -1
v 5 7 -2
v 5 7 -3
v 5 13 -2
v 5 13 -3
v 6 6 2
v 6 6 -2
v 6 7 2
v 6 7 -1
v 6 12 2
v 6 12 -1
v 6 13 2
v 6 13 1
v 6 13 -1
v 6 13 -2
v 7 7 2
v 7 7 -1
v 7 12 2
v 7 12 -1
v 7 13 1
v 7 13 -1
v 7 15 1
v 7 15 -1
v -7 7 2
v -7 12 2
v -6 6 2
v -6 7 2
v -6 12 2
v -6 13 2
v -5 3 2
v -5 4 2
v -5 9 2
v -5 11 2
v -4 3 2
v -4 4 2
v -4 8 2
v -4 9 2
v -4 10 2
v -4 11 2
v -4 12 2
v -4 13 2
v -4 14 2
v -3 10 2
v -3 11 2
v -2 8 2
v -2 9 2
v -2 10 2
v -2 11 2
v -1 7 2
v -1 8 2
v -1 9 2
v -1 10 2
v -1 11 2
v 1 7 2
v 1 8 2
v 1 9 2
v 1 10 2
v 1 11 2
v 2 8 2
v 2 9 2
v 2 10 2
v 2 11 2
v 3 10 2
v 3 11 2
v 4 3 2
v 4 4 2
v 4 8 2
v 4 9 2
v 4 10 2
v 4 11 2
v 4 12 2
v 4 13 2
v 4 14 2
v 5 3 2
v 5 4 2
v 5 9 2
v 5 11 2
v 6 6 2
v 6 7 2
v 6 12 2
v 6 13 2
v 7 7 2
v 7 12 2
v -7 13 1
v -7 15 1
v -6 13 1
v -5 13 1
v -5 15 1
v -4 2 1
v -4 3 1
v -4 4 1
v -4 6 1
v -3 1 1
v -3 2 1
v -2 2 1
v -2 4 1
v -1 4 1
v -1 5 1
v 1 4 1
v 1 5 1
v 2 2 1
v 2 4 1
v 3 1 1
v 3 2 1
v 4 2 1
v 4 3 1
v 4 4 1
v 4 6 1
v 5 13 1
v 5 15 1
v 6 13 1
v 7 13 1
v 7 15 1
v -5 4 -0
v -5 5 -0
v -4 4 -0
v -4 5 -0
v -3 0 -0
v -3 1 -0
v -2 0 -0
v -2 1 -0
v 2 0 -0
v 2 1 -0
v 3 0 -0
v 3 1 -0
v 4 4 -0
v 4 5 -0
v 5 4 -0
v 5 5 -0
v -5 3 -0
v -5 4 -0
v -4 3 -0
v -4 4 -0
v 4 3 -0
v 4 4 -0
v 5 3 -0
v 5 4 -0
v -7 7 -1
v -7 12 -1
v -7 13 -1
v -7 15 -1
v -6 7 -1
v -6 12 -1
v -6 13 -1
v -5 4 -1
v -5 5 -1
v -5 13 -1
v -5 15 -1
v -4 4 -1
v -4 5 -1
v -3 0 -1
v -3 1 -1
v -2 0 -1
v -2 1 -1
v 2 0 -1
v 2 1 -1
v 3 0 -1
v 3 1 -1
v 4 4 -1
v 4 5 -1
v 5 4 -1
v 5 5 -1
v 5 13 -1
v 5 15 -1
v 6 7 -1
v 6 12 -1
v 6 13 -1
v 7 7 -1
v 7 12 -1
v 7 13 -1
v 7 15 -1
v -6 6 -2
v -6 13 -2
v -5 7 -2
v -5 13 -2
v -4 2 -2
v -4 6 -2
v -4 7 -2
v -4 13 -2
v -4 14 -2
v -3 1 -2
v -3 2 -2
v 3 1 -2
v 3 2 -2
v 4 2 -2
v 4 6 -2
v 4 7 -2
v 4 13 -2
v 4 14 -2
v 5 7 -2
v 5 13 -2
v 6 6 -2
v 6 13 -2
v -5 7 -3
v -5 13 -3
v -4 6 -3
v -4 7 -3
v 4 6 -3
v 4 7 -3
v 5 7 -3
v 5 13 -3
v -3 0 -0
v -2 0 -0
v 2 0 -0
v 3 0 -0
v -3 0 -1
v -2 0 -1
v 2 0 -1
v 3 0 -1
v -3 1 1
v 3 1 1
v -3 1 -0
v -2 1 -0
v 2 1 -0
v 3 1 -0
v -3 1 -1
v -2 1 -1
v 2 1 -1
v 3 1 -1
v -3 1 -2
v 3 1 -2
v -4 2 1
v -3 2 1
v 3 2 1
v 4 2 1
v -4 2 -2
v -3 2 -2
v 3 2 -2
v 4 2 -2
v -5 3 2
v -4 3 2
v 4 3 2
v 5 3 2
v -4 3 1
v 4 3 1
v -5 3 -0
v -4 3 -0
v 4 3 -0
v 5 3 -0
v -5 4 -0
v -4 4 -0
v 4 4 -0
v 5 4 -0
v -5 4 -1
v -4 4 -1
v 4 4 -1
v 5 4 -1
v -6 6 2
v 6 6 2
v -4 6 1
v 4 6 1
v -6 6 -2
v -4 6 -2
v 4 6 -2
v 6 6 -2
v -4 6 -3
v 4 6 -3
v -7 7 2
v -6 7 2
v 6 7 2
v 7 7 2
v -7 7 -1
v -6 7 -1
v 6 7 -1
v 7 7 -1
v -5 7 -2
v -4 7 -2
v 4 7 -2
v 5 7 -2
v -5 7 -3
v -4 7 -3
v 4 7 -3
v 5 7 -3
v -7 13 1
v -6 13 1
v 6 13 1
v 7 13 1
v -7 13 -1
v -6 13 -1
v 6 13 -1
v 7 13 -1
v -5 4 2
v -4 4 2
v 4 4 2
v 5 4 2
v -4 4 1
v 4 4 1
v -5 4 -0
v -4 4 -0
v 4 4 -0
v 5 4 -0
v -5 5 -0
v -4 5 -0
v 4 5 -0
v 5 5 -0
v -5 5 -1
v -4 5 -1
v 4 5 -1
v 5 5 -1
v -7 12 2
v -6 12 2
v 6 12 2
v 7 12 2
v -7 12 -1
v -6 12 -1
v 6 12 -1
v 7 12 -1
v -6 13 2
v -4 13 2
v 4 13 2
v 6 13 2
v -6 13 1
v -5 13 1
v 5 13 1
v 6 13 1
v -6 13 -1
v -5 13 -1
v 5 13 -1
v 6 13 -1
v -6 13 -2
v -5 13 -2
v -4 13 -2
v 4 13 -2
v 5 13 -2
v 6 13 -2
v -5 13 -3
v 5 13 -3
v -4 14 2
v 4 14 2
v -4 14 -2
v 4 14 -2
v -7 15 1
v -5 15 1
v 5 15 1
v 7 15 1
v -7 15 -1
v -5 15 -1
v 5 15 -1
v 7 15 -1

# faces
f 3/1/1 2/1/1 1/1/1
f 4/1/1 2/1/1 3/1/1
f 7/2/1 6/2/1 5/2/1
f 8/2/1 6/2/1 7/2/1
f 11/1/1 10/1/1 9/1/1
f 12/1/1 10/1/1 11/1/1
f 14/1/1 10/1/1 12/1/1
f 15/1/1 14/1/1 13/1/1
f 16/1/1 14/1/1 15/1/1
f 17/1/1 10/1/1 14/1/1
f 17/1/1 14/1/1 16/1/1
f 18/1/1 10/1/1 17/1/1
f 21/2/1 20/2/1 19/2/1
f 22/2/1 20/2/1 21/2/1
f 24/2/1 23/2/1 22/2/1
f 25/2/1 23/2/1 24/2/1
f 28/1/1 27/1/1 26/1/1
f 29/1/1 27/1/1 28/1/1
f 32/1/1 31/1/1 30/1/1
f 33/1/1 31/1/1 32/1/1
f 35/1/1 31/1/1 33/1/1
f 36/1/1 31/1/1 35/1/1
f 37/1/1 35/1/1 34/1/1
f 38/1/1 31/1/1 36/1/1
f 39/1/1 37/1/1 34/1/1
f 39/1/1 38/1/1 37/1/1
f 40/1/1 31/1/1 38/1/1
f 40/1/1 38/1/1 39/1/1
f 42/1/1 41/1/1 40/1/1
f 43/1/1 41/1/1 42/1/1
f 46/1/1 45/1/1 44/1/1
f 47/1/1 45/1/1 46/1/1
f 51/2/1 49/2/1 48/2/1
f 52/2/1 49/2/1 51/2/1
f 54/1/1 51/1/1 50/1/1
f 54/1/1 53/1/1 52/1/1
f 54/1/1 52/1/1 51/1/1
f 55/1/1 53/1/1 54/1/1
f 58/2/1 57/2/1 56/2/1
f 59/2/1 57/2/1 58/2/1
f 62/2/1 61/2/1 60/2/1
f 63/2/1 61/2/1 62/2/1
f 66/2/1 65/2/1 64/2/1
f 67/2/1 65/2/1 66/2/1
f 68/2/2 69/2/2 70/2/2
f 70/2/2 69/2/2 71/2/2
f 72/2/2 73/2/2 74/2/2
f 74/2/2 73/2/2 75/2/2
f 76/2/2 77/2/2 78/2/2
f 78/2/2 77/2/2 79/2/2
f 80/2/2 81/2/2 83/2/2
f 83/2/2 81/2/2 84/2/2
f 82/1/2 83/1/2 86/1/2
f 84/1/2 85/1/2 86/1/2
f 83/1/2 84/1/2 86/1/2
f 86/1/2 85/1/2 87/1/2
f 88/1/2 89/1/2 90/1/2
f 90/1/2 89/1/2 91/1/2
f 91/1/2 89/1/2 93/1/2
f 93/1/2 89/1/2 94/1/2
f 92/1/2 93/1/2 95/1/2
f 94/1/2 89/1/2 96/1/2
f 92/1/2 95/1/2 97/1/2
f 95/1/2 96/1/2 97/1/2
f 96/1/2 89/1/2 98/1/2
f 97/1/2 96/1/2 98/1/2
f 98/1/2 99/1/2 100/1/2
f 100/1/2 99/1/2 101/1/2
f 102/1/2 103/1/2 104/1/2
f 104/1/2 103/1/2 105/1/2
f 106/2/2 107/2/2 108/2/2
f 108/2/2 107/2/2 109/2/2
f 109/2/2 110/2/2 111/2/2
f 111/2/2 110/2/2 112/2/2
f 113/1/2 114/1/2 115/1/2
f 115/1/2 114/1/2 116/1/2
f 117/1/2 118/1/2 119/1/2
f 119/1/2 118/1/2 120/1/2
f 120/1/2 118/1/2 122/1/2
f 121/1/2 122/1/2 123/1/2
f 123/1/2 122/1/2 124/1/2
f 122/1/2 118/1/2 125/1/2
f 124/1/2 122/1/2 125/1/2
f 125/1/2 118/1/2 126/1/2
f 127/1/2 128/1/2 129/1/2
f 129/1/2 128/1/2 130/1/2
f 131/2/2 132/2/2 133/2/2
f 133/2/2 132/2/2 134/2/2
f 138/1/3 136/1/3 135/1/3
f 139/1/3 136/1/3 138/1/3
f 143/1/3 138/1/3 137/1/3
f 143/1/3 139/1/3 138/1/3
f 143/1/3 140/1/3 139/1/3
f 144/1/3 140/1/3 143/1/3
f 145/2/3 142/2/3 141/2/3
f 146/2/3 142/2/3 145/2/3
f 147/1/3 143/1/3 137/1/3
f 148/2/3 144/2/3 143/2/3
f 148/1/3 143/1/3 147/1/3
f 149/2/3 144/2/3 148/2/3
f 150/1/3 140/1/3 144/1/3
f 150/2/3 144/2/3 149/2/3
f 151/1/3 140/1/3 150/1/3
f 152/1/3 140/1/3 151/1/3
f 154/2/3 149/2/3 148/2/3
f 154/2/3 148/2/3 147/2/3
f 154/5/3 150/5/3 149/5/3
f 155/2/3 151/2/3 150/2/3
f 155/5/3 150/5/3 154/5/3
f 156/1/3 147/1/3 137/1/3
f 156/2/3 154/2/3 147/2/3
f 157/2/3 154/2/3 156/2/3
f 158/4/3 155/4/3 154/4/3
f 158/2/3 154/2/3 157/2/3
f 159/2/3 151/2/3 155/2/3
f 159/4/3 155/4/3 158/4/3
f 160/1/3 157/1/3 156/1/3
f 160/1/3 156/1/3 137/1/3
f 161/1/3 157/1/3 160/1/3
f 162/2/3 158/2/3 157/2/3
f 162/1/3 157/1/3 161/1/3
f 163/5/3 159/5/3 158/5/3
f 163/2/3 158/2/3 162/2/3
f 164/2/3 151/2/3 159/2/3
f 164/5/3 159/5/3 163/5/3
f 165/3/3 161/3/3 160/3/3
f 165/1/3 160/1/3 137/1/3
f 166/1/3 162/1/3 161/1/3
f 166/3/3 161/3/3 165/3/3
f 167/4/3 163/4/3 162/4/3
f 167/1/3 162/1/3 166/1/3
f 168/2/3 164/2/3 163/2/3
f 168/4/3 163/4/3 167/4/3
f 169/2/3 151/2/3 164/2/3
f 169/2/3 164/2/3 168/2/3
f 170/1/3 166/1/3 165/1/3
f 170/1/3 167/1/3 166/1/3
f 171/2/3 168/2/3 167/2/3
f 171/1/3 167/1/3 170/1/3
f 172/5/3 169/5/3 168/5/3
f 172/2/3 168/2/3 171/2/3
f 173/2/3 151/2/3 169/2/3
f 173/5/3 169/5/3 172/5/3
f 174/2/3 172/2/3 171/2/3
f 174/2/3 171/2/3 170/2/3
f 174/4/3 173/4/3 172/4/3
f 175/2/3 151/2/3 173/2/3
f 175/4/3 173/4/3 174/4/3
f 178/1/3 170/1/3 165/1/3
f 178/2/3 174/2/3 170/2/3
f 179/2/3 174/2/3 178/2/3
f 180/5/3 175/5/3 174/5/3
f 180/2/3 174/2/3 179/2/3
f 181/2/3 151/2/3 175/2/3
f 181/5/3 175/5/3 180/5/3
f 182/1/3 153/1/3 152/1/3
f 182/2/3 151/2/3 181/2/3
f 182/1/3 152/1/3 151/1/3
f 183/1/3 153/1/3 182/1/3
f 184/1/3 153/1/3 183/1/3
f 185/2/3 177/2/3 176/2/3
f 186/2/3 177/2/3 185/2/3
f 187/2/3 181/2/3 180/2/3
f 187/2/3 180/2/3 179/2/3
f 187/1/3 179/1/3 178/1/3
f 188/1/3 183/1/3 182/1/3
f 188/2/3 181/2/3 187/2/3
f 188/1/3 182/1/3 181/1/3
f 189/1/3 178/1/3 165/1/3
f 189/1/3 188/1/3 187/1/3
f 189/1/3 187/1/3 178/1/3
f 189/1/3 165/1/3 137/1/3
f 190/1/3 188/1/3 189/1/3
f 191/1/3 183/1/3 188/1/3
f 191/1/3 188/1/3 190/1/3
f 192/1/3 183/1/3 191/1/3
f 193/1/3 191/1/3 190/1/3
f 194/1/3 191/1/3 193/1/3
f 197/2/3 196/2/3 195/2/3
f 198/2/3 196/2/3 197/2/3
f 199/2/3 196/2/3 198/2/3
f 205/1/3 201/1/3 200/1/3
f 205/1/3 203/1/3 202/1/3
f 205/1/3 202/1/3 201/1/3
f 206/1/3 203/1/3 205/1/3
f 206/1/3 205/1/3 204/1/3
f 207/1/3 203/1/3 206/1/3
f 208/2/3 207/2/3 206/2/3
f 208/1/3 203/1/3 207/1/3
f 209/1/3 203/1/3 208/1/3
f 210/2/3 208/2/3 206/2/3
f 210/2/3 209/2/3 208/2/3
f 211/1/3 203/1/3 209/1/3
f 211/2/3 209/2/3 210/2/3
f 212/1/3 206/1/3 204/1/3
f 212/2/3 210/2/3 206/2/3
f 213/1/3 211/1/3 210/1/3
f 213/2/3 210/2/3 212/2/3
f 214/1/3 212/1/3 204/1/3
f 214/1/3 213/1/3 212/1/3
f 215/1/3 213/1/3 214/1/3
f 216/1/3 213/1/3 215/1/3
f 217/1/3 213/1/3 216/1/3
f 218/1/3 211/1/3 213/1/3
f 218/1/3 213/1/3 217/1/3
f 219/1/3 203/1/3 211/1/3
f 219/1/3 211/1/3 218/1/3
f 222/2/3 221/2/3 220/2/3
f 223/2/3 221/2/3 222/2/3
f 224/2/3 221/2/3 223/2/3
f 227/2/3 226/2/3 225/2/3
f 228/2/3 226/2/3 227/2/3
f 231/2/3 230/2/3 229/2/3
f 232/2/3 230/2/3 231/2/3
f 235/2/3 234/2/3 233/2/3
f 236/2/3 234/2/3 235/2/3
f 239/2/3 238/2/3 237/2/3
f 240/2/3 238/2/3 239/2/3
f 241/2/4 242/2/4 243/2/4
f 243/2/4 242/2/4 244/2/4
f 245/2/4 246/2/4 247/2/4
f 247/2/4 246/2/4 248/2/4
f 249/1/4 250/1/4 253/1/4
f 253/1/4 250/1/4 254/1/4
f 251/2/4 252/2/4 255/2/4
f 255/2/4 252/2/4 258/2/4
f 258/2/4 252/2/4 259/2/4
f 256/2/4 257/2/4 260/2/4
f 260/2/4 257/2/4 261/2/4
f 262/2/4 263/2/4 264/2/4
f 264/2/4 263/2/4 265/2/4
f 266/2/4 267/2/4 268/2/4
f 268/2/4 267/2/4 269/2/4
f 270/2/4 271/2/4 272/2/4
f 272/2/4 271/2/4 273/2/4
f 274/2/4 275/2/4 278/2/4
f 276/1/4 277/1/4 279/1/4
f 279/1/4 277/1/4 280/1/4
f 278/2/4 275/2/4 281/2/4
f 281/2/4 275/2/4 282/2/4
f 283/1/4 284/1/4 285/1/4
f 285/1/4 284/1/4 286/1/4
f 283/1/4 285/1/4 288/1/4
f 288/1/4 285/1/4 289/1/4
f 287/1/4 288/1/4 293/1/4
f 292/1/4 293/1/4 294/1/4
f 293/1/4 288/1/4 295/1/4
f 294/1/4 293/1/4 295/1/4
f 295/1/4 288/1/4 296/1/4
f 296/1/4 288/1/4 297/1/4
f 290/1/4 291/1/4 299/1/4
f 299/1/4 291/1/4 300/1/4
f 297/1/4 298/1/4 301/1/4
f 297/1/4 301/1/4 303/1/4
f 301/1/4 302/1/4 303/1/4
f 303/1/4 302/1/4 304/1/4
f 305/1/4 306/1/4 308/1/4
f 307/1/4 308/1/4 309/1/4
f 308/1/4 306/1/4 310/1/4
f 309/1/4 308/1/4 310/1/4
f 310/1/4 306/1/4 311/1/4
f 311/1/4 306/1/4 312/1/4
f 317/2/5 314/2/5 313/2/5
f 318/2/5 314/2/5 317/2/5
f 319/2/5 316/2/5 315/2/5
f 320/2/5 316/2/5 319/2/5
f 323/1/5 322/1/5 321/1/5
f 324/1/5 322/1/5 323/1/5
f 325/1/5 322/1/5 324/1/5
f 326/1/5 322/1/5 325/1/5
f 328/1/5 325/1/5 324/1/5
f 329/1/5 325/1/5 328/1/5
f 331/1/5 328/1/5 327/1/5
f 331/1/5 330/1/5 329/1/5
f 331/1/5 329/1/5 328/1/5
f 332/1/5 330/1/5 331/1/5
f 337/1/5 334/1/5 333/1/5
f 338/1/5 334/1/5 337/1/5
f 339/1/5 336/1/5 335/1/5
f 340/1/5 336/1/5 339/1/5
f 345/2/5 342/2/5 341/2/5
f 346/2/5 344/2/5 343/2/5
f 347/2/5 345/2/5 341/2/5
f 348/2/5 345/2/5 347/2/5
f 349/2/5 344/2/5 346/2/5
f 350/2/5 344/2/5 349/2/5
f 355/2/5 352/2/5 351/2/5
f 356/2/5 352/2/5 355/2/5
f 357/2/5 354/2/5 353/2/5
f 358/2/5 354/2/5 357/2/5
f 361/1/5 360/1/5 359/1/5
f 362/1/5 360/1/5 361/1/5
f 363/1/5 361/1/5 359/1/5
f 364/1/5 361/1/5 363/1/5
f 365/1/5 360/1/5 362/1/5
f 366/1/5 360/1/5 365/1/5
f 367/1/5 365/1/5 364/1/5
f 368/1/5 365/1/5 367/1/5
f 373/1/5 370/1/5 369/1/5
f 374/1/5 370/1/5 373/1/5
f 375/1/5 372/1/5 371/1/5
f 376/1/5 372/1/5 375/1/5
f 381/1/5 378/1/5 377/1/5
f 382/1/5 378/1/5 381/1/5
f 383/1/5 380/1/5 379/1/5
f 384/1/5 380/1/5 383/1/5
f 389/2/5 386/2/5 385/2/5
f 390/2/5 386/2/5 389/2/5
f 391/2/5 388/2/5 387/2/5
f 392/2/5 388/2/5 391/2/5
f 393/2/6 394/2/6 397/2/6
f 395/2/6 396/2/6 398/2/6
f 393/2/6 397/2/6 399/2/6
f 399/2/6 397/2/6 400/2/6
f 398/2/6 396/2/6 401/2/6
f 401/2/6 396/2/6 402/2/6
f 403/2/6 404/2/6 407/2/6
f 407/2/6 404/2/6 408/2/6
f 405/2/6 406/2/6 409/2/6
f 409/2/6 406/2/6 410/2/6
f 411/1/6 412/1/6 415/1/6
f 415/1/6 412/1/6 416/1/6
f 413/1/6 414/1/6 417/1/6
f 417/1/6 414/1/6 418/1/6
f 419/1/6 420/1/6 423/1/6
f 423/1/6 420/1/6 424/1/6
f 421/1/6 422/1/6 425/1/6
f 425/1/6 422/1/6 426/1/6
f 424/1/6 420/1/6 428/1/6
f 421/1/6 425/1/6 429/1/6
f 427/1/6 428/1/6 431/1/6
f 428/1/6 420/1/6 432/1/6
f 431/1/6 428/1/6 432/1/6
f 432/1/6 420/1/6 433/1/6
f 429/1/6 430/1/6 434/1/6
f 421/1/6 429/1/6 434/1/6
f 434/1/6 430/1/6 435/1/6
f 435/1/6 430/1/6 436/1/6
f 432/1/6 433/1/6 437/1/6
f 434/1/6 435/1/6 437/1/6
f 433/1/6 434/1/6 437/1/6
f 437/1/6 435/1/6 438/1/6
f 439/1/6 440/1/6 441/1/6
f 441/1/6 440/1/6 442/1/6
f 443/2/6 444/2/6 447/2/6
f 447/2/6 444/2/6 448/2/6
f 445/2/6 446/2/6 449/2/6
f 449/2/6 446/2/6 450/2/6
