# MagicaVoxel @ Ephtracy

# group
g tree_2

# material
mtllib tree_2.mtl
usemtl palette

# normals
vn -1 0 0
vn 1 0 0
vn 0 0 1
vn 0 0 -1
vn 0 -1 0
vn 0 1 0

# texcoords
vt 0.373047 0.5
vt 0.486328 0.5
vt 0.654297 0.5

# verts
v -4 4 4
v -4 4 -4
v -4 6 4
v -4 6 -4
v -4 8 4
v -4 8 -4
v -4 10 4
v -4 10 -4
v -4 12 4
v -4 12 -4
v -4 14 4
v -4 14 -4
v -4 16 4
v -4 16 -4
v -1 0 1
v -1 0 -1
v -1 4 1
v -1 4 -1
v 1 0 1
v 1 0 -1
v 1 4 1
v 1 4 -1
v 4 4 4
v 4 4 -4
v 4 6 4
v 4 6 -4
v 4 8 4
v 4 8 -4
v 4 10 4
v 4 10 -4
v 4 12 4
v 4 12 -4
v 4 14 4
v 4 14 -4
v 4 16 4
v 4 16 -4
v -4 4 4
v -4 6 4
v -4 8 4
v -4 10 4
v -4 12 4
v -4 14 4
v -4 16 4
v 4 4 4
v 4 6 4
v 4 8 4
v 4 10 4
v 4 12 4
v 4 14 4
v 4 16 4
v -1 0 1
v -1 4 1
v 1 0 1
v 1 4 1
v -1 0 -1
v -1 4 -1
v 1 0 -1
v 1 4 -1
v -4 4 -4
v -4 6 -4
v -4 8 -4
v -4 10 -4
v -4 12 -4
v -4 14 -4
v -4 16 -4
v 4 4 -4
v 4 6 -4
v 4 8 -4
v 4 10 -4
v 4 12 -4
v 4 14 -4
v 4 16 -4
v -1 0 1
v 1 0 1
v -1 0 -1
v 1 0 -1
v -4 4 4
v 4 4 4
v -1 4 1
v 1 4 1
v -1 4 -1
v 1 4 -1
v -4 4 -4
v 4 4 -4
v -4 16 4
v 4 16 4
v -4 16 -4
v 4 16 -4

# faces
f 3/3/1 2/3/1 1/3/1
f 4/3/1 2/3/1 3/3/1
f 5/2/1 4/2/1 3/2/1
f 6/2/1 4/2/1 5/2/1
f 7/3/1 6/3/1 5/3/1
f 8/3/1 6/3/1 7/3/1
f 9/2/1 8/2/1 7/2/1
f 10/2/1 8/2/1 9/2/1
f 11/3/1 10/3/1 9/3/1
f 12/3/1 10/3/1 11/3/1
f 13/2/1 12/2/1 11/2/1
f 14/2/1 12/2/1 13/2/1
f 17/1/1 16/1/1 15/1/1
f 18/1/1 16/1/1 17/1/1
f 19/1/2 20/1/2 21/1/2
f 21/1/2 20/1/2 22/1/2
f 23/3/2 24/3/2 25/3/2
f 25/3/2 24/3/2 26/3/2
f 25/2/2 26/2/2 27/2/2
f 27/2/2 26/2/2 28/2/2
f 27/3/2 28/3/2 29/3/2
f 29/3/2 28/3/2 30/3/2
f 29/2/2 30/2/2 31/2/2
f 31/2/2 30/2/2 32/2/2
f 31/3/2 32/3/2 33/3/2
f 33/3/2 32/3/2 34/3/2
f 33/2/2 34/2/2 35/2/2
f 35/2/2 34/2/2 36/2/2
f 44/3/3 38/3/3 37/3/3
f 45/2/3 39/2/3 38/2/3
f 45/3/3 38/3/3 44/3/3
f 46/3/3 40/3/3 39/3/3
f 46/2/3 39/2/3 45/2/3
f 47/2/3 41/2/3 40/2/3
f 47/3/3 40/3/3 46/3/3
f 48/3/3 42/3/3 41/3/3
f 48/2/3 41/2/3 47/2/3
f 49/2/3 43/2/3 42/2/3
f 49/3/3 42/3/3 48/3/3
f 50/2/3 43/2/3 49/2/3
f 53/1/3 52/1/3 51/1/3
f 54/1/3 52/1/3 53/1/3
f 55/1/4 56/1/4 57/1/4
f 57/1/4 56/1/4 58/1/4
f 59/3/4 60/3/4 66/3/4
f 60/2/4 61/2/4 67/2/4
f 66/3/4 60/3/4 67/3/4
f 61/3/4 62/3/4 68/3/4
f 67/2/4 61/2/4 68/2/4
f 62/2/4 63/2/4 69/2/4
f 68/3/4 62/3/4 69/3/4
f 63/3/4 64/3/4 70/3/4
f 69/2/4 63/2/4 70/2/4
f 64/2/4 65/2/4 71/2/4
f 70/3/4 64/3/4 71/3/4
f 71/2/4 65/2/4 72/2/4
f 75/1/5 74/1/5 73/1/5
f 76/1/5 74/1/5 75/1/5
f 79/3/5 78/3/5 77/3/5
f 80/3/5 78/3/5 79/3/5
f 81/3/5 79/3/5 77/3/5
f 82/3/5 78/3/5 80/3/5
f 83/3/5 81/3/5 77/3/5
f 83/3/5 82/3/5 81/3/5
f 84/3/5 78/3/5 82/3/5
f 84/3/5 82/3/5 83/3/5
f 85/2/6 86/2/6 87/2/6
f 87/2/6 86/2/6 88/2/6
