# MagicaVoxel @ Ephtracy

# group
o 

# material
mtllib gameover.mtl
usemtl palette

# normals
vn -1 0 0
vn 1 0 0
vn 0 0 1
vn 0 0 -1
vn 0 -1 0
vn 0 1 0

# texcoords
vt 0.255859 0.5
vt 0.326172 0.5
vt 0.552734 0.5
vt 0.583984 0.5
vt 0.837891 0.5
vt 0.865234 0.5
vt 0.970703 0.5
vt 0.994141 0.5

# verts
v 0 2.2 -0.5
v 0 2.2 -0.6
v 0 2.2 -0.7
v 0 2.2 -0.8
v 0 2.2 -1.1
v 0 2.2 -1.2
v 0 2.2 -1.3
v 0 2.2 -1.4
v 0 2.2 -1.7
v 0 2.2 -1.8
v 0 2.2 -1.9
v 0 2.2 -2.3
v 0 2.2 -2.5
v 0 2.2 -2.9
v 0 2.2 -3.3
v 0 2.2 -3.4
v 0 2.2 -3.7
v 0 2.2 -4.1
v 0 2.2 -4.2
v 0 2.2 -4.3
v 0 2.2 -4.5
v 0 2.2 -4.7
v 0 2.3 -0.2
v 0 2.3 -0.5
v 0 2.3 -2
v 0 2.3 -2.3
v 0 2.3 -2.4
v 0 2.3 -2.5
v 0 2.3 -2.9
v 0 2.3 -3
v 0 2.3 -3.8
v 0 2.3 -4.1
v 0 2.3 -4.4
v 0 2.3 -4.5
v 0 2.3 -4.7
v 0 2.4 -0.1
v 0 2.4 -0.2
v 0 2.4 -0.4
v 0 2.4 -0.7
v 0 2.4 -0.8
v 0 2.4 -1.1
v 0 2.4 -1.2
v 0 2.4 -3.2
v 0 2.4 -3.3
v 0 2.4 -3.4
v 0 2.4 -3.5
v 0 2.4 -4.3
v 0 2.4 -4.4
v 0 2.4 -4.5
v 0 2.4 -4.6
v 0 2.5 -0.4
v 0 2.5 -0.6
v 0 2.5 -0.9
v 0 2.5 -1
v 0 2.5 -1.5
v 0 2.5 -1.6
v 0 2.5 -2
v 0 2.5 -2.2
v 0 2.5 -3.8
v 0 2.5 -4
v 0 2.5 -4.3
v 0 2.5 -4.6
v 0 2.5 -4.7
v 0 2.6 -0.5
v 0 2.6 -0.6
v 0 2.6 -0.8
v 0 2.6 -0.9
v 0 2.6 -1
v 0 2.6 -1.1
v 0 2.6 -1.4
v 0 2.6 -1.5
v 0 2.6 -1.6
v 0 2.6 -1.7
v 0 2.6 -2
v 0 2.6 -2.2
v 0 2.6 -3.1
v 0 2.6 -3.2
v 0 2.6 -3.3
v 0 2.6 -3.4
v 0 2.6 -3.5
v 0 2.6 -3.6
v 0 2.6 -3.8
v 0 2.6 -4
v 0 2.7 -0.1
v 0 2.7 -0.2
v 0 2.7 -0.5
v 0 2.7 -0.6
v 0 2.7 -1.4
v 0 2.7 -1.5
v 0 2.7 -1.6
v 0 2.7 -1.7
v 0 2.7 -2
v 0 2.7 -2.3
v 0 2.7 -2.4
v 0 2.7 -2.5
v 0 2.7 -2.9
v 0 2.7 -3
v 0 2.7 -3.8
v 0 2.7 -4.1
v 0 2.7 -4.3
v 0 2.7 -4.6
v 0 2.7 -4.7
v 0 2.8 -0.2
v 0 2.8 -0.5
v 0 2.8 -0.9
v 0 2.8 -1
v 0 2.8 -1.3
v 0 2.8 -1.4
v 0 2.8 -1.7
v 0 2.8 -1.8
v 0 2.8 -1.9
v 0 2.8 -2.3
v 0 2.8 -2.5
v 0 2.8 -2.9
v 0 2.8 -3.1
v 0 2.8 -3.2
v 0 2.8 -3.5
v 0 2.8 -3.6
v 0 2.8 -3.7
v 0 2.8 -4.1
v 0 2.8 -4.2
v 0 2.8 -4.6
v 0.1 2.2 -0.5
v 0.1 2.2 -0.6
v 0.1 2.2 -0.7
v 0.1 2.2 -0.8
v 0.1 2.2 -1.1
v 0.1 2.2 -1.2
v 0.1 2.2 -1.3
v 0.1 2.2 -1.4
v 0.1 2.2 -1.7
v 0.1 2.2 -1.8
v 0.1 2.2 -1.9
v 0.1 2.2 -2.3
v 0.1 2.2 -2.5
v 0.1 2.2 -2.9
v 0.1 2.2 -3.3
v 0.1 2.2 -3.4
v 0.1 2.2 -3.7
v 0.1 2.2 -4.1
v 0.1 2.2 -4.2
v 0.1 2.2 -4.3
v 0.1 2.2 -4.5
v 0.1 2.2 -4.7
v 0.1 2.3 -0.2
v 0.1 2.3 -0.5
v 0.1 2.3 -2
v 0.1 2.3 -2.3
v 0.1 2.3 -2.4
v 0.1 2.3 -2.5
v 0.1 2.3 -2.9
v 0.1 2.3 -3
v 0.1 2.3 -3.8
v 0.1 2.3 -4.1
v 0.1 2.3 -4.4
v 0.1 2.3 -4.5
v 0.1 2.3 -4.7
v 0.1 2.4 -0.1
v 0.1 2.4 -0.2
v 0.1 2.4 -0.4
v 0.1 2.4 -0.7
v 0.1 2.4 -0.8
v 0.1 2.4 -1.1
v 0.1 2.4 -1.2
v 0.1 2.4 -3.2
v 0.1 2.4 -3.3
v 0.1 2.4 -3.4
v 0.1 2.4 -3.5
v 0.1 2.4 -4.3
v 0.1 2.4 -4.4
v 0.1 2.4 -4.5
v 0.1 2.4 -4.6
v 0.1 2.5 -0.4
v 0.1 2.5 -0.6
v 0.1 2.5 -0.9
v 0.1 2.5 -1
v 0.1 2.5 -1.5
v 0.1 2.5 -1.6
v 0.1 2.5 -2
v 0.1 2.5 -2.2
v 0.1 2.5 -3.8
v 0.1 2.5 -4
v 0.1 2.5 -4.3
v 0.1 2.5 -4.6
v 0.1 2.5 -4.7
v 0.1 2.6 -0.5
v 0.1 2.6 -0.6
v 0.1 2.6 -0.8
v 0.1 2.6 -0.9
v 0.1 2.6 -1
v 0.1 2.6 -1.1
v 0.1 2.6 -1.4
v 0.1 2.6 -1.5
v 0.1 2.6 -1.6
v 0.1 2.6 -1.7
v 0.1 2.6 -2
v 0.1 2.6 -2.2
v 0.1 2.6 -3.1
v 0.1 2.6 -3.2
v 0.1 2.6 -3.3
v 0.1 2.6 -3.4
v 0.1 2.6 -3.5
v 0.1 2.6 -3.6
v 0.1 2.6 -3.8
v 0.1 2.6 -4
v 0.1 2.7 -0.1
v 0.1 2.7 -0.2
v 0.1 2.7 -0.5
v 0.1 2.7 -0.6
v 0.1 2.7 -1.4
v 0.1 2.7 -1.5
v 0.1 2.7 -1.6
v 0.1 2.7 -1.7
v 0.1 2.7 -2
v 0.1 2.7 -2.3
v 0.1 2.7 -2.4
v 0.1 2.7 -2.5
v 0.1 2.7 -2.9
v 0.1 2.7 -3
v 0.1 2.7 -3.8
v 0.1 2.7 -4.1
v 0.1 2.7 -4.3
v 0.1 2.7 -4.6
v 0.1 2.7 -4.7
v 0.1 2.8 -0.2
v 0.1 2.8 -0.5
v 0.1 2.8 -0.9
v 0.1 2.8 -1
v 0.1 2.8 -1.3
v 0.1 2.8 -1.4
v 0.1 2.8 -1.7
v 0.1 2.8 -1.8
v 0.1 2.8 -1.9
v 0.1 2.8 -2.3
v 0.1 2.8 -2.5
v 0.1 2.8 -2.9
v 0.1 2.8 -3.1
v 0.1 2.8 -3.2
v 0.1 2.8 -3.5
v 0.1 2.8 -3.6
v 0.1 2.8 -3.7
v 0.1 2.8 -4.1
v 0.1 2.8 -4.2
v 0.1 2.8 -4.6
v 0 2.4 -0.1
v 0 2.7 -0.1
v 0.1 2.4 -0.1
v 0.1 2.7 -0.1
v 0 2.3 -0.2
v 0 2.4 -0.2
v 0 2.7 -0.2
v 0 2.8 -0.2
v 0.1 2.3 -0.2
v 0.1 2.4 -0.2
v 0.1 2.7 -0.2
v 0.1 2.8 -0.2
v 0 2.4 -0.4
v 0 2.5 -0.4
v 0.1 2.4 -0.4
v 0.1 2.5 -0.4
v 0 2.2 -0.5
v 0 2.3 -0.5
v 0 2.6 -0.5
v 0 2.7 -0.5
v 0.1 2.2 -0.5
v 0.1 2.3 -0.5
v 0.1 2.6 -0.5
v 0.1 2.7 -0.5
v 0 2.2 -0.7
v 0 2.4 -0.7
v 0.1 2.2 -0.7
v 0.1 2.4 -0.7
v 0 2.4 -0.8
v 0 2.6 -0.8
v 0.1 2.4 -0.8
v 0.1 2.6 -0.8
v 0 2.6 -0.9
v 0 2.8 -0.9
v 0.1 2.6 -0.9
v 0.1 2.8 -0.9
v 0 2.5 -1
v 0 2.6 -1
v 0.1 2.5 -1
v 0.1 2.6 -1
v 0 2.2 -1.1
v 0 2.4 -1.1
v 0.1 2.2 -1.1
v 0.1 2.4 -1.1
v 0 2.2 -1.3
v 0 2.8 -1.3
v 0.1 2.2 -1.3
v 0.1 2.8 -1.3
v 0 2.5 -1.5
v 0 2.6 -1.5
v 0.1 2.5 -1.5
v 0.1 2.6 -1.5
v 0 2.6 -1.6
v 0 2.7 -1.6
v 0.1 2.6 -1.6
v 0.1 2.7 -1.6
v 0 2.2 -1.7
v 0 2.6 -1.7
v 0 2.7 -1.7
v 0 2.8 -1.7
v 0.1 2.2 -1.7
v 0.1 2.6 -1.7
v 0.1 2.7 -1.7
v 0.1 2.8 -1.7
v 0 2.2 -1.9
v 0 2.8 -1.9
v 0.1 2.2 -1.9
v 0.1 2.8 -1.9
v 0 2.3 -2.4
v 0 2.7 -2.4
v 0.1 2.3 -2.4
v 0.1 2.7 -2.4
v 0 2.2 -2.5
v 0 2.3 -2.5
v 0 2.7 -2.5
v 0 2.8 -2.5
v 0.1 2.2 -2.5
v 0.1 2.3 -2.5
v 0.1 2.7 -2.5
v 0.1 2.8 -2.5
v 0 2.3 -2.9
v 0 2.7 -2.9
v 0.1 2.3 -2.9
v 0.1 2.7 -2.9
v 0 2.6 -3.1
v 0 2.8 -3.1
v 0.1 2.6 -3.1
v 0.1 2.8 -3.1
v 0 2.4 -3.2
v 0 2.6 -3.2
v 0.1 2.4 -3.2
v 0.1 2.6 -3.2
v 0 2.2 -3.3
v 0 2.4 -3.3
v 0.1 2.2 -3.3
v 0.1 2.4 -3.3
v 0 2.4 -3.4
v 0 2.6 -3.4
v 0.1 2.4 -3.4
v 0.1 2.6 -3.4
v 0 2.6 -3.5
v 0 2.8 -3.5
v 0.1 2.6 -3.5
v 0.1 2.8 -3.5
v 0 2.2 -3.7
v 0 2.8 -3.7
v 0.1 2.2 -3.7
v 0.1 2.8 -3.7
v 0 2.2 -4.2
v 0 2.8 -4.2
v 0.1 2.2 -4.2
v 0.1 2.8 -4.2
v 0 2.3 -4.4
v 0 2.4 -4.4
v 0.1 2.3 -4.4
v 0.1 2.4 -4.4
v 0 2.2 -4.5
v 0 2.3 -4.5
v 0.1 2.2 -4.5
v 0.1 2.3 -4.5
v 0 2.5 -4.6
v 0 2.7 -4.6
v 0.1 2.5 -4.6
v 0.1 2.7 -4.6
v 0 2.4 -0.2
v 0 2.7 -0.2
v 0.1 2.4 -0.2
v 0.1 2.7 -0.2
v 0 2.7 -0.5
v 0 2.8 -0.5
v 0.1 2.7 -0.5
v 0.1 2.8 -0.5
v 0 2.2 -0.6
v 0 2.5 -0.6
v 0 2.6 -0.6
v 0 2.7 -0.6
v 0.1 2.2 -0.6
v 0.1 2.5 -0.6
v 0.1 2.6 -0.6
v 0.1 2.7 -0.6
v 0 2.2 -0.8
v 0 2.4 -0.8
v 0.1 2.2 -0.8
v 0.1 2.4 -0.8
v 0 2.5 -0.9
v 0 2.6 -0.9
v 0.1 2.5 -0.9
v 0.1 2.6 -0.9
v 0 2.6 -1
v 0 2.8 -1
v 0.1 2.6 -1
v 0.1 2.8 -1
v 0 2.4 -1.1
v 0 2.6 -1.1
v 0.1 2.4 -1.1
v 0.1 2.6 -1.1
v 0 2.2 -1.2
v 0 2.4 -1.2
v 0.1 2.2 -1.2
v 0.1 2.4 -1.2
v 0 2.2 -1.4
v 0 2.6 -1.4
v 0 2.7 -1.4
v 0 2.8 -1.4
v 0.1 2.2 -1.4
v 0.1 2.6 -1.4
v 0.1 2.7 -1.4
v 0.1 2.8 -1.4
v 0 2.6 -1.5
v 0 2.7 -1.5
v 0.1 2.6 -1.5
v 0.1 2.7 -1.5
v 0 2.5 -1.6
v 0 2.6 -1.6
v 0.1 2.5 -1.6
v 0.1 2.6 -1.6
v 0 2.2 -1.8
v 0 2.8 -1.8
v 0.1 2.2 -1.8
v 0.1 2.8 -1.8
v 0 2.3 -2
v 0 2.5 -2
v 0 2.6 -2
v 0 2.7 -2
v 0.1 2.3 -2
v 0.1 2.5 -2
v 0.1 2.6 -2
v 0.1 2.7 -2
v 0 2.5 -2.2
v 0 2.6 -2.2
v 0.1 2.5 -2.2
v 0.1 2.6 -2.2
v 0 2.2 -2.3
v 0 2.3 -2.3
v 0 2.7 -2.3
v 0 2.8 -2.3
v 0.1 2.2 -2.3
v 0.1 2.3 -2.3
v 0.1 2.7 -2.3
v 0.1 2.8 -2.3
v 0 2.3 -2.5
v 0 2.7 -2.5
v 0.1 2.3 -2.5
v 0.1 2.7 -2.5
v 0 2.2 -2.9
v 0 2.3 -2.9
v 0 2.7 -2.9
v 0 2.8 -2.9
v 0.1 2.2 -2.9
v 0.1 2.3 -2.9
v 0.1 2.7 -2.9
v 0.1 2.8 -2.9
v 0 2.3 -3
v 0 2.7 -3
v 0.1 2.3 -3
v 0.1 2.7 -3
v 0 2.6 -3.2
v 0 2.8 -3.2
v 0.1 2.6 -3.2
v 0.1 2.8 -3.2
v 0 2.4 -3.3
v 0 2.6 -3.3
v 0.1 2.4 -3.3
v 0.1 2.6 -3.3
v 0 2.2 -3.4
v 0 2.4 -3.4
v 0.1 2.2 -3.4
v 0.1 2.4 -3.4
v 0 2.4 -3.5
v 0 2.6 -3.5
v 0.1 2.4 -3.5
v 0.1 2.6 -3.5
v 0 2.6 -3.6
v 0 2.8 -3.6
v 0.1 2.6 -3.6
v 0.1 2.8 -3.6
v 0 2.3 -3.8
v 0 2.5 -3.8
v 0 2.6 -3.8
v 0 2.7 -3.8
v 0.1 2.3 -3.8
v 0.1 2.5 -3.8
v 0.1 2.6 -3.8
v 0.1 2.7 -3.8
v 0 2.5 -4
v 0 2.6 -4
v 0.1 2.5 -4
v 0.1 2.6 -4
v 0 2.2 -4.1
v 0 2.3 -4.1
v 0 2.7 -4.1
v 0 2.8 -4.1
v 0.1 2.2 -4.1
v 0.1 2.3 -4.1
v 0.1 2.7 -4.1
v 0.1 2.8 -4.1
v 0 2.2 -4.3
v 0 2.4 -4.3
v 0 2.5 -4.3
v 0 2.7 -4.3
v 0.1 2.2 -4.3
v 0.1 2.4 -4.3
v 0.1 2.5 -4.3
v 0.1 2.7 -4.3
v 0 2.3 -4.5
v 0 2.4 -4.5
v 0.1 2.3 -4.5
v 0.1 2.4 -4.5
v 0 2.4 -4.6
v 0 2.5 -4.6
v 0 2.7 -4.6
v 0 2.8 -4.6
v 0.1 2.4 -4.6
v 0.1 2.5 -4.6
v 0.1 2.7 -4.6
v 0.1 2.8 -4.6
v 0 2.2 -4.7
v 0 2.3 -4.7
v 0 2.5 -4.7
v 0 2.7 -4.7
v 0.1 2.2 -4.7
v 0.1 2.3 -4.7
v 0.1 2.5 -4.7
v 0.1 2.7 -4.7
v 0 2.2 -0.5
v 0.1 2.2 -0.5
v 0 2.2 -0.6
v 0.1 2.2 -0.6
v 0 2.2 -0.7
v 0.1 2.2 -0.7
v 0 2.2 -0.8
v 0.1 2.2 -0.8
v 0 2.2 -1.1
v 0.1 2.2 -1.1
v 0 2.2 -1.2
v 0.1 2.2 -1.2
v 0 2.2 -1.3
v 0.1 2.2 -1.3
v 0 2.2 -1.4
v 0.1 2.2 -1.4
v 0 2.2 -1.7
v 0.1 2.2 -1.7
v 0 2.2 -1.8
v 0.1 2.2 -1.8
v 0 2.2 -1.9
v 0.1 2.2 -1.9
v 0 2.2 -2.3
v 0.1 2.2 -2.3
v 0 2.2 -2.5
v 0.1 2.2 -2.5
v 0 2.2 -2.9
v 0.1 2.2 -2.9
v 0 2.2 -3.3
v 0.1 2.2 -3.3
v 0 2.2 -3.4
v 0.1 2.2 -3.4
v 0 2.2 -3.7
v 0.1 2.2 -3.7
v 0 2.2 -4.1
v 0.1 2.2 -4.1
v 0 2.2 -4.2
v 0.1 2.2 -4.2
v 0 2.2 -4.3
v 0.1 2.2 -4.3
v 0 2.2 -4.5
v 0.1 2.2 -4.5
v 0 2.2 -4.7
v 0.1 2.2 -4.7
v 0 2.3 -0.2
v 0.1 2.3 -0.2
v 0 2.3 -0.5
v 0.1 2.3 -0.5
v 0 2.3 -2.4
v 0.1 2.3 -2.4
v 0 2.3 -2.5
v 0.1 2.3 -2.5
v 0 2.3 -2.9
v 0.1 2.3 -2.9
v 0 2.3 -3
v 0.1 2.3 -3
v 0 2.3 -4.4
v 0.1 2.3 -4.4
v 0 2.3 -4.5
v 0.1 2.3 -4.5
v 0 2.4 -0.1
v 0.1 2.4 -0.1
v 0 2.4 -0.2
v 0.1 2.4 -0.2
v 0 2.4 -0.8
v 0.1 2.4 -0.8
v 0 2.4 -1.1
v 0.1 2.4 -1.1
v 0 2.4 -3.2
v 0.1 2.4 -3.2
v 0 2.4 -3.3
v 0.1 2.4 -3.3
v 0 2.4 -3.4
v 0.1 2.4 -3.4
v 0 2.4 -3.5
v 0.1 2.4 -3.5
v 0 2.4 -4.3
v 0.1 2.4 -4.3
v 0 2.4 -4.4
v 0.1 2.4 -4.4
v 0 2.4 -4.5
v 0.1 2.4 -4.5
v 0 2.4 -4.6
v 0.1 2.4 -4.6
v 0 2.5 -1.5
v 0.1 2.5 -1.5
v 0 2.5 -1.6
v 0.1 2.5 -1.6
v 0 2.5 -2
v 0.1 2.5 -2
v 0 2.5 -2.2
v 0.1 2.5 -2.2
v 0 2.5 -3.8
v 0.1 2.5 -3.8
v 0 2.5 -4
v 0.1 2.5 -4
v 0 2.5 -4.6
v 0.1 2.5 -4.6
v 0 2.5 -4.7
v 0.1 2.5 -4.7
v 0 2.6 -0.5
v 0.1 2.6 -0.5
v 0 2.6 -0.6
v 0.1 2.6 -0.6
v 0 2.6 -0.9
v 0.1 2.6 -0.9
v 0 2.6 -1
v 0.1 2.6 -1
v 0 2.6 -1.4
v 0.1 2.6 -1.4
v 0 2.6 -1.5
v 0.1 2.6 -1.5
v 0 2.6 -1.6
v 0.1 2.6 -1.6
v 0 2.6 -1.7
v 0.1 2.6 -1.7
v 0 2.6 -3.1
v 0.1 2.6 -3.1
v 0 2.6 -3.2
v 0.1 2.6 -3.2
v 0 2.6 -3.5
v 0.1 2.6 -3.5
v 0 2.6 -3.6
v 0.1 2.6 -3.6
v 0 2.7 -0.2
v 0.1 2.7 -0.2
v 0 2.7 -0.5
v 0.1 2.7 -0.5
v 0 2.7 -2
v 0.1 2.7 -2
v 0 2.7 -2.3
v 0.1 2.7 -2.3
v 0 2.7 -2.5
v 0.1 2.7 -2.5
v 0 2.7 -2.9
v 0.1 2.7 -2.9
v 0 2.7 -3.8
v 0.1 2.7 -3.8
v 0 2.7 -4.1
v 0.1 2.7 -4.1
v 0 2.7 -4.3
v 0.1 2.7 -4.3
v 0 2.7 -4.6
v 0.1 2.7 -4.6
v 0 2.3 -2
v 0.1 2.3 -2
v 0 2.3 -2.3
v 0.1 2.3 -2.3
v 0 2.3 -2.5
v 0.1 2.3 -2.5
v 0 2.3 -2.9
v 0.1 2.3 -2.9
v 0 2.3 -3.8
v 0.1 2.3 -3.8
v 0 2.3 -4.1
v 0.1 2.3 -4.1
v 0 2.3 -4.5
v 0.1 2.3 -4.5
v 0 2.3 -4.7
v 0.1 2.3 -4.7
v 0 2.4 -0.2
v 0.1 2.4 -0.2
v 0 2.4 -0.4
v 0.1 2.4 -0.4
v 0 2.4 -0.7
v 0.1 2.4 -0.7
v 0 2.4 -0.8
v 0.1 2.4 -0.8
v 0 2.4 -1.1
v 0.1 2.4 -1.1
v 0 2.4 -1.2
v 0.1 2.4 -1.2
v 0 2.4 -3.3
v 0.1 2.4 -3.3
v 0 2.4 -3.4
v 0.1 2.4 -3.4
v 0 2.5 -0.4
v 0.1 2.5 -0.4
v 0 2.5 -0.6
v 0.1 2.5 -0.6
v 0 2.5 -0.9
v 0.1 2.5 -0.9
v 0 2.5 -1
v 0.1 2.5 -1
v 0 2.5 -4.3
v 0.1 2.5 -4.3
v 0 2.5 -4.6
v 0.1 2.5 -4.6
v 0 2.6 -0.8
v 0.1 2.6 -0.8
v 0 2.6 -0.9
v 0.1 2.6 -0.9
v 0 2.6 -1
v 0.1 2.6 -1
v 0 2.6 -1.1
v 0.1 2.6 -1.1
v 0 2.6 -1.5
v 0.1 2.6 -1.5
v 0 2.6 -1.6
v 0.1 2.6 -1.6
v 0 2.6 -2
v 0.1 2.6 -2
v 0 2.6 -2.2
v 0.1 2.6 -2.2
v 0 2.6 -3.2
v 0.1 2.6 -3.2
v 0 2.6 -3.3
v 0.1 2.6 -3.3
v 0 2.6 -3.4
v 0.1 2.6 -3.4
v 0 2.6 -3.5
v 0.1 2.6 -3.5
v 0 2.6 -3.8
v 0.1 2.6 -3.8
v 0 2.6 -4
v 0.1 2.6 -4
v 0 2.7 -0.1
v 0.1 2.7 -0.1
v 0 2.7 -0.2
v 0.1 2.7 -0.2
v 0 2.7 -0.5
v 0.1 2.7 -0.5
v 0 2.7 -0.6
v 0.1 2.7 -0.6
v 0 2.7 -1.4
v 0.1 2.7 -1.4
v 0 2.7 -1.5
v 0.1 2.7 -1.5
v 0 2.7 -1.6
v 0.1 2.7 -1.6
v 0 2.7 -1.7
v 0.1 2.7 -1.7
v 0 2.7 -2.4
v 0.1 2.7 -2.4
v 0 2.7 -2.5
v 0.1 2.7 -2.5
v 0 2.7 -2.9
v 0.1 2.7 -2.9
v 0 2.7 -3
v 0.1 2.7 -3
v 0 2.7 -4.6
v 0.1 2.7 -4.6
v 0 2.7 -4.7
v 0.1 2.7 -4.7
v 0 2.8 -0.2
v 0.1 2.8 -0.2
v 0 2.8 -0.5
v 0.1 2.8 -0.5
v 0 2.8 -0.9
v 0.1 2.8 -0.9
v 0 2.8 -1
v 0.1 2.8 -1
v 0 2.8 -1.3
v 0.1 2.8 -1.3
v 0 2.8 -1.4
v 0.1 2.8 -1.4
v 0 2.8 -1.7
v 0.1 2.8 -1.7
v 0 2.8 -1.8
v 0.1 2.8 -1.8
v 0 2.8 -1.9
v 0.1 2.8 -1.9
v 0 2.8 -2.3
v 0.1 2.8 -2.3
v 0 2.8 -2.5
v 0.1 2.8 -2.5
v 0 2.8 -2.9
v 0.1 2.8 -2.9
v 0 2.8 -3.1
v 0.1 2.8 -3.1
v 0 2.8 -3.2
v 0.1 2.8 -3.2
v 0 2.8 -3.5
v 0.1 2.8 -3.5
v 0 2.8 -3.6
v 0.1 2.8 -3.6
v 0 2.8 -3.7
v 0.1 2.8 -3.7
v 0 2.8 -4.1
v 0.1 2.8 -4.1
v 0 2.8 -4.2
v 0.1 2.8 -4.2
v 0 2.8 -4.6
v 0.1 2.8 -4.6

# faces
f 24/4/1 2/4/1 1/4/1
f 25/1/1 12/1/1 11/1/1
f 26/1/1 12/1/1 25/1/1
f 28/2/1 14/2/1 13/2/1
f 29/2/1 14/2/1 28/2/1
f 31/5/1 18/5/1 17/5/1
f 32/5/1 18/5/1 31/5/1
f 34/6/1 22/6/1 21/6/1
f 35/6/1 22/6/1 34/6/1
f 37/4/1 24/4/1 23/4/1
f 38/4/1 24/4/1 37/4/1
f 39/7/1 4/7/1 3/7/1
f 40/7/1 4/7/1 39/7/1
f 41/7/1 6/7/1 5/7/1
f 42/7/1 6/7/1 41/7/1
f 44/8/1 16/8/1 15/8/1
f 45/8/1 16/8/1 44/8/1
f 47/6/1 20/6/1 19/6/1
f 48/6/1 34/6/1 33/6/1
f 49/6/1 34/6/1 48/6/1
f 51/4/1 24/4/1 38/4/1
f 52/4/1 2/4/1 24/4/1
f 52/4/1 24/4/1 51/4/1
f 53/7/1 41/7/1 40/7/1
f 54/7/1 41/7/1 53/7/1
f 57/1/1 25/1/1 11/1/1
f 59/5/1 31/5/1 17/5/1
f 61/6/1 50/6/1 49/6/1
f 61/6/1 49/6/1 48/6/1
f 61/6/1 47/6/1 19/6/1
f 61/6/1 48/6/1 47/6/1
f 62/6/1 50/6/1 61/6/1
f 66/7/1 53/7/1 40/7/1
f 67/7/1 53/7/1 66/7/1
f 68/7/1 41/7/1 54/7/1
f 69/7/1 41/7/1 68/7/1
f 70/3/1 8/3/1 7/3/1
f 71/3/1 56/3/1 55/3/1
f 72/3/1 56/3/1 71/3/1
f 73/3/1 10/3/1 9/3/1
f 74/1/1 58/1/1 57/1/1
f 74/1/1 57/1/1 11/1/1
f 75/1/1 58/1/1 74/1/1
f 77/8/1 44/8/1 43/8/1
f 78/8/1 44/8/1 77/8/1
f 79/8/1 46/8/1 45/8/1
f 80/8/1 46/8/1 79/8/1
f 82/5/1 60/5/1 59/5/1
f 82/5/1 59/5/1 17/5/1
f 83/5/1 60/5/1 82/5/1
f 84/4/1 37/4/1 36/4/1
f 85/4/1 37/4/1 84/4/1
f 86/4/1 65/4/1 64/4/1
f 87/4/1 65/4/1 86/4/1
f 88/3/1 70/3/1 7/3/1
f 88/3/1 71/3/1 70/3/1
f 89/3/1 71/3/1 88/3/1
f 90/3/1 73/3/1 72/3/1
f 91/3/1 10/3/1 73/3/1
f 91/3/1 73/3/1 90/3/1
f 92/1/1 74/1/1 11/1/1
f 94/2/1 28/2/1 27/2/1
f 95/2/1 28/2/1 94/2/1
f 96/2/1 30/2/1 29/2/1
f 97/2/1 30/2/1 96/2/1
f 98/5/1 82/5/1 17/5/1
f 100/6/1 61/6/1 19/6/1
f 101/6/1 63/6/1 62/6/1
f 102/6/1 63/6/1 101/6/1
f 103/4/1 86/4/1 85/4/1
f 104/4/1 86/4/1 103/4/1
f 105/7/1 68/7/1 67/7/1
f 106/7/1 68/7/1 105/7/1
f 107/3/1 88/3/1 7/3/1
f 108/3/1 88/3/1 107/3/1
f 109/3/1 10/3/1 91/3/1
f 110/3/1 10/3/1 109/3/1
f 111/1/1 93/1/1 92/1/1
f 111/1/1 92/1/1 11/1/1
f 112/1/1 93/1/1 111/1/1
f 113/2/1 96/2/1 95/2/1
f 114/2/1 96/2/1 113/2/1
f 115/8/1 77/8/1 76/8/1
f 116/8/1 77/8/1 115/8/1
f 117/8/1 81/8/1 80/8/1
f 118/8/1 81/8/1 117/8/1
f 119/5/1 98/5/1 17/5/1
f 119/5/1 99/5/1 98/5/1
f 120/5/1 99/5/1 119/5/1
f 121/6/1 101/6/1 100/6/1
f 121/6/1 100/6/1 19/6/1
f 122/6/1 101/6/1 121/6/1
f 123/4/2 124/4/2 146/4/2
f 133/1/2 134/1/2 147/1/2
f 147/1/2 134/1/2 148/1/2
f 135/2/2 136/2/2 150/2/2
f 150/2/2 136/2/2 151/2/2
f 139/5/2 140/5/2 153/5/2
f 153/5/2 140/5/2 154/5/2
f 143/6/2 144/6/2 156/6/2
f 156/6/2 144/6/2 157/6/2
f 145/4/2 146/4/2 159/4/2
f 159/4/2 146/4/2 160/4/2
f 125/7/2 126/7/2 161/7/2
f 161/7/2 126/7/2 162/7/2
f 127/7/2 128/7/2 163/7/2
f 163/7/2 128/7/2 164/7/2
f 137/8/2 138/8/2 166/8/2
f 166/8/2 138/8/2 167/8/2
f 141/6/2 142/6/2 169/6/2
f 155/6/2 156/6/2 170/6/2
f 170/6/2 156/6/2 171/6/2
f 160/4/2 146/4/2 173/4/2
f 146/4/2 124/4/2 174/4/2
f 173/4/2 146/4/2 174/4/2
f 162/7/2 163/7/2 175/7/2
f 175/7/2 163/7/2 176/7/2
f 133/1/2 147/1/2 179/1/2
f 139/5/2 153/5/2 181/5/2
f 171/6/2 172/6/2 183/6/2
f 170/6/2 171/6/2 183/6/2
f 141/6/2 169/6/2 183/6/2
f 169/6/2 170/6/2 183/6/2
f 183/6/2 172/6/2 184/6/2
f 162/7/2 175/7/2 188/7/2
f 188/7/2 175/7/2 189/7/2
f 176/7/2 163/7/2 190/7/2
f 190/7/2 163/7/2 191/7/2
f 129/3/2 130/3/2 192/3/2
f 177/3/2 178/3/2 193/3/2
f 193/3/2 178/3/2 194/3/2
f 131/3/2 132/3/2 195/3/2
f 179/1/2 180/1/2 196/1/2
f 133/1/2 179/1/2 196/1/2
f 196/1/2 180/1/2 197/1/2
f 165/8/2 166/8/2 199/8/2
f 199/8/2 166/8/2 200/8/2
f 167/8/2 168/8/2 201/8/2
f 201/8/2 168/8/2 202/8/2
f 181/5/2 182/5/2 204/5/2
f 139/5/2 181/5/2 204/5/2
f 204/5/2 182/5/2 205/5/2
f 158/4/2 159/4/2 206/4/2
f 206/4/2 159/4/2 207/4/2
f 186/4/2 187/4/2 208/4/2
f 208/4/2 187/4/2 209/4/2
f 129/3/2 192/3/2 210/3/2
f 192/3/2 193/3/2 210/3/2
f 210/3/2 193/3/2 211/3/2
f 194/3/2 195/3/2 212/3/2
f 195/3/2 132/3/2 213/3/2
f 212/3/2 195/3/2 213/3/2
f 133/1/2 196/1/2 214/1/2
f 149/2/2 150/2/2 216/2/2
f 216/2/2 150/2/2 217/2/2
f 151/2/2 152/2/2 218/2/2
f 218/2/2 152/2/2 219/2/2
f 139/5/2 204/5/2 220/5/2
f 141/6/2 183/6/2 222/6/2
f 184/6/2 185/6/2 223/6/2
f 223/6/2 185/6/2 224/6/2
f 207/4/2 208/4/2 225/4/2
f 225/4/2 208/4/2 226/4/2
f 189/7/2 190/7/2 227/7/2
f 227/7/2 190/7/2 228/7/2
f 129/3/2 210/3/2 229/3/2
f 229/3/2 210/3/2 230/3/2
f 213/3/2 132/3/2 231/3/2
f 231/3/2 132/3/2 232/3/2
f 214/1/2 215/1/2 233/1/2
f 133/1/2 214/1/2 233/1/2
f 233/1/2 215/1/2 234/1/2
f 217/2/2 218/2/2 235/2/2
f 235/2/2 218/2/2 236/2/2
f 198/8/2 199/8/2 237/8/2
f 237/8/2 199/8/2 238/8/2
f 202/8/2 203/8/2 239/8/2
f 239/8/2 203/8/2 240/8/2
f 139/5/2 220/5/2 241/5/2
f 220/5/2 221/5/2 241/5/2
f 241/5/2 221/5/2 242/5/2
f 222/6/2 223/6/2 243/6/2
f 141/6/2 222/6/2 243/6/2
f 243/6/2 223/6/2 244/6/2
f 247/4/3 246/4/3 245/4/3
f 248/4/3 246/4/3 247/4/3
f 253/4/3 250/4/3 249/4/3
f 254/4/3 250/4/3 253/4/3
f 255/4/3 252/4/3 251/4/3
f 256/4/3 252/4/3 255/4/3
f 259/4/3 258/4/3 257/4/3
f 260/4/3 258/4/3 259/4/3
f 265/4/3 262/4/3 261/4/3
f 266/4/3 262/4/3 265/4/3
f 267/4/3 264/4/3 263/4/3
f 268/4/3 264/4/3 267/4/3
f 271/7/3 270/7/3 269/7/3
f 272/7/3 270/7/3 271/7/3
f 275/7/3 274/7/3 273/7/3
f 276/7/3 274/7/3 275/7/3
f 279/7/3 278/7/3 277/7/3
f 280/7/3 278/7/3 279/7/3
f 283/7/3 282/7/3 281/7/3
f 284/7/3 282/7/3 283/7/3
f 287/7/3 286/7/3 285/7/3
f 288/7/3 286/7/3 287/7/3
f 291/3/3 290/3/3 289/3/3
f 292/3/3 290/3/3 291/3/3
f 295/3/3 294/3/3 293/3/3
f 296/3/3 294/3/3 295/3/3
f 299/3/3 298/3/3 297/3/3
f 300/3/3 298/3/3 299/3/3
f 305/3/3 302/3/3 301/3/3
f 306/3/3 302/3/3 305/3/3
f 307/3/3 304/3/3 303/3/3
f 308/3/3 304/3/3 307/3/3
f 311/1/3 310/1/3 309/1/3
f 312/1/3 310/1/3 311/1/3
f 315/2/3 314/2/3 313/2/3
f 316/2/3 314/2/3 315/2/3
f 321/2/3 318/2/3 317/2/3
f 322/2/3 318/2/3 321/2/3
f 323/2/3 320/2/3 319/2/3
f 324/2/3 320/2/3 323/2/3
f 327/2/3 326/2/3 325/2/3
f 328/2/3 326/2/3 327/2/3
f 331/8/3 330/8/3 329/8/3
f 332/8/3 330/8/3 331/8/3
f 335/8/3 334/8/3 333/8/3
f 336/8/3 334/8/3 335/8/3
f 339/8/3 338/8/3 337/8/3
f 340/8/3 338/8/3 339/8/3
f 343/8/3 342/8/3 341/8/3
f 344/8/3 342/8/3 343/8/3
f 347/8/3 346/8/3 345/8/3
f 348/8/3 346/8/3 347/8/3
f 351/5/3 350/5/3 349/5/3
f 352/5/3 350/5/3 351/5/3
f 355/6/3 354/6/3 353/6/3
f 356/6/3 354/6/3 355/6/3
f 359/6/3 358/6/3 357/6/3
f 360/6/3 358/6/3 359/6/3
f 363/6/3 362/6/3 361/6/3
f 364/6/3 362/6/3 363/6/3
f 367/6/3 366/6/3 365/6/3
f 368/6/3 366/6/3 367/6/3
f 369/4/4 370/4/4 371/4/4
f 371/4/4 370/4/4 372/4/4
f 373/4/4 374/4/4 375/4/4
f 375/4/4 374/4/4 376/4/4
f 377/4/4 378/4/4 381/4/4
f 381/4/4 378/4/4 382/4/4
f 379/4/4 380/4/4 383/4/4
f 383/4/4 380/4/4 384/4/4
f 385/7/4 386/7/4 387/7/4
f 387/7/4 386/7/4 388/7/4
f 389/7/4 390/7/4 391/7/4
f 391/7/4 390/7/4 392/7/4
f 393/7/4 394/7/4 395/7/4
f 395/7/4 394/7/4 396/7/4
f 397/7/4 398/7/4 399/7/4
f 399/7/4 398/7/4 400/7/4
f 401/7/4 402/7/4 403/7/4
f 403/7/4 402/7/4 404/7/4
f 405/3/4 406/3/4 409/3/4
f 409/3/4 406/3/4 410/3/4
f 407/3/4 408/3/4 411/3/4
f 411/3/4 408/3/4 412/3/4
f 413/3/4 414/3/4 415/3/4
f 415/3/4 414/3/4 416/3/4
f 417/3/4 418/3/4 419/3/4
f 419/3/4 418/3/4 420/3/4
f 421/3/4 422/3/4 423/3/4
f 423/3/4 422/3/4 424/3/4
f 425/1/4 426/1/4 429/1/4
f 429/1/4 426/1/4 430/1/4
f 427/1/4 428/1/4 431/1/4
f 431/1/4 428/1/4 432/1/4
f 433/1/4 434/1/4 435/1/4
f 435/1/4 434/1/4 436/1/4
f 437/1/4 438/1/4 441/1/4
f 441/1/4 438/1/4 442/1/4
f 439/1/4 440/1/4 443/1/4
f 443/1/4 440/1/4 444/1/4
f 445/2/4 446/2/4 447/2/4
f 447/2/4 446/2/4 448/2/4
f 449/2/4 450/2/4 453/2/4
f 453/2/4 450/2/4 454/2/4
f 451/2/4 452/2/4 455/2/4
f 455/2/4 452/2/4 456/2/4
f 457/2/4 458/2/4 459/2/4
f 459/2/4 458/2/4 460/2/4
f 461/8/4 462/8/4 463/8/4
f 463/8/4 462/8/4 464/8/4
f 465/8/4 466/8/4 467/8/4
f 467/8/4 466/8/4 468/8/4
f 469/8/4 470/8/4 471/8/4
f 471/8/4 470/8/4 472/8/4
f 473/8/4 474/8/4 475/8/4
f 475/8/4 474/8/4 476/8/4
f 477/8/4 478/8/4 479/8/4
f 479/8/4 478/8/4 480/8/4
f 481/5/4 482/5/4 485/5/4
f 485/5/4 482/5/4 486/5/4
f 483/5/4 484/5/4 487/5/4
f 487/5/4 484/5/4 488/5/4
f 489/5/4 490/5/4 491/5/4
f 491/5/4 490/5/4 492/5/4
f 493/5/4 494/5/4 497/5/4
f 497/5/4 494/5/4 498/5/4
f 495/5/4 496/5/4 499/5/4
f 499/5/4 496/5/4 500/5/4
f 501/6/4 502/6/4 505/6/4
f 505/6/4 502/6/4 506/6/4
f 503/6/4 504/6/4 507/6/4
f 507/6/4 504/6/4 508/6/4
f 509/6/4 510/6/4 511/6/4
f 511/6/4 510/6/4 512/6/4
f 513/6/4 514/6/4 517/6/4
f 517/6/4 514/6/4 518/6/4
f 515/6/4 516/6/4 519/6/4
f 519/6/4 516/6/4 520/6/4
f 521/6/4 522/6/4 525/6/4
f 525/6/4 522/6/4 526/6/4
f 523/6/4 524/6/4 527/6/4
f 527/6/4 524/6/4 528/6/4
f 531/4/5 530/4/5 529/4/5
f 532/4/5 530/4/5 531/4/5
f 535/7/5 534/7/5 533/7/5
f 536/7/5 534/7/5 535/7/5
f 539/7/5 538/7/5 537/7/5
f 540/7/5 538/7/5 539/7/5
f 543/3/5 542/3/5 541/3/5
f 544/3/5 542/3/5 543/3/5
f 547/3/5 546/3/5 545/3/5
f 548/3/5 546/3/5 547/3/5
f 551/1/5 550/1/5 549/1/5
f 552/1/5 550/1/5 551/1/5
f 555/2/5 554/2/5 553/2/5
f 556/2/5 554/2/5 555/2/5
f 559/8/5 558/8/5 557/8/5
f 560/8/5 558/8/5 559/8/5
f 563/5/5 562/5/5 561/5/5
f 564/5/5 562/5/5 563/5/5
f 567/6/5 566/6/5 565/6/5
f 568/6/5 566/6/5 567/6/5
f 571/6/5 570/6/5 569/6/5
f 572/6/5 570/6/5 571/6/5
f 575/4/5 574/4/5 573/4/5
f 576/4/5 574/4/5 575/4/5
f 579/2/5 578/2/5 577/2/5
f 580/2/5 578/2/5 579/2/5
f 583/2/5 582/2/5 581/2/5
f 584/2/5 582/2/5 583/2/5
f 587/6/5 586/6/5 585/6/5
f 588/6/5 586/6/5 587/6/5
f 591/4/5 590/4/5 589/4/5
f 592/4/5 590/4/5 591/4/5
f 595/7/5 594/7/5 593/7/5
f 596/7/5 594/7/5 595/7/5
f 599/8/5 598/8/5 597/8/5
f 600/8/5 598/8/5 599/8/5
f 603/8/5 602/8/5 601/8/5
f 604/8/5 602/8/5 603/8/5
f 607/6/5 606/6/5 605/6/5
f 608/6/5 606/6/5 607/6/5
f 611/6/5 610/6/5 609/6/5
f 612/6/5 610/6/5 611/6/5
f 615/3/5 614/3/5 613/3/5
f 616/3/5 614/3/5 615/3/5
f 619/1/5 618/1/5 617/1/5
f 620/1/5 618/1/5 619/1/5
f 623/5/5 622/5/5 621/5/5
f 624/5/5 622/5/5 623/5/5
f 627/6/5 626/6/5 625/6/5
f 628/6/5 626/6/5 627/6/5
f 631/4/5 630/4/5 629/4/5
f 632/4/5 630/4/5 631/4/5
f 635/7/5 634/7/5 633/7/5
f 636/7/5 634/7/5 635/7/5
f 639/3/5 638/3/5 637/3/5
f 640/3/5 638/3/5 639/3/5
f 643/3/5 642/3/5 641/3/5
f 644/3/5 642/3/5 643/3/5
f 647/8/5 646/8/5 645/8/5
f 648/8/5 646/8/5 647/8/5
f 651/8/5 650/8/5 649/8/5
f 652/8/5 650/8/5 651/8/5
f 655/4/5 654/4/5 653/4/5
f 656/4/5 654/4/5 655/4/5
f 659/1/5 658/1/5 657/1/5
f 660/1/5 658/1/5 659/1/5
f 663/2/5 662/2/5 661/2/5
f 664/2/5 662/2/5 663/2/5
f 667/5/5 666/5/5 665/5/5
f 668/5/5 666/5/5 667/5/5
f 671/6/5 670/6/5 669/6/5
f 672/6/5 670/6/5 671/6/5
f 673/1/6 674/1/6 675/1/6
f 675/1/6 674/1/6 676/1/6
f 677/2/6 678/2/6 679/2/6
f 679/2/6 678/2/6 680/2/6
f 681/5/6 682/5/6 683/5/6
f 683/5/6 682/5/6 684/5/6
f 685/6/6 686/6/6 687/6/6
f 687/6/6 686/6/6 688/6/6
f 689/4/6 690/4/6 691/4/6
f 691/4/6 690/4/6 692/4/6
f 693/7/6 694/7/6 695/7/6
f 695/7/6 694/7/6 696/7/6
f 697/7/6 698/7/6 699/7/6
f 699/7/6 698/7/6 700/7/6
f 701/8/6 702/8/6 703/8/6
f 703/8/6 702/8/6 704/8/6
f 705/4/6 706/4/6 707/4/6
f 707/4/6 706/4/6 708/4/6
f 709/7/6 710/7/6 711/7/6
f 711/7/6 710/7/6 712/7/6
f 713/6/6 714/6/6 715/6/6
f 715/6/6 714/6/6 716/6/6
f 717/7/6 718/7/6 719/7/6
f 719/7/6 718/7/6 720/7/6
f 721/7/6 722/7/6 723/7/6
f 723/7/6 722/7/6 724/7/6
f 725/3/6 726/3/6 727/3/6
f 727/3/6 726/3/6 728/3/6
f 729/1/6 730/1/6 731/1/6
f 731/1/6 730/1/6 732/1/6
f 733/8/6 734/8/6 735/8/6
f 735/8/6 734/8/6 736/8/6
f 737/8/6 738/8/6 739/8/6
f 739/8/6 738/8/6 740/8/6
f 741/5/6 742/5/6 743/5/6
f 743/5/6 742/5/6 744/5/6
f 745/4/6 746/4/6 747/4/6
f 747/4/6 746/4/6 748/4/6
f 749/4/6 750/4/6 751/4/6
f 751/4/6 750/4/6 752/4/6
f 753/3/6 754/3/6 755/3/6
f 755/3/6 754/3/6 756/3/6
f 757/3/6 758/3/6 759/3/6
f 759/3/6 758/3/6 760/3/6
f 761/2/6 762/2/6 763/2/6
f 763/2/6 762/2/6 764/2/6
f 765/2/6 766/2/6 767/2/6
f 767/2/6 766/2/6 768/2/6
f 769/6/6 770/6/6 771/6/6
f 771/6/6 770/6/6 772/6/6
f 773/4/6 774/4/6 775/4/6
f 775/4/6 774/4/6 776/4/6
f 777/7/6 778/7/6 779/7/6
f 779/7/6 778/7/6 780/7/6
f 781/3/6 782/3/6 783/3/6
f 783/3/6 782/3/6 784/3/6
f 785/3/6 786/3/6 787/3/6
f 787/3/6 786/3/6 788/3/6
f 789/1/6 790/1/6 791/1/6
f 791/1/6 790/1/6 792/1/6
f 793/2/6 794/2/6 795/2/6
f 795/2/6 794/2/6 796/2/6
f 797/8/6 798/8/6 799/8/6
f 799/8/6 798/8/6 800/8/6
f 801/8/6 802/8/6 803/8/6
f 803/8/6 802/8/6 804/8/6
f 805/5/6 806/5/6 807/5/6
f 807/5/6 806/5/6 808/5/6
f 809/6/6 810/6/6 811/6/6
f 811/6/6 810/6/6 812/6/6
