# MagicaVoxel @ Ephtracy

# group
g tanuki_run_2

# material
mtllib tanuki_run_2.mtl
usemtl palette

# normals
vn -1 0 0
vn 1 0 0
vn 0 0 1
vn 0 0 -1
vn 0 -1 0
vn 0 1 0

# texcoords
vt 0.0644531 0.5
vt 0.373047 0.5
vt 0.841797 0.5
vt 0.876953 0.5
vt 0.958984 0.5

# verts
v -7 8 2
v -7 8 -1
v -7 13 2
v -7 13 -1
v -7 14 1
v -7 14 -1
v -7 16 1
v -7 16 -1
v -6 7 2
v -6 7 -2
v -6 8 2
v -6 8 -1
v -6 13 2
v -6 13 -1
v -6 14 2
v -6 14 1
v -6 14 -1
v -6 14 -2
v -5 8 -2
v -5 8 -3
v -5 14 -2
v -5 14 -3
v -4 3 1
v -4 3 -2
v -4 4 -3
v -4 4 -4
v -4 5 -2
v -4 5 -3
v -4 6 -2
v -4 6 -4
v -4 7 1
v -4 7 -2
v -4 7 -3
v -4 8 -2
v -4 8 -3
v -4 14 2
v -4 14 -2
v -4 15 2
v -4 15 -2
v -3 2 3
v -3 2 1
v -3 2 -2
v -3 3 3
v -3 3 1
v -3 3 -2
v 2 1 -1
v 2 1 -3
v 2 2 -1
v 2 2 -2
v 2 2 -3
v 3 5 3
v 3 5 1
v 3 6 2
v 3 6 1
v 3 7 3
v 3 7 2
v 5 14 1
v 5 14 -1
v 5 16 1
v 5 16 -1
v -5 14 1
v -5 14 -1
v -5 16 1
v -5 16 -1
v -3 4 -3
v -3 4 -4
v -3 5 -2
v -3 5 -3
v -3 6 -2
v -3 6 -4
v -2 2 3
v -2 2 1
v -2 3 3
v -2 3 1
v 3 1 -1
v 3 1 -3
v 3 2 1
v 3 2 -1
v 3 2 -2
v 3 2 -3
v 3 3 1
v 3 3 -2
v 4 3 1
v 4 3 -2
v 4 5 3
v 4 5 1
v 4 6 2
v 4 6 1
v 4 7 3
v 4 7 2
v 4 7 1
v 4 7 -2
v 4 7 -3
v 4 8 -2
v 4 8 -3
v 4 14 2
v 4 14 -2
v 4 15 2
v 4 15 -2
v 5 8 -2
v 5 8 -3
v 5 14 -2
v 5 14 -3
v 6 7 2
v 6 7 -2
v 6 8 2
v 6 8 -1
v 6 13 2
v 6 13 -1
v 6 14 2
v 6 14 1
v 6 14 -1
v 6 14 -2
v 7 8 2
v 7 8 -1
v 7 13 2
v 7 13 -1
v 7 14 1
v 7 14 -1
v 7 16 1
v 7 16 -1
v -3 2 3
v -3 3 3
v -2 2 3
v -2 3 3
v 3 5 3
v 3 7 3
v 4 5 3
v 4 7 3
v -7 8 2
v -7 13 2
v -6 7 2
v -6 8 2
v -6 13 2
v -6 14 2
v -5 10 2
v -5 12 2
v -4 9 2
v -4 10 2
v -4 11 2
v -4 12 2
v -4 13 2
v -4 14 2
v -4 15 2
v -3 11 2
v -3 12 2
v -2 9 2
v -2 10 2
v -2 11 2
v -2 12 2
v -1 8 2
v -1 9 2
v -1 10 2
v -1 11 2
v -1 12 2
v 1 8 2
v 1 9 2
v 1 10 2
v 1 11 2
v 1 12 2
v 2 9 2
v 2 10 2
v 2 11 2
v 2 12 2
v 3 7 2
v 3 11 2
v 3 12 2
v 4 7 2
v 4 9 2
v 4 10 2
v 4 11 2
v 4 12 2
v 4 13 2
v 4 14 2
v 4 15 2
v 5 10 2
v 5 12 2
v 6 7 2
v 6 8 2
v 6 13 2
v 6 14 2
v 7 8 2
v 7 13 2
v -7 14 1
v -7 16 1
v -6 14 1
v -5 14 1
v -5 16 1
v -4 3 1
v -4 7 1
v -3 3 1
v -2 2 1
v -2 3 1
v -2 5 1
v -1 5 1
v -1 6 1
v 1 5 1
v 1 6 1
v 2 3 1
v 2 5 1
v 3 2 1
v 3 3 1
v 3 5 1
v 3 6 1
v 4 3 1
v 4 5 1
v 4 6 1
v 4 7 1
v 5 14 1
v 5 16 1
v 6 14 1
v 7 14 1
v 7 16 1
v 2 1 -1
v 2 2 -1
v 3 1 -1
v 3 2 -1
v -4 4 -3
v -4 5 -3
v -3 4 -3
v -3 5 -3
v 3 6 2
v 3 7 2
v 4 6 2
v 4 7 2
v -7 8 -1
v -7 13 -1
v -7 14 -1
v -7 16 -1
v -6 8 -1
v -6 13 -1
v -6 14 -1
v -5 14 -1
v -5 16 -1
v 5 14 -1
v 5 16 -1
v 6 8 -1
v 6 13 -1
v 6 14 -1
v 7 8 -1
v 7 13 -1
v 7 14 -1
v 7 16 -1
v -6 7 -2
v -6 14 -2
v -5 8 -2
v -5 14 -2
v -4 3 -2
v -4 5 -2
v -4 6 -2
v -4 7 -2
v -4 8 -2
v -4 14 -2
v -4 15 -2
v -3 2 -2
v -3 3 -2
v -3 5 -2
v -3 6 -2
v 2 2 -2
v 3 2 -2
v 3 3 -2
v 4 3 -2
v 4 7 -2
v 4 8 -2
v 4 14 -2
v 4 15 -2
v 5 8 -2
v 5 14 -2
v 6 7 -2
v 6 14 -2
v -5 8 -3
v -5 14 -3
v -4 7 -3
v -4 8 -3
v 2 1 -3
v 2 2 -3
v 3 1 -3
v 3 2 -3
v 4 7 -3
v 4 8 -3
v 5 8 -3
v 5 14 -3
v -4 4 -4
v -4 6 -4
v -3 4 -4
v -3 6 -4
v 2 1 -1
v 3 1 -1
v 2 1 -3
v 3 1 -3
v -3 2 3
v -2 2 3
v -3 2 1
v -2 2 1
v 3 2 1
v 2 2 -1
v 3 2 -1
v -3 2 -2
v 2 2 -2
v -4 3 1
v -3 3 1
v 3 3 1
v 4 3 1
v -4 3 -2
v -3 3 -2
v 3 3 -2
v 4 3 -2
v -4 4 -3
v -3 4 -3
v -4 4 -4
v -3 4 -4
v 3 5 3
v 4 5 3
v 3 5 1
v 4 5 1
v -4 5 -2
v -3 5 -2
v -4 5 -3
v -3 5 -3
v -6 7 2
v 3 7 2
v 4 7 2
v 6 7 2
v -4 7 1
v 4 7 1
v -6 7 -2
v -4 7 -2
v 4 7 -2
v 6 7 -2
v -4 7 -3
v 4 7 -3
v -7 8 2
v -6 8 2
v 6 8 2
v 7 8 2
v -7 8 -1
v -6 8 -1
v 6 8 -1
v 7 8 -1
v -5 8 -2
v -4 8 -2
v 4 8 -2
v 5 8 -2
v -5 8 -3
v -4 8 -3
v 4 8 -3
v 5 8 -3
v -7 14 1
v -6 14 1
v 6 14 1
v 7 14 1
v -7 14 -1
v -6 14 -1
v 6 14 -1
v 7 14 -1
v 2 2 -2
v 3 2 -2
v 2 2 -3
v 3 2 -3
v -3 3 3
v -2 3 3
v -3 3 1
v -2 3 1
v 3 6 2
v 4 6 2
v 3 6 1
v 4 6 1
v -4 6 -2
v -3 6 -2
v -4 6 -4
v -3 6 -4
v 3 7 3
v 4 7 3
v 3 7 2
v 4 7 2
v -7 13 2
v -6 13 2
v 6 13 2
v 7 13 2
v -7 13 -1
v -6 13 -1
v 6 13 -1
v 7 13 -1
v -6 14 2
v -4 14 2
v 4 14 2
v 6 14 2
v -6 14 1
v -5 14 1
v 5 14 1
v 6 14 1
v -6 14 -1
v -5 14 -1
v 5 14 -1
v 6 14 -1
v -6 14 -2
v -5 14 -2
v -4 14 -2
v 4 14 -2
v 5 14 -2
v 6 14 -2
v -5 14 -3
v 5 14 -3
v -4 15 2
v 4 15 2
v -4 15 -2
v 4 15 -2
v -7 16 1
v -5 16 1
v 5 16 1
v 7 16 1
v -7 16 -1
v -5 16 -1
v 5 16 -1
v 7 16 -1

# faces
f 3/1/1 2/1/1 1/1/1
f 4/1/1 2/1/1 3/1/1
f 7/2/1 6/2/1 5/2/1
f 8/2/1 6/2/1 7/2/1
f 11/1/1 10/1/1 9/1/1
f 12/1/1 10/1/1 11/1/1
f 14/1/1 10/1/1 12/1/1
f 15/1/1 14/1/1 13/1/1
f 16/1/1 14/1/1 15/1/1
f 17/1/1 10/1/1 14/1/1
f 17/1/1 14/1/1 16/1/1
f 18/1/1 10/1/1 17/1/1
f 21/1/1 20/1/1 19/1/1
f 22/1/1 20/1/1 21/1/1
f 27/1/1 24/1/1 23/1/1
f 28/2/1 26/2/1 25/2/1
f 29/1/1 27/1/1 23/1/1
f 29/2/1 28/2/1 27/2/1
f 30/2/1 26/2/1 28/2/1
f 30/2/1 28/2/1 29/2/1
f 31/1/1 29/1/1 23/1/1
f 32/1/1 29/1/1 31/1/1
f 34/1/1 33/1/1 32/1/1
f 35/1/1 33/1/1 34/1/1
f 38/1/1 37/1/1 36/1/1
f 39/1/1 37/1/1 38/1/1
f 43/2/1 41/2/1 40/2/1
f 44/1/1 42/1/1 41/1/1
f 44/2/1 41/2/1 43/2/1
f 45/1/1 42/1/1 44/1/1
f 48/2/1 47/2/1 46/2/1
f 49/2/1 47/2/1 48/2/1
f 50/2/1 47/2/1 49/2/1
f 53/2/1 52/2/1 51/2/1
f 54/2/1 52/2/1 53/2/1
f 55/2/1 53/2/1 51/2/1
f 56/2/1 53/2/1 55/2/1
f 59/2/1 58/2/1 57/2/1
f 60/2/1 58/2/1 59/2/1
f 61/2/2 62/2/2 63/2/2
f 63/2/2 62/2/2 64/2/2
f 65/2/2 66/2/2 68/2/2
f 67/2/2 68/2/2 69/2/2
f 68/2/2 66/2/2 70/2/2
f 69/2/2 68/2/2 70/2/2
f 71/2/2 72/2/2 73/2/2
f 73/2/2 72/2/2 74/2/2
f 75/2/2 76/2/2 78/2/2
f 78/2/2 76/2/2 79/2/2
f 79/2/2 76/2/2 80/2/2
f 77/1/2 78/1/2 81/1/2
f 78/1/2 79/1/2 81/1/2
f 81/1/2 79/1/2 82/1/2
f 83/1/2 84/1/2 86/1/2
f 85/2/2 86/2/2 87/2/2
f 86/1/2 84/1/2 88/1/2
f 87/2/2 86/2/2 88/2/2
f 85/2/2 87/2/2 89/2/2
f 89/2/2 87/2/2 90/2/2
f 88/1/2 84/1/2 91/1/2
f 91/1/2 84/1/2 92/1/2
f 92/1/2 93/1/2 94/1/2
f 94/1/2 93/1/2 95/1/2
f 96/1/2 97/1/2 98/1/2
f 98/1/2 97/1/2 99/1/2
f 100/1/2 101/1/2 102/1/2
f 102/1/2 101/1/2 103/1/2
f 104/1/2 105/1/2 106/1/2
f 106/1/2 105/1/2 107/1/2
f 107/1/2 105/1/2 109/1/2
f 108/1/2 109/1/2 110/1/2
f 110/1/2 109/1/2 111/1/2
f 109/1/2 105/1/2 112/1/2
f 111/1/2 109/1/2 112/1/2
f 112/1/2 105/1/2 113/1/2
f 114/1/2 115/1/2 116/1/2
f 116/1/2 115/1/2 117/1/2
f 118/2/2 119/2/2 120/2/2
f 120/2/2 119/2/2 121/2/2
f 124/2/3 123/2/3 122/2/3
f 125/2/3 123/2/3 124/2/3
f 128/2/3 127/2/3 126/2/3
f 129/2/3 127/2/3 128/2/3
f 133/1/3 131/1/3 130/1/3
f 134/1/3 131/1/3 133/1/3
f 136/1/3 133/1/3 132/1/3
f 136/1/3 135/1/3 134/1/3
f 136/1/3 134/1/3 133/1/3
f 137/1/3 135/1/3 136/1/3
f 138/1/3 136/1/3 132/1/3
f 139/2/3 137/2/3 136/2/3
f 139/1/3 136/1/3 138/1/3
f 140/2/3 137/2/3 139/2/3
f 141/1/3 135/1/3 137/1/3
f 141/2/3 137/2/3 140/2/3
f 142/1/3 135/1/3 141/1/3
f 143/1/3 135/1/3 142/1/3
f 145/2/3 140/2/3 139/2/3
f 145/2/3 139/2/3 138/2/3
f 145/5/3 141/5/3 140/5/3
f 146/2/3 142/2/3 141/2/3
f 146/5/3 141/5/3 145/5/3
f 147/1/3 138/1/3 132/1/3
f 147/2/3 145/2/3 138/2/3
f 148/2/3 145/2/3 147/2/3
f 149/4/3 146/4/3 145/4/3
f 149/2/3 145/2/3 148/2/3
f 150/2/3 142/2/3 146/2/3
f 150/4/3 146/4/3 149/4/3
f 151/1/3 148/1/3 147/1/3
f 151/1/3 147/1/3 132/1/3
f 152/1/3 148/1/3 151/1/3
f 153/2/3 149/2/3 148/2/3
f 153/1/3 148/1/3 152/1/3
f 154/5/3 150/5/3 149/5/3
f 154/2/3 149/2/3 153/2/3
f 155/2/3 142/2/3 150/2/3
f 155/5/3 150/5/3 154/5/3
f 156/3/3 152/3/3 151/3/3
f 156/1/3 151/1/3 132/1/3
f 157/1/3 153/1/3 152/1/3
f 157/3/3 152/3/3 156/3/3
f 158/4/3 154/4/3 153/4/3
f 158/1/3 153/1/3 157/1/3
f 159/2/3 155/2/3 154/2/3
f 159/4/3 154/4/3 158/4/3
f 160/2/3 142/2/3 155/2/3
f 160/2/3 155/2/3 159/2/3
f 161/1/3 157/1/3 156/1/3
f 161/1/3 158/1/3 157/1/3
f 162/2/3 159/2/3 158/2/3
f 162/1/3 158/1/3 161/1/3
f 163/5/3 160/5/3 159/5/3
f 163/2/3 159/2/3 162/2/3
f 164/2/3 142/2/3 160/2/3
f 164/5/3 160/5/3 163/5/3
f 165/1/3 161/1/3 156/1/3
f 165/1/3 156/1/3 132/1/3
f 166/2/3 163/2/3 162/2/3
f 166/4/3 164/4/3 163/4/3
f 166/2/3 162/2/3 161/2/3
f 167/2/3 142/2/3 164/2/3
f 167/4/3 164/4/3 166/4/3
f 168/1/3 161/1/3 165/1/3
f 169/2/3 166/2/3 161/2/3
f 169/1/3 161/1/3 168/1/3
f 170/2/3 166/2/3 169/2/3
f 171/5/3 167/5/3 166/5/3
f 171/2/3 166/2/3 170/2/3
f 172/2/3 142/2/3 167/2/3
f 172/5/3 167/5/3 171/5/3
f 173/1/3 144/1/3 143/1/3
f 173/2/3 142/2/3 172/2/3
f 173/1/3 143/1/3 142/1/3
f 174/1/3 144/1/3 173/1/3
f 175/1/3 144/1/3 174/1/3
f 176/2/3 172/2/3 171/2/3
f 176/1/3 169/1/3 168/1/3
f 176/2/3 171/2/3 170/2/3
f 176/1/3 170/1/3 169/1/3
f 177/1/3 174/1/3 173/1/3
f 177/2/3 172/2/3 176/2/3
f 177/1/3 173/1/3 172/1/3
f 178/1/3 176/1/3 168/1/3
f 178/1/3 177/1/3 176/1/3
f 179/1/3 177/1/3 178/1/3
f 180/1/3 174/1/3 177/1/3
f 180/1/3 177/1/3 179/1/3
f 181/1/3 174/1/3 180/1/3
f 182/1/3 180/1/3 179/1/3
f 183/1/3 180/1/3 182/1/3
f 186/2/3 185/2/3 184/2/3
f 187/2/3 185/2/3 186/2/3
f 188/2/3 185/2/3 187/2/3
f 191/1/3 190/1/3 189/1/3
f 193/1/3 190/1/3 191/1/3
f 194/1/3 190/1/3 193/1/3
f 195/2/3 194/2/3 193/2/3
f 195/1/3 190/1/3 194/1/3
f 196/1/3 190/1/3 195/1/3
f 197/2/3 195/2/3 193/2/3
f 197/2/3 196/2/3 195/2/3
f 198/1/3 190/1/3 196/1/3
f 198/2/3 196/2/3 197/2/3
f 199/1/3 193/1/3 192/1/3
f 199/2/3 197/2/3 193/2/3
f 200/1/3 198/1/3 197/1/3
f 200/2/3 197/2/3 199/2/3
f 201/1/3 199/1/3 192/1/3
f 201/1/3 200/1/3 199/1/3
f 202/1/3 200/1/3 201/1/3
f 203/1/3 198/1/3 200/1/3
f 203/1/3 200/1/3 202/1/3
f 204/1/3 190/1/3 198/1/3
f 204/1/3 198/1/3 203/1/3
f 205/1/3 203/1/3 202/1/3
f 206/1/3 203/1/3 205/1/3
f 207/1/3 190/1/3 204/1/3
f 208/1/3 190/1/3 207/1/3
f 211/2/3 210/2/3 209/2/3
f 212/2/3 210/2/3 211/2/3
f 213/2/3 210/2/3 212/2/3
f 216/2/3 215/2/3 214/2/3
f 217/2/3 215/2/3 216/2/3
f 220/2/3 219/2/3 218/2/3
f 221/2/3 219/2/3 220/2/3
f 222/2/4 223/2/4 224/2/4
f 224/2/4 223/2/4 225/2/4
f 226/1/4 227/1/4 230/1/4
f 230/1/4 227/1/4 231/1/4
f 228/2/4 229/2/4 232/2/4
f 232/2/4 229/2/4 233/2/4
f 233/2/4 229/2/4 234/2/4
f 235/2/4 236/2/4 239/2/4
f 237/1/4 238/1/4 240/1/4
f 240/1/4 238/1/4 241/1/4
f 239/2/4 236/2/4 242/2/4
f 242/2/4 236/2/4 243/2/4
f 244/1/4 245/1/4 246/1/4
f 246/1/4 245/1/4 247/1/4
f 244/1/4 246/1/4 251/1/4
f 251/1/4 246/1/4 252/1/4
f 248/1/4 249/1/4 256/1/4
f 256/1/4 249/1/4 257/1/4
f 250/1/4 251/1/4 258/1/4
f 256/1/4 257/1/4 259/1/4
f 257/1/4 258/1/4 259/1/4
f 255/1/4 256/1/4 259/1/4
f 259/1/4 258/1/4 260/1/4
f 260/1/4 258/1/4 261/1/4
f 261/1/4 258/1/4 262/1/4
f 258/1/4 251/1/4 263/1/4
f 262/1/4 258/1/4 263/1/4
f 253/1/4 254/1/4 265/1/4
f 265/1/4 254/1/4 266/1/4
f 263/1/4 264/1/4 267/1/4
f 263/1/4 267/1/4 269/1/4
f 267/1/4 268/1/4 269/1/4
f 269/1/4 268/1/4 270/1/4
f 271/1/4 272/1/4 274/1/4
f 275/2/4 276/2/4 277/2/4
f 277/2/4 276/2/4 278/2/4
f 273/1/4 274/1/4 279/1/4
f 274/1/4 272/1/4 280/1/4
f 279/1/4 274/1/4 280/1/4
f 280/1/4 272/1/4 281/1/4
f 281/1/4 272/1/4 282/1/4
f 283/2/4 284/2/4 285/2/4
f 285/2/4 284/2/4 286/2/4
f 289/2/5 288/2/5 287/2/5
f 290/2/5 288/2/5 289/2/5
f 293/2/5 292/2/5 291/2/5
f 294/2/5 292/2/5 293/2/5
f 296/1/5 294/1/5 293/1/5
f 296/1/5 295/1/5 294/1/5
f 297/1/5 295/1/5 296/1/5
f 298/1/5 296/1/5 293/1/5
f 299/1/5 296/1/5 298/1/5
f 304/1/5 301/1/5 300/1/5
f 305/1/5 301/1/5 304/1/5
f 306/1/5 303/1/5 302/1/5
f 307/1/5 303/1/5 306/1/5
f 310/2/5 309/2/5 308/2/5
f 311/2/5 309/2/5 310/2/5
f 314/2/5 313/2/5 312/2/5
f 315/2/5 313/2/5 314/2/5
f 318/2/5 317/2/5 316/2/5
f 319/2/5 317/2/5 318/2/5
f 324/1/5 321/1/5 320/1/5
f 324/1/5 323/1/5 322/1/5
f 324/1/5 322/1/5 321/1/5
f 325/1/5 323/1/5 324/1/5
f 326/1/5 324/1/5 320/1/5
f 327/1/5 324/1/5 326/1/5
f 328/1/5 323/1/5 325/1/5
f 329/1/5 323/1/5 328/1/5
f 330/1/5 328/1/5 327/1/5
f 331/1/5 328/1/5 330/1/5
f 336/1/5 333/1/5 332/1/5
f 337/1/5 333/1/5 336/1/5
f 338/1/5 335/1/5 334/1/5
f 339/1/5 335/1/5 338/1/5
f 344/1/5 341/1/5 340/1/5
f 345/1/5 341/1/5 344/1/5
f 346/1/5 343/1/5 342/1/5
f 347/1/5 343/1/5 346/1/5
f 352/2/5 349/2/5 348/2/5
f 353/2/5 349/2/5 352/2/5
f 354/2/5 351/2/5 350/2/5
f 355/2/5 351/2/5 354/2/5
f 356/2/6 357/2/6 358/2/6
f 358/2/6 357/2/6 359/2/6
f 360/2/6 361/2/6 362/2/6
f 362/2/6 361/2/6 363/2/6
f 364/2/6 365/2/6 366/2/6
f 366/2/6 365/2/6 367/2/6
f 368/2/6 369/2/6 370/2/6
f 370/2/6 369/2/6 371/2/6
f 372/2/6 373/2/6 374/2/6
f 374/2/6 373/2/6 375/2/6
f 376/1/6 377/1/6 380/1/6
f 380/1/6 377/1/6 381/1/6
f 378/1/6 379/1/6 382/1/6
f 382/1/6 379/1/6 383/1/6
f 384/1/6 385/1/6 388/1/6
f 388/1/6 385/1/6 389/1/6
f 386/1/6 387/1/6 390/1/6
f 390/1/6 387/1/6 391/1/6
f 389/1/6 385/1/6 393/1/6
f 386/1/6 390/1/6 394/1/6
f 392/1/6 393/1/6 396/1/6
f 393/1/6 385/1/6 397/1/6
f 396/1/6 393/1/6 397/1/6
f 397/1/6 385/1/6 398/1/6
f 394/1/6 395/1/6 399/1/6
f 386/1/6 394/1/6 399/1/6
f 399/1/6 395/1/6 400/1/6
f 400/1/6 395/1/6 401/1/6
f 397/1/6 398/1/6 402/1/6
f 399/1/6 400/1/6 402/1/6
f 398/1/6 399/1/6 402/1/6
f 402/1/6 400/1/6 403/1/6
f 404/1/6 405/1/6 406/1/6
f 406/1/6 405/1/6 407/1/6
f 408/2/6 409/2/6 412/2/6
f 412/2/6 409/2/6 413/2/6
f 410/2/6 411/2/6 414/2/6
f 414/2/6 411/2/6 415/2/6
