# MagicaVoxel @ Ephtracy

# group
o 

# material
mtllib logo_finish.mtl
usemtl palette

# normals
vn -1 0 0
vn 1 0 0
vn 0 0 1
vn 0 0 -1
vn 0 -1 0
vn 0 1 0

# texcoords
vt 0.232422 0.5
vt 0.537109 0.5
vt 0.576172 0.5
vt 0.748047 0.5
vt 0.818359 0.5
vt 0.837891 0.5
vt 0.982422 0.5
vt 0.986328 0.5

# verts
v -1.2 0 0
v -1.2 0 -0.1
v -1.2 0.5 0
v -1.2 0.5 -0.1
v -1.2 0.6 0
v -1.2 0.6 -0.1
v -0.8 0 0
v -0.8 0 -0.1
v -0.8 0.1 0
v -0.8 0.1 -0.1
v -0.8 0.4 0
v -0.8 0.4 -0.1
v -0.8 0.5 0
v -0.8 0.5 -0.1
v -0.7 0.1 0
v -0.7 0.1 -0.1
v -0.7 0.4 0
v -0.7 0.4 -0.1
v -0.7 0.5 0
v -0.7 0.5 -0.1
v -0.7 0.6 0
v -0.7 0.6 -0.1
v -0.4 0 0
v -0.4 0 -0.1
v -0.4 0.5 0
v -0.4 0.5 -0.1
v -0.4 0.6 0
v -0.4 0.6 -0.1
v -0.2 0 0
v -0.2 0 -0.1
v -0.2 0.5 0
v -0.2 0.5 -0.1
v 0 0 0
v 0 0 -0.1
v 0 0.1 0
v 0 0.1 -0.1
v 0 0.3 0
v 0 0.3 -0.1
v 0 0.5 0
v 0 0.5 -0.1
v 0.0999999 0.1 0
v 0.0999999 0.1 -0.1
v 0.0999999 0.3 0
v 0.0999999 0.3 -0.1
v 0.0999999 0.5 0
v 0.0999999 0.5 -0.1
v 0.0999999 0.6 0
v 0.0999999 0.6 -0.1
v 0.4 0 0
v 0.4 0 -0.1
v 0.4 0.1 0
v 0.4 0.1 -0.1
v 0.4 0.4 0
v 0.4 0.4 -0.1
v 0.4 0.5 0
v 0.4 0.5 -0.1
v 0.5 0.3 0
v 0.5 0.3 -0.1
v 0.5 0.4 0
v 0.5 0.4 -0.1
v 0.5 0.5 0
v 0.5 0.5 -0.1
v 0.5 0.6 0
v 0.5 0.6 -0.1
v 0.6 0.1 0
v 0.6 0.1 -0.1
v 0.6 0.3 0
v 0.6 0.3 -0.1
v 0.8 0 0
v 0.8 0 -0.1
v 0.8 0.5 0
v 0.8 0.5 -0.1
v 0.8 0.6 0
v 0.8 0.6 -0.1
v 1 0 0
v 1 0 -0.1
v 1 0.2 0
v 1 0.2 -0.1
v 1 0.3 0
v 1 0.3 -0.1
v 1 0.5 0
v 1 0.5 -0.1
v 1 0.6 0
v 1 0.6 -0.1
v 1.2 0 0
v 1.2 0 -0.1
v 1.2 0.1 0
v 1.2 0.1 -0.1
v 1.2 0.2 0
v 1.2 0.2 -0.1
v 1.2 0.5 0
v 1.2 0.5 -0.1
v 1.2 0.6 0
v 1.2 0.6 -0.1
v -1.1 0 0
v -1.1 0 -0.1
v -1.1 0.3 0
v -1.1 0.3 -0.1
v -1.1 0.4 0
v -1.1 0.4 -0.1
v -1.1 0.5 0
v -1.1 0.5 -0.1
v -1 0.3 0
v -1 0.3 -0.1
v -1 0.4 0
v -1 0.4 -0.1
v -0.9 0.5 0
v -0.9 0.5 -0.1
v -0.9 0.6 0
v -0.9 0.6 -0.1
v -0.6 0.1 0
v -0.6 0.1 -0.1
v -0.6 0.4 0
v -0.6 0.4 -0.1
v -0.6 0.5 0
v -0.6 0.5 -0.1
v -0.6 0.6 0
v -0.6 0.6 -0.1
v -0.5 0 0
v -0.5 0 -0.1
v -0.5 0.1 0
v -0.5 0.1 -0.1
v -0.5 0.4 0
v -0.5 0.4 -0.1
v -0.5 0.5 0
v -0.5 0.5 -0.1
v -0.3 0 0
v -0.3 0 -0.1
v -0.3 0.5 0
v -0.3 0.5 -0.1
v -0.2 0.5 0
v -0.2 0.5 -0.1
v -0.2 0.6 0
v -0.2 0.6 -0.1
v -0.1 0 0
v -0.1 0 -0.1
v -0.1 0.5 0
v -0.1 0.5 -0.1
v 0.2 0.1 0
v 0.2 0.1 -0.1
v 0.2 0.3 0
v 0.2 0.3 -0.1
v 0.2 0.5 0
v 0.2 0.5 -0.1
v 0.2 0.6 0
v 0.2 0.6 -0.1
v 0.3 0 0
v 0.3 0 -0.1
v 0.3 0.1 0
v 0.3 0.1 -0.1
v 0.3 0.3 0
v 0.3 0.3 -0.1
v 0.3 0.5 0
v 0.3 0.5 -0.1
v 0.5 0.4 0
v 0.5 0.4 -0.1
v 0.5 0.5 0
v 0.5 0.5 -0.1
v 0.6 0 0
v 0.6 0 -0.1
v 0.6 0.1 0
v 0.6 0.1 -0.1
v 0.6 0.3 0
v 0.6 0.3 -0.1
v 0.6 0.4 0
v 0.6 0.4 -0.1
v 0.7 0.1 0
v 0.7 0.1 -0.1
v 0.7 0.3 0
v 0.7 0.3 -0.1
v 0.7 0.5 0
v 0.7 0.5 -0.1
v 0.7 0.6 0
v 0.7 0.6 -0.1
v 0.9 0 0
v 0.9 0 -0.1
v 0.9 0.2 0
v 0.9 0.2 -0.1
v 0.9 0.3 0
v 0.9 0.3 -0.1
v 0.9 0.5 0
v 0.9 0.5 -0.1
v 0.9 0.6 0
v 0.9 0.6 -0.1
v 1.1 0 0
v 1.1 0 -0.1
v 1.1 0.5 0
v 1.1 0.5 -0.1
v 1.1 0.6 0
v 1.1 0.6 -0.1
v 1.3 0 0
v 1.3 0 -0.1
v 1.3 0.1 0
v 1.3 0.1 -0.1
v 1.3 0.2 0
v 1.3 0.2 -0.1
v 1.3 0.5 0
v 1.3 0.5 -0.1
v 1.3 0.6 0
v 1.3 0.6 -0.1
v -1.2 0 0
v -1.2 0.5 0
v -1.2 0.6 0
v -1.1 0 0
v -1.1 0.3 0
v -1.1 0.4 0
v -1.1 0.5 0
v -1 0.3 0
v -1 0.4 0
v -0.9 0.5 0
v -0.9 0.6 0
v -0.8 0 0
v -0.8 0.1 0
v -0.8 0.4 0
v -0.8 0.5 0
v -0.7 0 0
v -0.7 0.1 0
v -0.7 0.4 0
v -0.7 0.5 0
v -0.7 0.6 0
v -0.6 0 0
v -0.6 0.1 0
v -0.6 0.4 0
v -0.6 0.5 0
v -0.6 0.6 0
v -0.5 0 0
v -0.5 0.1 0
v -0.5 0.4 0
v -0.5 0.5 0
v -0.4 0 0
v -0.4 0.5 0
v -0.4 0.6 0
v -0.3 0 0
v -0.3 0.5 0
v -0.2 0 0
v -0.2 0.5 0
v -0.2 0.6 0
v -0.1 0 0
v -0.1 0.5 0
v 0 0 0
v 0 0.1 0
v 0 0.3 0
v 0 0.5 0
v 0.0999999 0.1 0
v 0.0999999 0.3 0
v 0.0999999 0.5 0
v 0.0999999 0.6 0
v 0.2 0.1 0
v 0.2 0.3 0
v 0.2 0.5 0
v 0.2 0.6 0
v 0.3 0 0
v 0.3 0.1 0
v 0.3 0.3 0
v 0.3 0.5 0
v 0.4 0 0
v 0.4 0.1 0
v 0.4 0.4 0
v 0.4 0.5 0
v 0.5 0.3 0
v 0.5 0.4 0
v 0.5 0.5 0
v 0.5 0.6 0
v 0.6 0 0
v 0.6 0.1 0
v 0.6 0.3 0
v 0.6 0.4 0
v 0.7 0.1 0
v 0.7 0.3 0
v 0.7 0.5 0
v 0.7 0.6 0
v 0.8 0 0
v 0.8 0.5 0
v 0.8 0.6 0
v 0.9 0 0
v 0.9 0.2 0
v 0.9 0.3 0
v 0.9 0.5 0
v 0.9 0.6 0
v 1 0 0
v 1 0.2 0
v 1 0.3 0
v 1 0.5 0
v 1 0.6 0
v 1.1 0 0
v 1.1 0.5 0
v 1.1 0.6 0
v 1.2 0 0
v 1.2 0.1 0
v 1.2 0.2 0
v 1.2 0.5 0
v 1.2 0.6 0
v 1.3 0 0
v 1.3 0.1 0
v 1.3 0.2 0
v 1.3 0.5 0
v 1.3 0.6 0
v -1.2 0 -0.1
v -1.2 0.5 -0.1
v -1.2 0.6 -0.1
v -1.1 0 -0.1
v -1.1 0.3 -0.1
v -1.1 0.4 -0.1
v -1.1 0.5 -0.1
v -1 0.3 -0.1
v -1 0.4 -0.1
v -0.9 0.5 -0.1
v -0.9 0.6 -0.1
v -0.8 0 -0.1
v -0.8 0.1 -0.1
v -0.8 0.4 -0.1
v -0.8 0.5 -0.1
v -0.7 0 -0.1
v -0.7 0.1 -0.1
v -0.7 0.4 -0.1
v -0.7 0.5 -0.1
v -0.7 0.6 -0.1
v -0.6 0 -0.1
v -0.6 0.1 -0.1
v -0.6 0.4 -0.1
v -0.6 0.5 -0.1
v -0.6 0.6 -0.1
v -0.5 0 -0.1
v -0.5 0.1 -0.1
v -0.5 0.4 -0.1
v -0.5 0.5 -0.1
v -0.4 0 -0.1
v -0.4 0.5 -0.1
v -0.4 0.6 -0.1
v -0.3 0 -0.1
v -0.3 0.5 -0.1
v -0.2 0 -0.1
v -0.2 0.5 -0.1
v -0.2 0.6 -0.1
v -0.1 0 -0.1
v -0.1 0.5 -0.1
v 0 0 -0.1
v 0 0.1 -0.1
v 0 0.3 -0.1
v 0 0.5 -0.1
v 0.0999999 0.1 -0.1
v 0.0999999 0.3 -0.1
v 0.0999999 0.5 -0.1
v 0.0999999 0.6 -0.1
v 0.2 0.1 -0.1
v 0.2 0.3 -0.1
v 0.2 0.5 -0.1
v 0.2 0.6 -0.1
v 0.3 0 -0.1
v 0.3 0.1 -0.1
v 0.3 0.3 -0.1
v 0.3 0.5 -0.1
v 0.4 0 -0.1
v 0.4 0.1 -0.1
v 0.4 0.4 -0.1
v 0.4 0.5 -0.1
v 0.5 0.3 -0.1
v 0.5 0.4 -0.1
v 0.5 0.5 -0.1
v 0.5 0.6 -0.1
v 0.6 0 -0.1
v 0.6 0.1 -0.1
v 0.6 0.3 -0.1
v 0.6 0.4 -0.1
v 0.7 0.1 -0.1
v 0.7 0.3 -0.1
v 0.7 0.5 -0.1
v 0.7 0.6 -0.1
v 0.8 0 -0.1
v 0.8 0.5 -0.1
v 0.8 0.6 -0.1
v 0.9 0 -0.1
v 0.9 0.2 -0.1
v 0.9 0.3 -0.1
v 0.9 0.5 -0.1
v 0.9 0.6 -0.1
v 1 0 -0.1
v 1 0.2 -0.1
v 1 0.3 -0.1
v 1 0.5 -0.1
v 1 0.6 -0.1
v 1.1 0 -0.1
v 1.1 0.5 -0.1
v 1.1 0.6 -0.1
v 1.2 0 -0.1
v 1.2 0.1 -0.1
v 1.2 0.2 -0.1
v 1.2 0.5 -0.1
v 1.2 0.6 -0.1
v 1.3 0 -0.1
v 1.3 0.1 -0.1
v 1.3 0.2 -0.1
v 1.3 0.5 -0.1
v 1.3 0.6 -0.1
v -1.2 0 0
v -1.1 0 0
v -0.8 0 0
v -0.7 0 0
v -0.6 0 0
v -0.5 0 0
v -0.4 0 0
v -0.3 0 0
v -0.2 0 0
v -0.1 0 0
v 0 0 0
v 0.3 0 0
v 0.4 0 0
v 0.6 0 0
v 0.8 0 0
v 0.9 0 0
v 1 0 0
v 1.1 0 0
v 1.2 0 0
v 1.3 0 0
v -1.2 0 -0.1
v -1.1 0 -0.1
v -0.8 0 -0.1
v -0.7 0 -0.1
v -0.6 0 -0.1
v -0.5 0 -0.1
v -0.4 0 -0.1
v -0.3 0 -0.1
v -0.2 0 -0.1
v -0.1 0 -0.1
v 0 0 -0.1
v 0.3 0 -0.1
v 0.4 0 -0.1
v 0.6 0 -0.1
v 0.8 0 -0.1
v 0.9 0 -0.1
v 1 0 -0.1
v 1.1 0 -0.1
v 1.2 0 -0.1
v 1.3 0 -0.1
v 0.6 0.1 0
v 0.7 0.1 0
v 0.6 0.1 -0.1
v 0.7 0.1 -0.1
v 0.9 0.2 0
v 1 0.2 0
v 1.2 0.2 0
v 1.3 0.2 0
v 0.9 0.2 -0.1
v 1 0.2 -0.1
v 1.2 0.2 -0.1
v 1.3 0.2 -0.1
v -1.1 0.3 0
v -1 0.3 0
v 0 0.3 0
v 0.0999999 0.3 0
v 0.2 0.3 0
v 0.3 0.3 0
v 0.5 0.3 0
v 0.6 0.3 0
v -1.1 0.3 -0.1
v -1 0.3 -0.1
v 0 0.3 -0.1
v 0.0999999 0.3 -0.1
v 0.2 0.3 -0.1
v 0.3 0.3 -0.1
v 0.5 0.3 -0.1
v 0.6 0.3 -0.1
v -0.8 0.4 0
v -0.7 0.4 0
v -0.6 0.4 0
v -0.5 0.4 0
v 0.4 0.4 0
v 0.5 0.4 0
v -0.8 0.4 -0.1
v -0.7 0.4 -0.1
v -0.6 0.4 -0.1
v -0.5 0.4 -0.1
v 0.4 0.4 -0.1
v 0.5 0.4 -0.1
v -1.1 0.5 0
v -0.9 0.5 0
v -0.3 0.5 0
v -0.2 0.5 0
v 0.5 0.5 0
v 0.7 0.5 0
v -1.1 0.5 -0.1
v -0.9 0.5 -0.1
v -0.3 0.5 -0.1
v -0.2 0.5 -0.1
v 0.5 0.5 -0.1
v 0.7 0.5 -0.1
v -0.8 0.1 0
v -0.7 0.1 0
v -0.6 0.1 0
v -0.5 0.1 0
v 0 0.1 0
v 0.0999999 0.1 0
v 0.2 0.1 0
v 0.3 0.1 0
v 0.4 0.1 0
v 0.6 0.1 0
v 1.2 0.1 0
v 1.3 0.1 0
v -0.8 0.1 -0.1
v -0.7 0.1 -0.1
v -0.6 0.1 -0.1
v -0.5 0.1 -0.1
v 0 0.1 -0.1
v 0.0999999 0.1 -0.1
v 0.2 0.1 -0.1
v 0.3 0.1 -0.1
v 0.4 0.1 -0.1
v 0.6 0.1 -0.1
v 1.2 0.1 -0.1
v 1.3 0.1 -0.1
v 0.6 0.3 0
v 0.7 0.3 0
v 0.9 0.3 0
v 1 0.3 0
v 0.6 0.3 -0.1
v 0.7 0.3 -0.1
v 0.9 0.3 -0.1
v 1 0.3 -0.1
v -1.1 0.4 0
v -1 0.4 0
v 0.5 0.4 0
v 0.6 0.4 0
v -1.1 0.4 -0.1
v -1 0.4 -0.1
v 0.5 0.4 -0.1
v 0.6 0.4 -0.1
v -0.8 0.5 0
v -0.7 0.5 0
v -0.6 0.5 0
v -0.5 0.5 0
v -0.2 0.5 0
v -0.1 0.5 0
v 0 0.5 0
v 0.0999999 0.5 0
v 0.2 0.5 0
v 0.3 0.5 0
v 0.4 0.5 0
v 0.5 0.5 0
v -0.8 0.5 -0.1
v -0.7 0.5 -0.1
v -0.6 0.5 -0.1
v -0.5 0.5 -0.1
v -0.2 0.5 -0.1
v -0.1 0.5 -0.1
v 0 0.5 -0.1
v 0.0999999 0.5 -0.1
v 0.2 0.5 -0.1
v 0.3 0.5 -0.1
v 0.4 0.5 -0.1
v 0.5 0.5 -0.1
v -1.2 0.6 0
v -0.9 0.6 0
v -0.7 0.6 0
v -0.6 0.6 0
v -0.4 0.6 0
v -0.2 0.6 0
v 0.0999999 0.6 0
v 0.2 0.6 0
v 0.5 0.6 0
v 0.7 0.6 0
v 0.8 0.6 0
v 0.9 0.6 0
v 1 0.6 0
v 1.1 0.6 0
v 1.2 0.6 0
v 1.3 0.6 0
v -1.2 0.6 -0.1
v -0.9 0.6 -0.1
v -0.7 0.6 -0.1
v -0.6 0.6 -0.1
v -0.4 0.6 -0.1
v -0.2 0.6 -0.1
v 0.0999999 0.6 -0.1
v 0.2 0.6 -0.1
v 0.5 0.6 -0.1
v 0.7 0.6 -0.1
v 0.8 0.6 -0.1
v 0.9 0.6 -0.1
v 1 0.6 -0.1
v 1.1 0.6 -0.1
v 1.2 0.6 -0.1
v 1.3 0.6 -0.1

# faces
f 3/6/1 2/6/1 1/6/1
f 4/6/1 2/6/1 3/6/1
f 5/4/1 4/4/1 3/4/1
f 6/4/1 4/4/1 5/4/1
f 9/4/1 8/4/1 7/4/1
f 10/4/1 8/4/1 9/4/1
f 13/8/1 12/8/1 11/8/1
f 14/8/1 12/8/1 13/8/1
f 17/7/1 16/7/1 15/7/1
f 18/7/1 16/7/1 17/7/1
f 21/6/1 20/6/1 19/6/1
f 22/6/1 20/6/1 21/6/1
f 25/6/1 24/6/1 23/6/1
f 26/6/1 24/6/1 25/6/1
f 27/4/1 26/4/1 25/4/1
f 28/4/1 26/4/1 27/4/1
f 31/6/1 30/6/1 29/6/1
f 32/6/1 30/6/1 31/6/1
f 35/4/1 34/4/1 33/4/1
f 36/4/1 34/4/1 35/4/1
f 39/5/1 38/5/1 37/5/1
f 40/5/1 38/5/1 39/5/1
f 43/2/1 42/2/1 41/2/1
f 44/2/1 42/2/1 43/2/1
f 47/5/1 46/5/1 45/5/1
f 48/5/1 46/5/1 47/5/1
f 51/6/1 50/6/1 49/6/1
f 52/6/1 50/6/1 51/6/1
f 55/6/1 54/6/1 53/6/1
f 56/6/1 54/6/1 55/6/1
f 59/6/1 58/6/1 57/6/1
f 60/6/1 58/6/1 59/6/1
f 63/4/1 62/4/1 61/4/1
f 64/4/1 62/4/1 63/4/1
f 67/6/1 66/6/1 65/6/1
f 68/6/1 66/6/1 67/6/1
f 71/6/1 70/6/1 69/6/1
f 72/6/1 70/6/1 71/6/1
f 73/4/1 72/4/1 71/4/1
f 74/4/1 72/4/1 73/4/1
f 77/6/1 76/6/1 75/6/1
f 78/6/1 76/6/1 77/6/1
f 81/6/1 80/6/1 79/6/1
f 82/6/1 80/6/1 81/6/1
f 83/4/1 82/4/1 81/4/1
f 84/4/1 82/4/1 83/4/1
f 87/8/1 86/8/1 85/8/1
f 88/8/1 86/8/1 87/8/1
f 91/3/1 90/3/1 89/3/1
f 92/3/1 90/3/1 91/3/1
f 93/1/1 92/1/1 91/1/1
f 94/1/1 92/1/1 93/1/1
f 95/6/2 96/6/2 97/6/2
f 97/6/2 96/6/2 98/6/2
f 99/6/2 100/6/2 101/6/2
f 101/6/2 100/6/2 102/6/2
f 103/6/2 104/6/2 105/6/2
f 105/6/2 104/6/2 106/6/2
f 107/4/2 108/4/2 109/4/2
f 109/4/2 108/4/2 110/4/2
f 111/7/2 112/7/2 113/7/2
f 113/7/2 112/7/2 114/7/2
f 115/6/2 116/6/2 117/6/2
f 117/6/2 116/6/2 118/6/2
f 119/4/2 120/4/2 121/4/2
f 121/4/2 120/4/2 122/4/2
f 123/8/2 124/8/2 125/8/2
f 125/8/2 124/8/2 126/8/2
f 127/6/2 128/6/2 129/6/2
f 129/6/2 128/6/2 130/6/2
f 131/4/2 132/4/2 133/4/2
f 133/4/2 132/4/2 134/4/2
f 135/6/2 136/6/2 137/6/2
f 137/6/2 136/6/2 138/6/2
f 139/2/2 140/2/2 141/2/2
f 141/2/2 140/2/2 142/2/2
f 143/5/2 144/5/2 145/5/2
f 145/5/2 144/5/2 146/5/2
f 147/4/2 148/4/2 149/4/2
f 149/4/2 148/4/2 150/4/2
f 151/5/2 152/5/2 153/5/2
f 153/5/2 152/5/2 154/5/2
f 155/6/2 156/6/2 157/6/2
f 157/6/2 156/6/2 158/6/2
f 159/6/2 160/6/2 161/6/2
f 161/6/2 160/6/2 162/6/2
f 163/6/2 164/6/2 165/6/2
f 165/6/2 164/6/2 166/6/2
f 167/6/2 168/6/2 169/6/2
f 169/6/2 168/6/2 170/6/2
f 171/4/2 172/4/2 173/4/2
f 173/4/2 172/4/2 174/4/2
f 175/6/2 176/6/2 177/6/2
f 177/6/2 176/6/2 178/6/2
f 179/6/2 180/6/2 181/6/2
f 181/6/2 180/6/2 182/6/2
f 181/4/2 182/4/2 183/4/2
f 183/4/2 182/4/2 184/4/2
f 185/6/2 186/6/2 187/6/2
f 187/6/2 186/6/2 188/6/2
f 187/4/2 188/4/2 189/4/2
f 189/4/2 188/4/2 190/4/2
f 191/8/2 192/8/2 193/8/2
f 193/8/2 192/8/2 194/8/2
f 195/3/2 196/3/2 197/3/2
f 197/3/2 196/3/2 198/3/2
f 197/1/2 198/1/2 199/1/2
f 199/1/2 198/1/2 200/1/2
f 204/6/3 202/6/3 201/6/3
f 205/6/3 202/6/3 204/6/3
f 206/6/3 202/6/3 205/6/3
f 207/4/3 203/4/3 202/4/3
f 207/6/3 202/6/3 206/6/3
f 208/6/3 206/6/3 205/6/3
f 209/6/3 206/6/3 208/6/3
f 210/4/3 203/4/3 207/4/3
f 211/4/3 203/4/3 210/4/3
f 216/4/3 213/4/3 212/4/3
f 217/4/3 213/4/3 216/4/3
f 218/8/3 215/8/3 214/8/3
f 219/8/3 215/8/3 218/8/3
f 221/7/3 217/7/3 216/7/3
f 221/7/3 218/7/3 217/7/3
f 222/7/3 218/7/3 221/7/3
f 223/8/3 219/8/3 218/8/3
f 223/7/3 218/7/3 222/7/3
f 224/6/3 220/6/3 219/6/3
f 224/8/3 219/8/3 223/8/3
f 225/6/3 220/6/3 224/6/3
f 226/4/3 222/4/3 221/4/3
f 227/4/3 222/4/3 226/4/3
f 228/8/3 224/8/3 223/8/3
f 229/8/3 224/8/3 228/8/3
f 233/6/3 231/6/3 230/6/3
f 234/4/3 232/4/3 231/4/3
f 234/6/3 231/6/3 233/6/3
f 236/4/3 232/4/3 234/4/3
f 237/4/3 232/4/3 236/4/3
f 238/6/3 236/6/3 235/6/3
f 239/6/3 236/6/3 238/6/3
f 244/4/3 241/4/3 240/4/3
f 245/5/3 243/5/3 242/5/3
f 246/5/3 243/5/3 245/5/3
f 248/4/3 244/4/3 240/4/3
f 248/2/3 245/2/3 244/2/3
f 249/5/3 246/5/3 245/5/3
f 249/2/3 245/2/3 248/2/3
f 249/5/3 247/5/3 246/5/3
f 250/5/3 247/5/3 249/5/3
f 251/5/3 247/5/3 250/5/3
f 252/4/3 248/4/3 240/4/3
f 253/4/3 248/4/3 252/4/3
f 254/5/3 250/5/3 249/5/3
f 255/5/3 250/5/3 254/5/3
f 261/6/3 259/6/3 258/6/3
f 262/6/3 259/6/3 261/6/3
f 264/6/3 257/6/3 256/6/3
f 265/6/3 257/6/3 264/6/3
f 266/6/3 261/6/3 260/6/3
f 267/6/3 261/6/3 266/6/3
f 268/6/3 266/6/3 265/6/3
f 269/6/3 266/6/3 268/6/3
f 270/4/3 263/4/3 262/4/3
f 271/4/3 263/4/3 270/4/3
f 275/6/3 273/6/3 272/6/3
f 276/6/3 273/6/3 275/6/3
f 277/6/3 273/6/3 276/6/3
f 278/4/3 274/4/3 273/4/3
f 278/6/3 273/6/3 277/6/3
f 279/4/3 274/4/3 278/4/3
f 281/6/3 277/6/3 276/6/3
f 282/6/3 277/6/3 281/6/3
f 285/6/3 281/6/3 280/6/3
f 285/6/3 282/6/3 281/6/3
f 285/6/3 283/6/3 282/6/3
f 286/4/3 284/4/3 283/4/3
f 286/6/3 283/6/3 285/6/3
f 287/4/3 284/4/3 286/4/3
f 293/8/3 289/8/3 288/8/3
f 294/8/3 289/8/3 293/8/3
f 295/3/3 291/3/3 290/3/3
f 296/1/3 292/1/3 291/1/3
f 296/3/3 291/3/3 295/3/3
f 297/1/3 292/1/3 296/1/3
f 298/6/4 299/6/4 301/6/4
f 301/6/4 299/6/4 302/6/4
f 302/6/4 299/6/4 303/6/4
f 299/4/4 300/4/4 304/4/4
f 303/6/4 299/6/4 304/6/4
f 302/6/4 303/6/4 305/6/4
f 305/6/4 303/6/4 306/6/4
f 304/4/4 300/4/4 307/4/4
f 307/4/4 300/4/4 308/4/4
f 309/4/4 310/4/4 313/4/4
f 313/4/4 310/4/4 314/4/4
f 311/8/4 312/8/4 315/8/4
f 315/8/4 312/8/4 316/8/4
f 313/7/4 314/7/4 318/7/4
f 314/7/4 315/7/4 318/7/4
f 318/7/4 315/7/4 319/7/4
f 315/8/4 316/8/4 320/8/4
f 319/7/4 315/7/4 320/7/4
f 316/6/4 317/6/4 321/6/4
f 320/8/4 316/8/4 321/8/4
f 321/6/4 317/6/4 322/6/4
f 318/4/4 319/4/4 323/4/4
f 323/4/4 319/4/4 324/4/4
f 320/8/4 321/8/4 325/8/4
f 325/8/4 321/8/4 326/8/4
f 327/6/4 328/6/4 330/6/4
f 328/4/4 329/4/4 331/4/4
f 330/6/4 328/6/4 331/6/4
f 331/4/4 329/4/4 333/4/4
f 333/4/4 329/4/4 334/4/4
f 332/6/4 333/6/4 335/6/4
f 335/6/4 333/6/4 336/6/4
f 337/4/4 338/4/4 341/4/4
f 339/5/4 340/5/4 342/5/4
f 342/5/4 340/5/4 343/5/4
f 337/4/4 341/4/4 345/4/4
f 341/2/4 342/2/4 345/2/4
f 342/5/4 343/5/4 346/5/4
f 345/2/4 342/2/4 346/2/4
f 343/5/4 344/5/4 346/5/4
f 346/5/4 344/5/4 347/5/4
f 347/5/4 344/5/4 348/5/4
f 337/4/4 345/4/4 349/4/4
f 349/4/4 345/4/4 350/4/4
f 346/5/4 347/5/4 351/5/4
f 351/5/4 347/5/4 352/5/4
f 355/6/4 356/6/4 358/6/4
f 358/6/4 356/6/4 359/6/4
f 353/6/4 354/6/4 361/6/4
f 361/6/4 354/6/4 362/6/4
f 357/6/4 358/6/4 363/6/4
f 363/6/4 358/6/4 364/6/4
f 362/6/4 363/6/4 365/6/4
f 365/6/4 363/6/4 366/6/4
f 359/4/4 360/4/4 367/4/4
f 367/4/4 360/4/4 368/4/4
f 369/6/4 370/6/4 372/6/4
f 372/6/4 370/6/4 373/6/4
f 373/6/4 370/6/4 374/6/4
f 370/4/4 371/4/4 375/4/4
f 374/6/4 370/6/4 375/6/4
f 375/4/4 371/4/4 376/4/4
f 373/6/4 374/6/4 378/6/4
f 378/6/4 374/6/4 379/6/4
f 377/6/4 378/6/4 382/6/4
f 378/6/4 379/6/4 382/6/4
f 379/6/4 380/6/4 382/6/4
f 380/4/4 381/4/4 383/4/4
f 382/6/4 380/6/4 383/6/4
f 383/4/4 381/4/4 384/4/4
f 385/8/4 386/8/4 390/8/4
f 390/8/4 386/8/4 391/8/4
f 387/3/4 388/3/4 392/3/4
f 388/1/4 389/1/4 393/1/4
f 392/3/4 388/3/4 393/3/4
f 393/1/4 389/1/4 394/1/4
f 415/6/5 396/6/5 395/6/5
f 416/6/5 396/6/5 415/6/5
f 417/4/5 398/4/5 397/4/5
f 418/7/5 399/7/5 398/7/5
f 418/4/5 398/4/5 417/4/5
f 419/4/5 400/4/5 399/4/5
f 419/7/5 399/7/5 418/7/5
f 420/4/5 400/4/5 419/4/5
f 421/6/5 402/6/5 401/6/5
f 422/6/5 402/6/5 421/6/5
f 423/6/5 404/6/5 403/6/5
f 424/6/5 404/6/5 423/6/5
f 425/4/5 406/4/5 405/4/5
f 426/4/5 406/4/5 425/4/5
f 427/6/5 408/6/5 407/6/5
f 428/6/5 408/6/5 427/6/5
f 429/6/5 410/6/5 409/6/5
f 430/6/5 410/6/5 429/6/5
f 431/6/5 412/6/5 411/6/5
f 432/6/5 412/6/5 431/6/5
f 433/8/5 414/8/5 413/8/5
f 434/8/5 414/8/5 433/8/5
f 437/6/5 436/6/5 435/6/5
f 438/6/5 436/6/5 437/6/5
f 443/6/5 440/6/5 439/6/5
f 444/6/5 440/6/5 443/6/5
f 445/3/5 442/3/5 441/3/5
f 446/3/5 442/3/5 445/3/5
f 455/6/5 448/6/5 447/6/5
f 456/6/5 448/6/5 455/6/5
f 457/5/5 450/5/5 449/5/5
f 458/5/5 450/5/5 457/5/5
f 459/5/5 452/5/5 451/5/5
f 460/5/5 452/5/5 459/5/5
f 461/6/5 454/6/5 453/6/5
f 462/6/5 454/6/5 461/6/5
f 469/8/5 464/8/5 463/8/5
f 470/8/5 464/8/5 469/8/5
f 471/8/5 466/8/5 465/8/5
f 472/8/5 466/8/5 471/8/5
f 473/6/5 468/6/5 467/6/5
f 474/6/5 468/6/5 473/6/5
f 481/4/5 476/4/5 475/4/5
f 482/4/5 476/4/5 481/4/5
f 483/4/5 478/4/5 477/4/5
f 484/4/5 478/4/5 483/4/5
f 485/4/5 480/4/5 479/4/5
f 486/4/5 480/4/5 485/4/5
f 487/4/6 488/4/6 499/4/6
f 499/4/6 488/4/6 500/4/6
f 489/4/6 490/4/6 501/4/6
f 501/4/6 490/4/6 502/4/6
f 491/4/6 492/4/6 503/4/6
f 503/4/6 492/4/6 504/4/6
f 493/4/6 494/4/6 505/4/6
f 505/4/6 494/4/6 506/4/6
f 495/6/6 496/6/6 507/6/6
f 507/6/6 496/6/6 508/6/6
f 497/8/6 498/8/6 509/8/6
f 509/8/6 498/8/6 510/8/6
f 511/6/6 512/6/6 515/6/6
f 515/6/6 512/6/6 516/6/6
f 513/6/6 514/6/6 517/6/6
f 517/6/6 514/6/6 518/6/6
f 519/6/6 520/6/6 523/6/6
f 523/6/6 520/6/6 524/6/6
f 521/6/6 522/6/6 525/6/6
f 525/6/6 522/6/6 526/6/6
f 527/8/6 528/8/6 539/8/6
f 539/8/6 528/8/6 540/8/6
f 529/8/6 530/8/6 541/8/6
f 541/8/6 530/8/6 542/8/6
f 531/6/6 532/6/6 543/6/6
f 543/6/6 532/6/6 544/6/6
f 533/5/6 534/5/6 545/5/6
f 545/5/6 534/5/6 546/5/6
f 535/5/6 536/5/6 547/5/6
f 547/5/6 536/5/6 548/5/6
f 537/6/6 538/6/6 549/6/6
f 549/6/6 538/6/6 550/6/6
f 551/4/6 552/4/6 567/4/6
f 567/4/6 552/4/6 568/4/6
f 553/6/6 554/6/6 569/6/6
f 569/6/6 554/6/6 570/6/6
f 555/4/6 556/4/6 571/4/6
f 571/4/6 556/4/6 572/4/6
f 557/5/6 558/5/6 573/5/6
f 573/5/6 558/5/6 574/5/6
f 559/4/6 560/4/6 575/4/6
f 575/4/6 560/4/6 576/4/6
f 561/4/6 562/4/6 577/4/6
f 577/4/6 562/4/6 578/4/6
f 563/4/6 564/4/6 579/4/6
f 579/4/6 564/4/6 580/4/6
f 565/1/6 566/1/6 581/1/6
f 581/1/6 566/1/6 582/1/6
