# MagicaVoxel @ Ephtracy

# group
o 

# material
mtllib murabito.mtl
usemtl palette

# normals
vn -1 0 0
vn 1 0 0
vn 0 0 1
vn 0 0 -1
vn 0 -1 0
vn 0 1 0

# texcoords
vt 0.228516 0.5
vt 0.365234 0.5
vt 0.392578 0.5
vt 0.396484 0.5
vt 0.412109 0.5
vt 0.533203 0.5
vt 0.537109 0.5
vt 0.880859 0.5
vt 0.884766 0.5
vt 0.888672 0.5
vt 0.892578 0.5
vt 0.896484 0.5
vt 0.900391 0.5
vt 0.904297 0.5
vt 0.958984 0.5
vt 0.962891 0.5
vt 0.966797 0.5
vt 0.978516 0.5
vt 0.986328 0.5
vt 0.994141 0.5

# verts
v -0.4 1.4 0.8
v -0.4 1.4 0.1
v -0.4 1.4 0
v -0.4 1.4 -0.8
v -0.4 1.5 0
v -0.4 1.5 -0.1
v -0.4 1.6 0.1
v -0.4 1.6 0
v -0.4 1.7 0.8
v -0.4 1.7 0
v -0.4 1.7 -0.1
v -0.4 1.7 -0.8
v -0.3 0.4 0.4
v -0.3 0.4 0.1
v -0.3 0.4 0
v -0.3 0.4 -0.1
v -0.3 0.4 -0.4
v -0.3 1.4 0.4
v -0.3 1.4 0.1
v -0.3 1.4 0
v -0.3 1.4 -0.1
v -0.3 1.4 -0.4
v -0.3 1.9 0.1
v -0.3 1.9 -0.1
v -0.3 2.1 0.2
v -0.3 2.1 0.1
v -0.3 2.1 -0.1
v -0.3 2.1 -0.2
v -0.3 2.2 0.2
v -0.3 2.2 0.1
v -0.3 2.2 -0.1
v -0.3 2.2 -0.2
v -0.3 2.3 0.1
v -0.3 2.3 -0.1
v -0.2 0 0.4
v -0.2 0 -0.4
v -0.2 0.2 0.4
v -0.2 0.2 -0.4
v -0.2 0.4 0.4
v -0.2 0.4 0.1
v -0.2 0.4 0
v -0.2 0.4 -0.1
v -0.2 0.4 -0.4
v -0.2 1.7 0.8
v -0.2 1.7 0.1
v -0.2 1.7 0
v -0.2 1.7 -0.1
v -0.2 1.7 -0.8
v -0.2 1.8 0.8
v -0.2 1.8 0.4
v -0.2 1.8 0.2
v -0.2 1.8 0.1
v -0.2 1.8 -0.1
v -0.2 1.8 -0.2
v -0.2 1.8 -0.4
v -0.2 1.8 -0.8
v -0.2 1.9 0.4
v -0.2 1.9 0.2
v -0.2 1.9 0.1
v -0.2 1.9 -0.1
v -0.2 1.9 -0.2
v -0.2 1.9 -0.4
v -0.2 2 0.4
v -0.2 2 0.2
v -0.2 2 -0.2
v -0.2 2 -0.4
v -0.2 2.1 0.2
v -0.2 2.1 0.1
v -0.2 2.1 -0.1
v -0.2 2.1 -0.2
v -0.2 2.2 0.2
v -0.2 2.2 0.1
v -0.2 2.2 -0.1
v -0.2 2.2 -0.2
v -0.2 2.3 0.3
v -0.2 2.3 0.2
v -0.2 2.3 0.1
v -0.2 2.3 -0.1
v -0.2 2.3 -0.2
v -0.2 2.3 -0.3
v -0.2 2.4 0.3
v -0.2 2.4 0.2
v -0.2 2.4 0.1
v -0.2 2.4 -0.1
v -0.2 2.4 -0.2
v -0.2 2.4 -0.3
v -0.2 2.5 0.3
v -0.2 2.5 -0.3
v -0.2 2.9 0.4
v -0.2 2.9 -0.4
v -0.1 0.4 0.1
v -0.1 0.4 0
v -0.1 0.4 -0.1
v -0.1 0.5 0.1
v -0.1 0.5 0
v -0.1 0.5 -0.1
v 0 1.8 0.8
v 0 1.8 0.4
v 0 1.8 -0.4
v 0 1.8 -0.8
v 0 1.9 0.8
v 0 1.9 0.4
v 0 1.9 -0.4
v 0 1.9 -0.8
v 0.1 1.9 0.8
v 0.1 1.9 0.4
v 0.1 1.9 -0.4
v 0.1 1.9 -0.8
v 0.1 2 0.8
v 0.1 2 0.4
v 0.1 2 -0.4
v 0.1 2 -0.8
v -0.2 0.4 0.1
v -0.2 0.4 0
v -0.2 0.4 -0.1
v -0.2 0.5 0.1
v -0.2 0.5 0
v -0.2 0.5 -0.1
v -0.1 1.4 0.8
v -0.1 1.4 0.4
v -0.1 1.4 -0.4
v -0.1 1.4 -0.8
v -0.1 1.5 0.8
v -0.1 1.5 0.4
v -0.1 1.5 -0.4
v -0.1 1.5 -0.8
v 0.1 0 0.4
v 0.1 0 -0.4
v 0.1 0.2 0.4
v 0.1 0.2 -0.4
v 0.1 0.4 0.4
v 0.1 0.4 -0.4
v 0.1 1.5 0.8
v 0.1 1.5 0.4
v 0.1 1.5 -0.4
v 0.1 1.5 -0.8
v 0.1 1.6 0.8
v 0.1 1.6 0.4
v 0.1 1.6 -0.4
v 0.1 1.6 -0.8
v 0.2 0.4 0.4
v 0.2 0.4 -0.4
v 0.2 1.6 0.8
v 0.2 1.6 0.4
v 0.2 1.6 -0.4
v 0.2 1.6 -0.8
v 0.2 2 0.8
v 0.2 2 0.4
v 0.2 2 -0.4
v 0.2 2 -0.8
v 0.3 2 0.4
v 0.3 2 -0.4
v 0.3 2.9 0.4
v 0.3 2.9 -0.4
v -0.4 1.4 0.8
v -0.4 1.7 0.8
v -0.2 1.7 0.8
v -0.2 1.8 0.8
v -0.1 1.4 0.8
v -0.1 1.5 0.8
v 0 1.8 0.8
v 0 1.9 0.8
v 0.1 1.5 0.8
v 0.1 1.6 0.8
v 0.1 1.9 0.8
v 0.1 2 0.8
v 0.2 1.6 0.8
v 0.2 2 0.8
v -0.3 0.4 0.4
v -0.3 1.4 0.4
v -0.2 0 0.4
v -0.2 0.2 0.4
v -0.2 0.4 0.4
v -0.2 1.8 0.4
v -0.2 1.9 0.4
v -0.2 2 0.4
v -0.2 2.9 0.4
v -0.1 1.4 0.4
v -0.1 1.5 0.4
v -0.1 1.9 0.4
v -0.1 2 0.4
v 0 1.8 0.4
v 0 1.9 0.4
v 0.1 0 0.4
v 0.1 0.2 0.4
v 0.1 0.4 0.4
v 0.1 1.5 0.4
v 0.1 1.6 0.4
v 0.1 1.9 0.4
v 0.1 2 0.4
v 0.2 0.4 0.4
v 0.2 1.6 0.4
v 0.2 2 0.4
v 0.3 2 0.4
v 0.3 2.9 0.4
v -0.3 2.1 0.2
v -0.3 2.2 0.2
v -0.2 2.1 0.2
v -0.2 2.2 0.2
v -0.3 1.9 0.1
v -0.3 2.1 0.1
v -0.3 2.2 0.1
v -0.3 2.3 0.1
v -0.2 1.9 0.1
v -0.2 2.1 0.1
v -0.2 2.2 0.1
v -0.2 2.3 0.1
v -0.2 0.4 -0.1
v -0.2 0.5 -0.1
v -0.1 0.4 -0.1
v -0.1 0.5 -0.1
v -0.2 0.4 0.1
v -0.2 0.5 0.1
v -0.1 0.4 0.1
v -0.1 0.5 0.1
v -0.3 1.9 -0.1
v -0.3 2.1 -0.1
v -0.3 2.2 -0.1
v -0.3 2.3 -0.1
v -0.2 1.9 -0.1
v -0.2 2.1 -0.1
v -0.2 2.2 -0.1
v -0.2 2.3 -0.1
v -0.3 2.1 -0.2
v -0.3 2.2 -0.2
v -0.2 2.1 -0.2
v -0.2 2.2 -0.2
v -0.3 0.4 -0.4
v -0.3 1.4 -0.4
v -0.2 0 -0.4
v -0.2 0.2 -0.4
v -0.2 0.4 -0.4
v -0.2 1.8 -0.4
v -0.2 1.9 -0.4
v -0.2 2 -0.4
v -0.2 2.9 -0.4
v -0.1 1.4 -0.4
v -0.1 1.5 -0.4
v -0.1 1.9 -0.4
v -0.1 2 -0.4
v 0 1.8 -0.4
v 0 1.9 -0.4
v 0.1 0 -0.4
v 0.1 0.2 -0.4
v 0.1 0.4 -0.4
v 0.1 1.5 -0.4
v 0.1 1.6 -0.4
v 0.1 1.9 -0.4
v 0.1 2 -0.4
v 0.2 0.4 -0.4
v 0.2 1.6 -0.4
v 0.2 2 -0.4
v 0.3 2 -0.4
v 0.3 2.9 -0.4
v -0.4 1.4 -0.8
v -0.4 1.7 -0.8
v -0.2 1.7 -0.8
v -0.2 1.8 -0.8
v -0.1 1.4 -0.8
v -0.1 1.5 -0.8
v 0 1.8 -0.8
v 0 1.9 -0.8
v 0.1 1.5 -0.8
v 0.1 1.6 -0.8
v 0.1 1.9 -0.8
v 0.1 2 -0.8
v 0.2 1.6 -0.8
v 0.2 2 -0.8
v -0.2 0 0.4
v 0.1 0 0.4
v -0.2 0 -0.4
v 0.1 0 -0.4
v -0.3 0.4 0.4
v -0.2 0.4 0.4
v 0.1 0.4 0.4
v 0.2 0.4 0.4
v -0.3 0.4 0.1
v -0.2 0.4 0.1
v -0.3 0.4 0
v -0.2 0.4 0
v -0.3 0.4 -0.1
v -0.2 0.4 -0.1
v -0.3 0.4 -0.4
v -0.2 0.4 -0.4
v 0.1 0.4 -0.4
v 0.2 0.4 -0.4
v -0.2 0.5 0.1
v -0.1 0.5 0.1
v -0.2 0.5 0
v -0.1 0.5 0
v -0.2 0.5 -0.1
v -0.1 0.5 -0.1
v -0.4 1.4 0.8
v -0.1 1.4 0.8
v -0.3 1.4 0.4
v -0.1 1.4 0.4
v -0.4 1.4 0.1
v -0.3 1.4 0.1
v -0.4 1.4 0
v -0.3 1.4 0
v -0.3 1.4 -0.1
v -0.3 1.4 -0.4
v -0.1 1.4 -0.4
v -0.4 1.4 -0.8
v -0.1 1.4 -0.8
v -0.1 1.5 0.8
v 0.1 1.5 0.8
v -0.1 1.5 0.4
v 0.1 1.5 0.4
v -0.1 1.5 -0.4
v 0.1 1.5 -0.4
v -0.1 1.5 -0.8
v 0.1 1.5 -0.8
v 0.1 1.6 0.8
v 0.2 1.6 0.8
v 0.1 1.6 0.4
v 0.2 1.6 0.4
v 0.1 1.6 -0.4
v 0.2 1.6 -0.4
v 0.1 1.6 -0.8
v 0.2 1.6 -0.8
v -0.3 1.9 0.1
v -0.2 1.9 0.1
v -0.3 1.9 -0.1
v -0.2 1.9 -0.1
v 0.2 2 0.4
v 0.3 2 0.4
v 0.2 2 -0.4
v 0.3 2 -0.4
v -0.3 2.1 0.2
v -0.2 2.1 0.2
v -0.3 2.1 0.1
v -0.2 2.1 0.1
v -0.3 2.1 -0.1
v -0.2 2.1 -0.1
v -0.3 2.1 -0.2
v -0.2 2.1 -0.2
v -0.2 0.4 0.1
v -0.1 0.4 0.1
v -0.2 0.4 0
v -0.1 0.4 0
v -0.2 0.4 -0.1
v -0.1 0.4 -0.1
v -0.4 1.7 0.8
v -0.2 1.7 0.8
v -0.2 1.7 0.1
v -0.4 1.7 0
v -0.2 1.7 0
v -0.4 1.7 -0.1
v -0.2 1.7 -0.1
v -0.4 1.7 -0.8
v -0.2 1.7 -0.8
v -0.2 1.8 0.8
v 0 1.8 0.8
v -0.2 1.8 0.4
v 0 1.8 0.4
v -0.2 1.8 -0.4
v 0 1.8 -0.4
v -0.2 1.8 -0.8
v 0 1.8 -0.8
v 0 1.9 0.8
v 0.1 1.9 0.8
v 0 1.9 0.4
v 0.1 1.9 0.4
v 0 1.9 -0.4
v 0.1 1.9 -0.4
v 0 1.9 -0.8
v 0.1 1.9 -0.8
v 0.1 2 0.8
v 0.2 2 0.8
v 0.1 2 0.4
v 0.2 2 0.4
v 0.1 2 -0.4
v 0.2 2 -0.4
v 0.1 2 -0.8
v 0.2 2 -0.8
v -0.3 2.2 0.2
v -0.2 2.2 0.2
v -0.3 2.2 0.1
v -0.2 2.2 0.1
v -0.3 2.2 -0.1
v -0.2 2.2 -0.1
v -0.3 2.2 -0.2
v -0.2 2.2 -0.2
v -0.3 2.3 0.1
v -0.2 2.3 0.1
v -0.3 2.3 -0.1
v -0.2 2.3 -0.1
v -0.2 2.9 0.4
v 0.3 2.9 0.4
v -0.2 2.9 -0.4
v 0.3 2.9 -0.4

# faces
f 5/2/1 3/2/1 2/2/1
f 5/3/1 4/3/1 3/3/1
f 6/3/1 4/3/1 5/3/1
f 7/3/1 2/3/1 1/3/1
f 7/2/1 5/2/1 2/2/1
f 7/2/1 6/2/1 5/2/1
f 8/2/1 6/2/1 7/2/1
f 9/3/1 7/3/1 1/3/1
f 9/3/1 8/3/1 7/3/1
f 10/2/1 6/2/1 8/2/1
f 10/3/1 8/3/1 9/3/1
f 11/3/1 4/3/1 6/3/1
f 11/2/1 6/2/1 10/2/1
f 12/3/1 4/3/1 11/3/1
f 18/3/1 14/3/1 13/3/1
f 19/2/1 15/2/1 14/2/1
f 19/3/1 14/3/1 18/3/1
f 20/6/1 16/6/1 15/6/1
f 20/2/1 15/2/1 19/2/1
f 21/3/1 17/3/1 16/3/1
f 21/6/1 16/6/1 20/6/1
f 22/3/1 17/3/1 21/3/1
f 26/4/1 24/4/1 23/4/1
f 27/4/1 24/4/1 26/4/1
f 29/7/1 26/7/1 25/7/1
f 30/4/1 27/4/1 26/4/1
f 30/7/1 26/7/1 29/7/1
f 31/7/1 28/7/1 27/7/1
f 31/4/1 27/4/1 30/4/1
f 32/7/1 28/7/1 31/7/1
f 33/4/1 31/4/1 30/4/1
f 34/4/1 31/4/1 33/4/1
f 37/18/1 36/18/1 35/18/1
f 38/18/1 36/18/1 37/18/1
f 39/7/1 38/7/1 37/7/1
f 40/7/1 38/7/1 39/7/1
f 41/7/1 38/7/1 40/7/1
f 42/7/1 38/7/1 41/7/1
f 43/7/1 38/7/1 42/7/1
f 49/3/1 45/3/1 44/3/1
f 50/3/1 45/3/1 49/3/1
f 51/3/1 45/3/1 50/3/1
f 52/6/1 47/6/1 46/6/1
f 52/3/1 45/3/1 51/3/1
f 52/6/1 46/6/1 45/6/1
f 53/3/1 48/3/1 47/3/1
f 53/6/1 47/6/1 52/6/1
f 54/3/1 48/3/1 53/3/1
f 55/3/1 48/3/1 54/3/1
f 56/3/1 48/3/1 55/3/1
f 57/3/1 51/3/1 50/3/1
f 58/6/1 52/6/1 51/6/1
f 58/3/1 51/3/1 57/3/1
f 59/1/1 53/1/1 52/1/1
f 59/6/1 52/6/1 58/6/1
f 60/6/1 54/6/1 53/6/1
f 60/1/1 53/1/1 59/1/1
f 61/3/1 55/3/1 54/3/1
f 61/6/1 54/6/1 60/6/1
f 62/3/1 55/3/1 61/3/1
f 63/6/1 58/6/1 57/6/1
f 64/1/1 59/1/1 58/1/1
f 64/6/1 58/6/1 63/6/1
f 65/6/1 62/6/1 61/6/1
f 65/1/1 61/1/1 60/1/1
f 66/6/1 62/6/1 65/6/1
f 67/1/1 59/1/1 64/1/1
f 67/1/1 64/1/1 63/1/1
f 68/1/1 59/1/1 67/1/1
f 69/1/1 66/1/1 65/1/1
f 69/1/1 65/1/1 60/1/1
f 70/1/1 66/1/1 69/1/1
f 71/1/1 67/1/1 63/1/1
f 74/1/1 66/1/1 70/1/1
f 75/1/1 72/1/1 71/1/1
f 75/1/1 71/1/1 63/1/1
f 76/1/1 72/1/1 75/1/1
f 77/1/1 72/1/1 76/1/1
f 78/1/1 74/1/1 73/1/1
f 79/1/1 66/1/1 74/1/1
f 79/1/1 74/1/1 78/1/1
f 80/1/1 66/1/1 79/1/1
f 81/1/1 75/1/1 63/1/1
f 81/15/1 76/15/1 75/15/1
f 82/11/1 77/11/1 76/11/1
f 82/15/1 76/15/1 81/15/1
f 83/1/1 78/1/1 77/1/1
f 83/11/1 77/11/1 82/11/1
f 84/11/1 79/11/1 78/11/1
f 84/1/1 78/1/1 83/1/1
f 85/15/1 80/15/1 79/15/1
f 85/11/1 79/11/1 84/11/1
f 86/1/1 66/1/1 80/1/1
f 86/15/1 80/15/1 85/15/1
f 87/1/1 81/1/1 63/1/1
f 87/20/1 82/20/1 81/20/1
f 87/20/1 86/20/1 85/20/1
f 87/20/1 83/20/1 82/20/1
f 87/20/1 85/20/1 84/20/1
f 87/20/1 84/20/1 83/20/1
f 88/1/1 66/1/1 86/1/1
f 88/20/1 86/20/1 87/20/1
f 89/1/1 87/1/1 63/1/1
f 89/1/1 88/1/1 87/1/1
f 90/1/1 66/1/1 88/1/1
f 90/1/1 88/1/1 89/1/1
f 94/10/1 92/10/1 91/10/1
f 95/17/1 93/17/1 92/17/1
f 95/10/1 92/10/1 94/10/1
f 96/17/1 93/17/1 95/17/1
f 101/3/1 98/3/1 97/3/1
f 102/3/1 98/3/1 101/3/1
f 103/3/1 100/3/1 99/3/1
f 104/3/1 100/3/1 103/3/1
f 109/3/1 106/3/1 105/3/1
f 110/3/1 106/3/1 109/3/1
f 111/3/1 108/3/1 107/3/1
f 112/3/1 108/3/1 111/3/1
f 113/2/2 114/2/2 116/2/2
f 114/6/2 115/6/2 117/6/2
f 116/2/2 114/2/2 117/2/2
f 117/6/2 115/6/2 118/6/2
f 119/3/2 120/3/2 123/3/2
f 123/3/2 120/3/2 124/3/2
f 121/3/2 122/3/2 125/3/2
f 125/3/2 122/3/2 126/3/2
f 127/18/2 128/18/2 129/18/2
f 129/18/2 128/18/2 130/18/2
f 129/7/2 130/7/2 131/7/2
f 131/7/2 130/7/2 132/7/2
f 133/3/2 134/3/2 137/3/2
f 137/3/2 134/3/2 138/3/2
f 135/3/2 136/3/2 139/3/2
f 139/3/2 136/3/2 140/3/2
f 141/3/2 142/3/2 144/3/2
f 144/3/2 142/3/2 145/3/2
f 143/3/2 144/3/2 147/3/2
f 145/3/2 146/3/2 147/3/2
f 144/3/2 145/3/2 147/3/2
f 147/3/2 146/3/2 148/3/2
f 148/3/2 146/3/2 149/3/2
f 149/3/2 146/3/2 150/3/2
f 151/1/2 152/1/2 153/1/2
f 153/1/2 152/1/2 154/1/2
f 157/3/3 156/3/3 155/3/3
f 159/3/3 157/3/3 155/3/3
f 159/3/3 158/3/3 157/3/3
f 160/3/3 158/3/3 159/3/3
f 161/3/3 158/3/3 160/3/3
f 163/3/3 161/3/3 160/3/3
f 163/3/3 162/3/3 161/3/3
f 164/3/3 162/3/3 163/3/3
f 165/3/3 162/3/3 164/3/3
f 167/3/3 166/3/3 165/3/3
f 167/3/3 165/3/3 164/3/3
f 168/3/3 166/3/3 167/3/3
f 173/3/3 170/3/3 169/3/3
f 178/3/3 170/3/3 173/3/3
f 180/3/3 175/3/3 174/3/3
f 180/6/3 176/6/3 175/6/3
f 181/1/3 177/1/3 176/1/3
f 181/6/3 176/6/3 180/6/3
f 182/3/3 180/3/3 174/3/3
f 182/3/3 181/3/3 180/3/3
f 183/3/3 181/3/3 182/3/3
f 184/18/3 172/18/3 171/18/3
f 185/7/3 173/7/3 172/7/3
f 185/18/3 172/18/3 184/18/3
f 186/3/3 179/3/3 178/3/3
f 186/7/3 173/7/3 185/7/3
f 186/3/3 178/3/3 173/3/3
f 187/3/3 179/3/3 186/3/3
f 189/3/3 181/3/3 183/3/3
f 190/1/3 177/1/3 181/1/3
f 190/3/3 181/3/3 189/3/3
f 191/3/3 188/3/3 187/3/3
f 191/3/3 187/3/3 186/3/3
f 192/3/3 188/3/3 191/3/3
f 193/1/3 177/1/3 190/1/3
f 194/1/3 177/1/3 193/1/3
f 195/1/3 177/1/3 194/1/3
f 198/7/3 197/7/3 196/7/3
f 199/7/3 197/7/3 198/7/3
f 204/4/3 201/4/3 200/4/3
f 205/4/3 201/4/3 204/4/3
f 206/4/3 203/4/3 202/4/3
f 207/4/3 203/4/3 206/4/3
f 210/13/3 209/13/3 208/13/3
f 211/13/3 209/13/3 210/13/3
f 212/13/4 213/13/4 214/13/4
f 214/13/4 213/13/4 215/13/4
f 216/4/4 217/4/4 220/4/4
f 220/4/4 217/4/4 221/4/4
f 218/4/4 219/4/4 222/4/4
f 222/4/4 219/4/4 223/4/4
f 224/7/4 225/7/4 226/7/4
f 226/7/4 225/7/4 227/7/4
f 228/3/4 229/3/4 232/3/4
f 232/3/4 229/3/4 237/3/4
f 233/3/4 234/3/4 239/3/4
f 234/6/4 235/6/4 239/6/4
f 235/1/4 236/1/4 240/1/4
f 239/6/4 235/6/4 240/6/4
f 233/3/4 239/3/4 241/3/4
f 239/3/4 240/3/4 241/3/4
f 241/3/4 240/3/4 242/3/4
f 230/18/4 231/18/4 243/18/4
f 231/7/4 232/7/4 244/7/4
f 243/18/4 231/18/4 244/18/4
f 237/3/4 238/3/4 245/3/4
f 244/7/4 232/7/4 245/7/4
f 232/3/4 237/3/4 245/3/4
f 245/3/4 238/3/4 246/3/4
f 242/3/4 240/3/4 248/3/4
f 240/1/4 236/1/4 249/1/4
f 248/3/4 240/3/4 249/3/4
f 246/3/4 247/3/4 250/3/4
f 245/3/4 246/3/4 250/3/4
f 250/3/4 247/3/4 251/3/4
f 249/1/4 236/1/4 252/1/4
f 252/1/4 236/1/4 253/1/4
f 253/1/4 236/1/4 254/1/4
f 255/3/4 256/3/4 257/3/4
f 255/3/4 257/3/4 259/3/4
f 257/3/4 258/3/4 259/3/4
f 259/3/4 258/3/4 260/3/4
f 260/3/4 258/3/4 261/3/4
f 260/3/4 261/3/4 263/3/4
f 261/3/4 262/3/4 263/3/4
f 263/3/4 262/3/4 264/3/4
f 264/3/4 262/3/4 265/3/4
f 265/3/4 266/3/4 267/3/4
f 264/3/4 265/3/4 267/3/4
f 267/3/4 266/3/4 268/3/4
f 271/18/5 270/18/5 269/18/5
f 272/18/5 270/18/5 271/18/5
f 277/3/5 274/3/5 273/3/5
f 278/3/5 274/3/5 277/3/5
f 279/2/5 278/2/5 277/2/5
f 280/2/5 278/2/5 279/2/5
f 281/6/5 280/6/5 279/6/5
f 282/6/5 280/6/5 281/6/5
f 283/3/5 282/3/5 281/3/5
f 284/3/5 282/3/5 283/3/5
f 285/3/5 276/3/5 275/3/5
f 286/3/5 276/3/5 285/3/5
f 289/10/5 288/10/5 287/10/5
f 290/10/5 288/10/5 289/10/5
f 291/18/5 290/18/5 289/18/5
f 292/18/5 290/18/5 291/18/5
f 295/3/5 294/3/5 293/3/5
f 296/3/5 294/3/5 295/3/5
f 297/3/5 295/3/5 293/3/5
f 298/3/5 295/3/5 297/3/5
f 299/2/5 298/2/5 297/2/5
f 300/2/5 298/2/5 299/2/5
f 301/3/5 300/3/5 299/3/5
f 302/3/5 301/3/5 299/3/5
f 304/3/5 302/3/5 299/3/5
f 304/3/5 303/3/5 302/3/5
f 305/3/5 303/3/5 304/3/5
f 308/3/5 307/3/5 306/3/5
f 309/3/5 307/3/5 308/3/5
f 312/3/5 311/3/5 310/3/5
f 313/3/5 311/3/5 312/3/5
f 316/3/5 315/3/5 314/3/5
f 317/3/5 315/3/5 316/3/5
f 320/3/5 319/3/5 318/3/5
f 321/3/5 319/3/5 320/3/5
f 324/4/5 323/4/5 322/4/5
f 325/4/5 323/4/5 324/4/5
f 328/1/5 327/1/5 326/1/5
f 329/1/5 327/1/5 328/1/5
f 332/7/5 331/7/5 330/7/5
f 333/7/5 331/7/5 332/7/5
f 336/7/5 335/7/5 334/7/5
f 337/7/5 335/7/5 336/7/5
f 338/7/6 339/7/6 340/7/6
f 340/7/6 339/7/6 341/7/6
f 340/7/6 341/7/6 342/7/6
f 342/7/6 341/7/6 343/7/6
f 344/3/6 345/3/6 346/3/6
f 344/3/6 346/3/6 347/3/6
f 347/3/6 346/3/6 348/3/6
f 347/2/6 348/2/6 349/2/6
f 349/2/6 348/2/6 350/2/6
f 349/3/6 350/3/6 351/3/6
f 351/3/6 350/3/6 352/3/6
f 353/3/6 354/3/6 355/3/6
f 355/3/6 354/3/6 356/3/6
f 357/3/6 358/3/6 359/3/6
f 359/3/6 358/3/6 360/3/6
f 361/3/6 362/3/6 363/3/6
f 363/3/6 362/3/6 364/3/6
f 365/3/6 366/3/6 367/3/6
f 367/3/6 366/3/6 368/3/6
f 369/3/6 370/3/6 371/3/6
f 371/3/6 370/3/6 372/3/6
f 373/3/6 374/3/6 375/3/6
f 375/3/6 374/3/6 376/3/6
f 377/7/6 378/7/6 379/7/6
f 379/7/6 378/7/6 380/7/6
f 381/7/6 382/7/6 383/7/6
f 383/7/6 382/7/6 384/7/6
f 385/4/6 386/4/6 387/4/6
f 387/4/6 386/4/6 388/4/6
f 389/1/6 390/1/6 391/1/6
f 391/1/6 390/1/6 392/1/6
