# MagicaVoxel @ Ephtracy

# group
o 

# material
mtllib test2.mtl
usemtl palette

# normals
vn -1 0 0
vn 1 0 0
vn 0 0 1
vn 0 0 -1
vn 0 -1 0
vn 0 1 0

# texcoords
vt 0.771484 0.5
vt 0.884766 0.5
vt 0.892578 0.5
vt 0.904297 0.5
vt 0.994141 0.5

# verts
v -0.2 0 0.2
v -0.2 0 0.1
v -0.2 0 -0.3
v -0.2 0.1 0.2
v -0.2 0.1 0.1
v -0.2 0.2 0.2
v -0.2 0.2 0.1
v -0.2 0.3 0.2
v -0.2 0.3 0.1
v -0.2 0.4 0.2
v -0.2 0.4 0.1
v -0.2 0.5 0.2
v -0.2 0.5 0.1
v -0.2 0.5 -0.3
v 0.3 0 0.2
v 0.3 0 0.1
v 0.3 0 -0.3
v 0.3 0.1 0.2
v 0.3 0.1 0.1
v 0.3 0.2 0.2
v 0.3 0.2 0.1
v 0.3 0.3 0.2
v 0.3 0.3 0.1
v 0.3 0.4 0.2
v 0.3 0.4 0.1
v 0.3 0.5 0.2
v 0.3 0.5 0.1
v 0.3 0.5 -0.3
v -0.2 0 0.2
v -0.2 0.1 0.2
v -0.2 0.2 0.2
v -0.2 0.3 0.2
v -0.2 0.4 0.2
v -0.2 0.5 0.2
v -0.1 0 0.2
v -0.1 0.1 0.2
v -0.1 0.2 0.2
v -0.1 0.3 0.2
v -0.1 0.4 0.2
v -0.1 0.5 0.2
v 0 0 0.2
v 0 0.1 0.2
v 0 0.2 0.2
v 0 0.3 0.2
v 0 0.4 0.2
v 0 0.5 0.2
v 0.1 0 0.2
v 0.1 0.1 0.2
v 0.1 0.2 0.2
v 0.1 0.3 0.2
v 0.1 0.4 0.2
v 0.2 0 0.2
v 0.2 0.1 0.2
v 0.2 0.2 0.2
v 0.2 0.3 0.2
v 0.2 0.4 0.2
v 0.2 0.5 0.2
v 0.3 0 0.2
v 0.3 0.1 0.2
v 0.3 0.2 0.2
v 0.3 0.3 0.2
v 0.3 0.4 0.2
v 0.3 0.5 0.2
v -0.2 0 -0.3
v -0.2 0.5 -0.3
v 0.3 0 -0.3
v 0.3 0.5 -0.3
v -0.2 0 0.2
v -0.1 0 0.2
v 0 0 0.2
v 0.1 0 0.2
v 0.2 0 0.2
v 0.3 0 0.2
v -0.2 0 0.1
v -0.1 0 0.1
v 0 0 0.1
v 0.1 0 0.1
v 0.2 0 0.1
v 0.3 0 0.1
v -0.2 0 -0.3
v 0.3 0 -0.3
v -0.2 0.5 0.2
v -0.1 0.5 0.2
v 0 0.5 0.2
v 0.2 0.5 0.2
v 0.3 0.5 0.2
v -0.2 0.5 0.1
v -0.1 0.5 0.1
v 0 0.5 0.1
v 0.2 0.5 0.1
v 0.3 0.5 0.1
v -0.2 0.5 -0.3
v 0.3 0.5 -0.3

# faces
f 4/2/1 2/2/1 1/2/1
f 5/1/1 3/1/1 2/1/1
f 5/2/1 2/2/1 4/2/1
f 6/1/1 5/1/1 4/1/1
f 7/1/1 3/1/1 5/1/1
f 7/1/1 5/1/1 6/1/1
f 8/4/1 7/4/1 6/4/1
f 9/1/1 3/1/1 7/1/1
f 9/4/1 7/4/1 8/4/1
f 10/1/1 9/1/1 8/1/1
f 11/1/1 3/1/1 9/1/1
f 11/1/1 9/1/1 10/1/1
f 12/2/1 11/2/1 10/2/1
f 13/1/1 3/1/1 11/1/1
f 13/2/1 11/2/1 12/2/1
f 14/1/1 3/1/1 13/1/1
f 15/4/2 16/4/2 18/4/2
f 16/1/2 17/1/2 19/1/2
f 18/4/2 16/4/2 19/4/2
f 18/1/2 19/1/2 20/1/2
f 19/1/2 17/1/2 21/1/2
f 20/1/2 19/1/2 21/1/2
f 20/2/2 21/2/2 22/2/2
f 21/1/2 17/1/2 23/1/2
f 22/2/2 21/2/2 23/2/2
f 22/1/2 23/1/2 24/1/2
f 23/1/2 17/1/2 25/1/2
f 24/1/2 23/1/2 25/1/2
f 24/4/2 25/4/2 26/4/2
f 25/1/2 17/1/2 27/1/2
f 26/4/2 25/4/2 27/4/2
f 27/1/2 17/1/2 28/1/2
f 35/2/3 30/2/3 29/2/3
f 36/1/3 31/1/3 30/1/3
f 36/2/3 30/2/3 35/2/3
f 37/4/3 32/4/3 31/4/3
f 37/1/3 31/1/3 36/1/3
f 38/1/3 33/1/3 32/1/3
f 38/4/3 32/4/3 37/4/3
f 39/2/3 34/2/3 33/2/3
f 39/1/3 33/1/3 38/1/3
f 40/2/3 34/2/3 39/2/3
f 41/4/3 36/4/3 35/4/3
f 42/1/3 37/1/3 36/1/3
f 42/4/3 36/4/3 41/4/3
f 43/3/3 38/3/3 37/3/3
f 43/1/3 37/1/3 42/1/3
f 44/5/3 39/5/3 38/5/3
f 44/3/3 38/3/3 43/3/3
f 45/4/3 40/4/3 39/4/3
f 45/5/3 39/5/3 44/5/3
f 46/4/3 40/4/3 45/4/3
f 47/1/3 42/1/3 41/1/3
f 48/5/3 43/5/3 42/5/3
f 48/1/3 42/1/3 47/1/3
f 49/1/3 44/1/3 43/1/3
f 49/5/3 43/5/3 48/5/3
f 50/2/3 45/2/3 44/2/3
f 50/1/3 44/1/3 49/1/3
f 51/1/3 46/1/3 45/1/3
f 51/2/3 45/2/3 50/2/3
f 52/2/3 48/2/3 47/2/3
f 53/1/3 49/1/3 48/1/3
f 53/2/3 48/2/3 52/2/3
f 54/4/3 50/4/3 49/4/3
f 54/1/3 49/1/3 53/1/3
f 55/5/3 51/5/3 50/5/3
f 55/4/3 50/4/3 54/4/3
f 56/1/3 46/1/3 51/1/3
f 56/5/3 51/5/3 55/5/3
f 57/1/3 46/1/3 56/1/3
f 58/4/3 53/4/3 52/4/3
f 59/1/3 54/1/3 53/1/3
f 59/4/3 53/4/3 58/4/3
f 60/2/3 55/2/3 54/2/3
f 60/1/3 54/1/3 59/1/3
f 61/1/3 56/1/3 55/1/3
f 61/2/3 55/2/3 60/2/3
f 62/4/3 57/4/3 56/4/3
f 62/1/3 56/1/3 61/1/3
f 63/4/3 57/4/3 62/4/3
f 64/1/4 65/1/4 66/1/4
f 66/1/4 65/1/4 67/1/4
f 74/2/5 69/2/5 68/2/5
f 75/4/5 70/4/5 69/4/5
f 75/2/5 69/2/5 74/2/5
f 76/1/5 71/1/5 70/1/5
f 76/4/5 70/4/5 75/4/5
f 77/2/5 72/2/5 71/2/5
f 77/1/5 71/1/5 76/1/5
f 78/4/5 73/4/5 72/4/5
f 78/2/5 72/2/5 77/2/5
f 79/4/5 73/4/5 78/4/5
f 80/1/5 77/1/5 76/1/5
f 80/1/5 75/1/5 74/1/5
f 80/1/5 79/1/5 78/1/5
f 80/1/5 78/1/5 77/1/5
f 80/1/5 76/1/5 75/1/5
f 81/1/5 79/1/5 80/1/5
f 82/2/6 83/2/6 87/2/6
f 83/4/6 84/4/6 88/4/6
f 87/2/6 83/2/6 88/2/6
f 84/1/6 85/1/6 89/1/6
f 88/4/6 84/4/6 89/4/6
f 85/4/6 86/4/6 90/4/6
f 89/1/6 85/1/6 90/1/6
f 90/4/6 86/4/6 91/4/6
f 88/1/6 89/1/6 92/1/6
f 87/1/6 88/1/6 92/1/6
f 90/1/6 91/1/6 92/1/6
f 89/1/6 90/1/6 92/1/6
f 92/1/6 91/1/6 93/1/6
