# MagicaVoxel @ Ephtracy

# group
o 

# material
mtllib hanabi.mtl
usemtl palette

# normals
vn -1 0 0
vn 1 0 0
vn 0 0 1
vn 0 0 -1
vn 0 -1 0
vn 0 1 0

# texcoords
vt 0.00195313 0.5
vt 0.279297 0.5
vt 0.853516 0.5
vt 0.857422 0.5
vt 0.876953 0.5
vt 0.966797 0.5
vt 0.970703 0.5

# verts
v -0.4 1 0
v -0.4 1 -0.1
v -0.4 1.2 0
v -0.4 1.2 -0.1
v -0.3 0.3 0
v -0.3 0.3 -0.1
v -0.3 0.5 0
v -0.3 0.5 -0.1
v -0.3 0.7 0
v -0.3 0.7 -0.1
v -0.3 0.9 0
v -0.3 0.9 -0.1
v -0.3 1 0
v -0.3 1 -0.1
v -0.3 1.1 0.1
v -0.3 1.1 0
v -0.3 1.1 -0.1
v -0.3 1.1 -0.2
v -0.3 1.2 0.1
v -0.3 1.2 0
v -0.3 1.2 -0.1
v -0.3 1.2 -0.2
v -0.3 1.3 0
v -0.3 1.3 -0.1
v -0.2 0.1 0
v -0.2 0.1 -0.1
v -0.2 0.2 0
v -0.2 0.2 -0.1
v -0.2 0.3 0.1
v -0.2 0.3 0
v -0.2 0.3 -0.1
v -0.2 0.3 -0.2
v -0.2 0.4 0.1
v -0.2 0.4 0
v -0.2 0.4 -0.1
v -0.2 0.4 -0.2
v -0.2 0.5 0
v -0.2 0.5 -0.1
v -0.2 0.6 0.1
v -0.2 0.6 0
v -0.2 0.6 -0.1
v -0.2 0.6 -0.2
v -0.2 0.7 0
v -0.2 0.7 -0.1
v -0.2 0.8 0.1
v -0.2 0.8 0
v -0.2 0.8 -0.1
v -0.2 0.8 -0.2
v -0.2 0.9 0
v -0.2 0.9 -0.1
v -0.2 1 0.1
v -0.2 1 0
v -0.2 1 -0.1
v -0.2 1 -0.2
v -0.2 1.1 0.1
v -0.2 1.1 0
v -0.2 1.1 -0.1
v -0.2 1.1 -0.2
v -0.2 1.2 0.1
v -0.2 1.2 0
v -0.2 1.2 -0.1
v -0.2 1.2 -0.2
v -0.2 1.3 0.1
v -0.2 1.3 0
v -0.2 1.3 -0.1
v -0.2 1.3 -0.2
v -0.2 1.4 0
v -0.2 1.4 -0.1
v -0.1 0 0
v -0.1 0 -0.1
v -0.1 0.1 0
v -0.1 0.1 -0.1
v 0.1 0.1 0
v 0.1 0.1 -0.1
v 0.1 0.2 0
v 0.1 0.2 -0.1
v 0.2 0.2 0
v 0.2 0.2 -0.1
v 0.2 0.3 0
v 0.2 0.3 -0.1
v -0.1 0.1 0
v -0.1 0.1 -0.1
v -0.1 0.2 0
v -0.1 0.2 -0.1
v -0.1 0.3 0.1
v -0.1 0.3 0
v -0.1 0.3 -0.1
v -0.1 0.3 -0.2
v -0.1 0.4 0.1
v -0.1 0.4 0
v -0.1 0.4 -0.1
v -0.1 0.4 -0.2
v -0.1 0.5 0
v -0.1 0.5 -0.1
v -0.1 0.6 0.1
v -0.1 0.6 0
v -0.1 0.6 -0.1
v -0.1 0.6 -0.2
v -0.1 0.7 0
v -0.1 0.7 -0.1
v -0.1 0.8 0.1
v -0.1 0.8 0
v -0.1 0.8 -0.1
v -0.1 0.8 -0.2
v -0.1 0.9 0
v -0.1 0.9 -0.1
v -0.1 1 0.1
v -0.1 1 0
v -0.1 1 -0.1
v -0.1 1 -0.2
v -0.1 1.1 0.1
v -0.1 1.1 0
v -0.1 1.1 -0.1
v -0.1 1.1 -0.2
v -0.1 1.2 0.1
v -0.1 1.2 0
v -0.1 1.2 -0.1
v -0.1 1.2 -0.2
v -0.1 1.3 0.1
v -0.1 1.3 0
v -0.1 1.3 -0.1
v -0.1 1.3 -0.2
v -0.1 1.4 0
v -0.1 1.4 -0.1
v 0 0.3 0
v 0 0.3 -0.1
v 0 0.5 0
v 0 0.5 -0.1
v 0 0.7 0
v 0 0.7 -0.1
v 0 0.9 0
v 0 0.9 -0.1
v 0 1 0
v 0 1 -0.1
v 0 1.1 0.1
v 0 1.1 0
v 0 1.1 -0.1
v 0 1.1 -0.2
v 0 1.2 0.1
v 0 1.2 0
v 0 1.2 -0.1
v 0 1.2 -0.2
v 0 1.3 0
v 0 1.3 -0.1
v 0.1 0 0
v 0.1 0 -0.1
v 0.1 0.1 0
v 0.1 0.1 -0.1
v 0.1 1 0
v 0.1 1 -0.1
v 0.1 1.2 0
v 0.1 1.2 -0.1
v 0.2 0.1 0
v 0.2 0.1 -0.1
v 0.2 0.2 0
v 0.2 0.2 -0.1
v 0.4 0.2 0
v 0.4 0.2 -0.1
v 0.4 0.3 0
v 0.4 0.3 -0.1
v -0.3 1.1 0.1
v -0.3 1.2 0.1
v -0.2 0.3 0.1
v -0.2 0.4 0.1
v -0.2 0.6 0.1
v -0.2 0.8 0.1
v -0.2 1 0.1
v -0.2 1.1 0.1
v -0.2 1.2 0.1
v -0.2 1.3 0.1
v -0.1 0.3 0.1
v -0.1 0.4 0.1
v -0.1 0.6 0.1
v -0.1 0.8 0.1
v -0.1 1 0.1
v -0.1 1.1 0.1
v -0.1 1.2 0.1
v -0.1 1.3 0.1
v 0 1.1 0.1
v 0 1.2 0.1
v -0.4 1 0
v -0.4 1.2 0
v -0.3 0.3 0
v -0.3 0.5 0
v -0.3 0.7 0
v -0.3 0.9 0
v -0.3 1 0
v -0.3 1.1 0
v -0.3 1.2 0
v -0.3 1.3 0
v -0.2 0.1 0
v -0.2 0.2 0
v -0.2 0.3 0
v -0.2 0.4 0
v -0.2 0.5 0
v -0.2 0.6 0
v -0.2 0.7 0
v -0.2 0.8 0
v -0.2 0.9 0
v -0.2 1 0
v -0.2 1.1 0
v -0.2 1.2 0
v -0.2 1.3 0
v -0.2 1.4 0
v -0.1 0 0
v -0.1 0.1 0
v -0.1 0.2 0
v -0.1 0.3 0
v -0.1 0.4 0
v -0.1 0.5 0
v -0.1 0.6 0
v -0.1 0.7 0
v -0.1 0.8 0
v -0.1 0.9 0
v -0.1 1 0
v -0.1 1.1 0
v -0.1 1.2 0
v -0.1 1.3 0
v -0.1 1.4 0
v 0 0.3 0
v 0 0.5 0
v 0 0.7 0
v 0 0.9 0
v 0 1 0
v 0 1.1 0
v 0 1.2 0
v 0 1.3 0
v 0.1 0 0
v 0.1 0.1 0
v 0.1 0.2 0
v 0.1 1 0
v 0.1 1.2 0
v 0.2 0.1 0
v 0.2 0.2 0
v 0.2 0.3 0
v 0.4 0.2 0
v 0.4 0.3 0
v -0.4 1 -0.1
v -0.4 1.2 -0.1
v -0.3 0.3 -0.1
v -0.3 0.5 -0.1
v -0.3 0.7 -0.1
v -0.3 0.9 -0.1
v -0.3 1 -0.1
v -0.3 1.1 -0.1
v -0.3 1.2 -0.1
v -0.3 1.3 -0.1
v -0.2 0.1 -0.1
v -0.2 0.2 -0.1
v -0.2 0.3 -0.1
v -0.2 0.4 -0.1
v -0.2 0.5 -0.1
v -0.2 0.6 -0.1
v -0.2 0.7 -0.1
v -0.2 0.8 -0.1
v -0.2 0.9 -0.1
v -0.2 1 -0.1
v -0.2 1.1 -0.1
v -0.2 1.2 -0.1
v -0.2 1.3 -0.1
v -0.2 1.4 -0.1
v -0.1 0 -0.1
v -0.1 0.1 -0.1
v -0.1 0.2 -0.1
v -0.1 0.3 -0.1
v -0.1 0.4 -0.1
v -0.1 0.5 -0.1
v -0.1 0.6 -0.1
v -0.1 0.7 -0.1
v -0.1 0.8 -0.1
v -0.1 0.9 -0.1
v -0.1 1 -0.1
v -0.1 1.1 -0.1
v -0.1 1.2 -0.1
v -0.1 1.3 -0.1
v -0.1 1.4 -0.1
v 0 0.3 -0.1
v 0 0.5 -0.1
v 0 0.7 -0.1
v 0 0.9 -0.1
v 0 1 -0.1
v 0 1.1 -0.1
v 0 1.2 -0.1
v 0 1.3 -0.1
v 0.1 0 -0.1
v 0.1 0.1 -0.1
v 0.1 0.2 -0.1
v 0.1 1 -0.1
v 0.1 1.2 -0.1
v 0.2 0.1 -0.1
v 0.2 0.2 -0.1
v 0.2 0.3 -0.1
v 0.4 0.2 -0.1
v 0.4 0.3 -0.1
v -0.3 1.1 -0.2
v -0.3 1.2 -0.2
v -0.2 0.3 -0.2
v -0.2 0.4 -0.2
v -0.2 0.6 -0.2
v -0.2 0.8 -0.2
v -0.2 1 -0.2
v -0.2 1.1 -0.2
v -0.2 1.2 -0.2
v -0.2 1.3 -0.2
v -0.1 0.3 -0.2
v -0.1 0.4 -0.2
v -0.1 0.6 -0.2
v -0.1 0.8 -0.2
v -0.1 1 -0.2
v -0.1 1.1 -0.2
v -0.1 1.2 -0.2
v -0.1 1.3 -0.2
v 0 1.1 -0.2
v 0 1.2 -0.2
v -0.1 0 0
v 0.1 0 0
v -0.1 0 -0.1
v 0.1 0 -0.1
v -0.2 0.1 0
v -0.1 0.1 0
v 0.1 0.1 0
v 0.2 0.1 0
v -0.2 0.1 -0.1
v -0.1 0.1 -0.1
v 0.1 0.1 -0.1
v 0.2 0.1 -0.1
v 0.2 0.2 0
v 0.4 0.2 0
v 0.2 0.2 -0.1
v 0.4 0.2 -0.1
v -0.2 0.3 0.1
v -0.1 0.3 0.1
v -0.3 0.3 0
v -0.2 0.3 0
v -0.1 0.3 0
v 0 0.3 0
v -0.3 0.3 -0.1
v -0.2 0.3 -0.1
v -0.1 0.3 -0.1
v 0 0.3 -0.1
v -0.2 0.3 -0.2
v -0.1 0.3 -0.2
v -0.4 1 0
v -0.3 1 0
v 0 1 0
v 0.1 1 0
v -0.4 1 -0.1
v -0.3 1 -0.1
v 0 1 -0.1
v 0.1 1 -0.1
v -0.3 1.1 0.1
v -0.2 1.1 0.1
v -0.1 1.1 0.1
v 0 1.1 0.1
v -0.3 1.1 0
v -0.2 1.1 0
v -0.1 1.1 0
v 0 1.1 0
v -0.3 1.1 -0.1
v -0.2 1.1 -0.1
v -0.1 1.1 -0.1
v 0 1.1 -0.1
v -0.3 1.1 -0.2
v -0.2 1.1 -0.2
v -0.1 1.1 -0.2
v 0 1.1 -0.2
v -0.1 0.1 0
v 0.1 0.1 0
v -0.1 0.1 -0.1
v 0.1 0.1 -0.1
v 0.1 0.2 0
v 0.2 0.2 0
v 0.1 0.2 -0.1
v 0.2 0.2 -0.1
v 0.2 0.3 0
v 0.4 0.3 0
v 0.2 0.3 -0.1
v 0.4 0.3 -0.1
v -0.3 1.2 0.1
v -0.2 1.2 0.1
v -0.1 1.2 0.1
v 0 1.2 0.1
v -0.4 1.2 0
v -0.3 1.2 0
v -0.2 1.2 0
v -0.1 1.2 0
v 0 1.2 0
v 0.1 1.2 0
v -0.4 1.2 -0.1
v -0.3 1.2 -0.1
v -0.2 1.2 -0.1
v -0.1 1.2 -0.1
v 0 1.2 -0.1
v 0.1 1.2 -0.1
v -0.3 1.2 -0.2
v -0.2 1.2 -0.2
v -0.1 1.2 -0.2
v 0 1.2 -0.2
v -0.2 1.3 0.1
v -0.1 1.3 0.1
v -0.3 1.3 0
v -0.2 1.3 0
v -0.1 1.3 0
v 0 1.3 0
v -0.3 1.3 -0.1
v -0.2 1.3 -0.1
v -0.1 1.3 -0.1
v 0 1.3 -0.1
v -0.2 1.3 -0.2
v -0.1 1.3 -0.2
v -0.2 1.4 0
v -0.1 1.4 0
v -0.2 1.4 -0.1
v -0.1 1.4 -0.1

# faces
f 3/3/1 2/3/1 1/3/1
f 4/3/1 2/3/1 3/3/1
f 7/2/1 6/2/1 5/2/1
f 8/2/1 6/2/1 7/2/1
f 9/1/1 8/1/1 7/1/1
f 10/1/1 8/1/1 9/1/1
f 11/2/1 10/2/1 9/2/1
f 12/2/1 10/2/1 11/2/1
f 13/1/1 12/1/1 11/1/1
f 14/1/1 12/1/1 13/1/1
f 19/2/1 16/2/1 15/2/1
f 20/2/1 16/2/1 19/2/1
f 21/2/1 18/2/1 17/2/1
f 22/2/1 18/2/1 21/2/1
f 23/3/1 21/3/1 20/3/1
f 24/3/1 21/3/1 23/3/1
f 27/5/1 26/5/1 25/5/1
f 28/5/1 26/5/1 27/5/1
f 30/7/1 28/7/1 27/7/1
f 31/7/1 28/7/1 30/7/1
f 33/1/1 30/1/1 29/1/1
f 34/1/1 30/1/1 33/1/1
f 35/1/1 32/1/1 31/1/1
f 36/1/1 32/1/1 35/1/1
f 37/2/1 34/2/1 33/2/1
f 38/2/1 36/2/1 35/2/1
f 39/2/1 37/2/1 33/2/1
f 40/2/1 37/2/1 39/2/1
f 41/2/1 36/2/1 38/2/1
f 42/2/1 36/2/1 41/2/1
f 43/1/1 40/1/1 39/1/1
f 44/1/1 42/1/1 41/1/1
f 45/1/1 43/1/1 39/1/1
f 46/1/1 43/1/1 45/1/1
f 47/1/1 42/1/1 44/1/1
f 48/1/1 42/1/1 47/1/1
f 49/2/1 46/2/1 45/2/1
f 50/2/1 48/2/1 47/2/1
f 51/2/1 49/2/1 45/2/1
f 52/2/1 49/2/1 51/2/1
f 53/2/1 48/2/1 50/2/1
f 54/2/1 48/2/1 53/2/1
f 55/3/1 52/3/1 51/3/1
f 56/3/1 52/3/1 55/3/1
f 57/3/1 54/3/1 53/3/1
f 58/3/1 54/3/1 57/3/1
f 63/2/1 60/2/1 59/2/1
f 64/2/1 60/2/1 63/2/1
f 65/2/1 62/2/1 61/2/1
f 66/2/1 62/2/1 65/2/1
f 67/3/1 65/3/1 64/3/1
f 68/3/1 65/3/1 67/3/1
f 71/5/1 70/5/1 69/5/1
f 72/5/1 70/5/1 71/5/1
f 75/5/1 74/5/1 73/5/1
f 76/5/1 74/5/1 75/5/1
f 79/5/1 78/5/1 77/5/1
f 80/5/1 78/5/1 79/5/1
f 81/5/2 82/5/2 83/5/2
f 83/5/2 82/5/2 84/5/2
f 83/7/2 84/7/2 86/7/2
f 86/7/2 84/7/2 87/7/2
f 85/1/2 86/1/2 89/1/2
f 89/1/2 86/1/2 90/1/2
f 87/1/2 88/1/2 91/1/2
f 91/1/2 88/1/2 92/1/2
f 89/2/2 90/2/2 93/2/2
f 91/2/2 92/2/2 94/2/2
f 89/2/2 93/2/2 95/2/2
f 95/2/2 93/2/2 96/2/2
f 94/2/2 92/2/2 97/2/2
f 97/2/2 92/2/2 98/2/2
f 95/1/2 96/1/2 99/1/2
f 97/1/2 98/1/2 100/1/2
f 95/1/2 99/1/2 101/1/2
f 101/1/2 99/1/2 102/1/2
f 100/1/2 98/1/2 103/1/2
f 103/1/2 98/1/2 104/1/2
f 101/2/2 102/2/2 105/2/2
f 103/2/2 104/2/2 106/2/2
f 101/2/2 105/2/2 107/2/2
f 107/2/2 105/2/2 108/2/2
f 106/2/2 104/2/2 109/2/2
f 109/2/2 104/2/2 110/2/2
f 107/3/2 108/3/2 111/3/2
f 111/3/2 108/3/2 112/3/2
f 109/3/2 110/3/2 113/3/2
f 113/3/2 110/3/2 114/3/2
f 115/2/2 116/2/2 119/2/2
f 119/2/2 116/2/2 120/2/2
f 117/2/2 118/2/2 121/2/2
f 121/2/2 118/2/2 122/2/2
f 120/3/2 121/3/2 123/3/2
f 123/3/2 121/3/2 124/3/2
f 125/6/2 126/6/2 127/6/2
f 127/6/2 126/6/2 128/6/2
f 127/3/2 128/3/2 129/3/2
f 129/3/2 128/3/2 130/3/2
f 129/6/2 130/6/2 131/6/2
f 131/6/2 130/6/2 132/6/2
f 131/3/2 132/3/2 133/3/2
f 133/3/2 132/3/2 134/3/2
f 135/3/2 136/3/2 139/3/2
f 139/3/2 136/3/2 140/3/2
f 137/3/2 138/3/2 141/3/2
f 141/3/2 138/3/2 142/3/2
f 140/4/2 141/4/2 143/4/2
f 143/4/2 141/4/2 144/4/2
f 145/5/2 146/5/2 147/5/2
f 147/5/2 146/5/2 148/5/2
f 149/4/2 150/4/2 151/4/2
f 151/4/2 150/4/2 152/4/2
f 153/5/2 154/5/2 155/5/2
f 155/5/2 154/5/2 156/5/2
f 157/5/2 158/5/2 159/5/2
f 159/5/2 158/5/2 160/5/2
f 168/2/3 162/2/3 161/2/3
f 169/2/3 162/2/3 168/2/3
f 171/1/3 164/1/3 163/1/3
f 172/2/3 165/2/3 164/2/3
f 172/1/3 164/1/3 171/1/3
f 173/1/3 166/1/3 165/1/3
f 173/2/3 165/2/3 172/2/3
f 174/2/3 167/2/3 166/2/3
f 174/1/3 166/1/3 173/1/3
f 175/3/3 168/3/3 167/3/3
f 175/2/3 167/2/3 174/2/3
f 175/3/3 169/3/3 168/3/3
f 176/3/3 169/3/3 175/3/3
f 177/2/3 170/2/3 169/2/3
f 177/3/3 169/3/3 176/3/3
f 178/2/3 170/2/3 177/2/3
f 179/3/3 177/3/3 176/3/3
f 180/3/3 177/3/3 179/3/3
f 187/3/3 182/3/3 181/3/3
f 188/3/3 182/3/3 187/3/3
f 189/3/3 182/3/3 188/3/3
f 193/2/3 184/2/3 183/2/3
f 194/2/3 184/2/3 193/2/3
f 195/1/3 185/1/3 184/1/3
f 195/2/3 184/2/3 194/2/3
f 196/1/3 185/1/3 195/1/3
f 197/2/3 186/2/3 185/2/3
f 197/1/3 185/1/3 196/1/3
f 198/2/3 186/2/3 197/2/3
f 199/1/3 187/1/3 186/1/3
f 199/2/3 186/2/3 198/2/3
f 200/2/3 188/2/3 187/2/3
f 200/1/3 187/1/3 199/1/3
f 201/2/3 188/2/3 200/2/3
f 202/3/3 190/3/3 189/3/3
f 203/3/3 190/3/3 202/3/3
f 206/5/3 192/5/3 191/5/3
f 207/7/3 193/7/3 192/7/3
f 207/5/3 192/5/3 206/5/3
f 208/7/3 193/7/3 207/7/3
f 218/3/3 204/3/3 203/3/3
f 219/3/3 204/3/3 218/3/3
f 220/6/3 209/6/3 208/6/3
f 220/6/3 210/6/3 209/6/3
f 221/3/3 211/3/3 210/3/3
f 221/6/3 210/6/3 220/6/3
f 221/3/3 212/3/3 211/3/3
f 222/6/3 214/6/3 213/6/3
f 222/3/3 212/3/3 221/3/3
f 222/6/3 213/6/3 212/6/3
f 223/3/3 215/3/3 214/3/3
f 223/6/3 214/6/3 222/6/3
f 224/4/3 216/4/3 215/4/3
f 224/3/3 215/3/3 223/3/3
f 225/4/3 216/4/3 224/4/3
f 226/4/3 218/4/3 217/4/3
f 227/4/3 218/4/3 226/4/3
f 228/5/3 206/5/3 205/5/3
f 229/5/3 206/5/3 228/5/3
f 231/4/3 226/4/3 225/4/3
f 231/4/3 225/4/3 224/4/3
f 232/4/3 226/4/3 231/4/3
f 233/5/3 230/5/3 229/5/3
f 234/5/3 230/5/3 233/5/3
f 236/5/3 235/5/3 234/5/3
f 237/5/3 235/5/3 236/5/3
f 238/3/4 239/3/4 244/3/4
f 244/3/4 239/3/4 245/3/4
f 245/3/4 239/3/4 246/3/4
f 240/2/4 241/2/4 250/2/4
f 250/2/4 241/2/4 251/2/4
f 241/1/4 242/1/4 252/1/4
f 251/2/4 241/2/4 252/2/4
f 252/1/4 242/1/4 253/1/4
f 242/2/4 243/2/4 254/2/4
f 253/1/4 242/1/4 254/1/4
f 254/2/4 243/2/4 255/2/4
f 243/1/4 244/1/4 256/1/4
f 255/2/4 243/2/4 256/2/4
f 244/2/4 245/2/4 257/2/4
f 256/1/4 244/1/4 257/1/4
f 257/2/4 245/2/4 258/2/4
f 246/3/4 247/3/4 259/3/4
f 259/3/4 247/3/4 260/3/4
f 248/5/4 249/5/4 263/5/4
f 249/7/4 250/7/4 264/7/4
f 263/5/4 249/5/4 264/5/4
f 264/7/4 250/7/4 265/7/4
f 260/3/4 261/3/4 275/3/4
f 275/3/4 261/3/4 276/3/4
f 265/6/4 266/6/4 277/6/4
f 266/6/4 267/6/4 277/6/4
f 267/3/4 268/3/4 278/3/4
f 277/6/4 267/6/4 278/6/4
f 268/3/4 269/3/4 278/3/4
f 270/6/4 271/6/4 279/6/4
f 278/3/4 269/3/4 279/3/4
f 269/6/4 270/6/4 279/6/4
f 271/3/4 272/3/4 280/3/4
f 279/6/4 271/6/4 280/6/4
f 272/4/4 273/4/4 281/4/4
f 280/3/4 272/3/4 281/3/4
f 281/4/4 273/4/4 282/4/4
f 274/4/4 275/4/4 283/4/4
f 283/4/4 275/4/4 284/4/4
f 262/5/4 263/5/4 285/5/4
f 285/5/4 263/5/4 286/5/4
f 282/4/4 283/4/4 288/4/4
f 281/4/4 282/4/4 288/4/4
f 288/4/4 283/4/4 289/4/4
f 286/5/4 287/5/4 290/5/4
f 290/5/4 287/5/4 291/5/4
f 291/5/4 292/5/4 293/5/4
f 293/5/4 292/5/4 294/5/4
f 295/2/4 296/2/4 302/2/4
f 302/2/4 296/2/4 303/2/4
f 297/1/4 298/1/4 305/1/4
f 298/2/4 299/2/4 306/2/4
f 305/1/4 298/1/4 306/1/4
f 299/1/4 300/1/4 307/1/4
f 306/2/4 299/2/4 307/2/4
f 300/2/4 301/2/4 308/2/4
f 307/1/4 300/1/4 308/1/4
f 301/3/4 302/3/4 309/3/4
f 308/2/4 301/2/4 309/2/4
f 302/3/4 303/3/4 309/3/4
f 309/3/4 303/3/4 310/3/4
f 303/2/4 304/2/4 311/2/4
f 310/3/4 303/3/4 311/3/4
f 311/2/4 304/2/4 312/2/4
f 310/3/4 311/3/4 313/3/4
f 313/3/4 311/3/4 314/3/4
f 317/5/5 316/5/5 315/5/5
f 318/5/5 316/5/5 317/5/5
f 323/5/5 320/5/5 319/5/5
f 324/5/5 320/5/5 323/5/5
f 325/5/5 322/5/5 321/5/5
f 326/5/5 322/5/5 325/5/5
f 329/5/5 328/5/5 327/5/5
f 330/5/5 328/5/5 329/5/5
f 334/1/5 332/1/5 331/1/5
f 335/1/5 332/1/5 334/1/5
f 337/2/5 334/2/5 333/2/5
f 338/2/5 334/2/5 337/2/5
f 339/6/5 336/6/5 335/6/5
f 340/6/5 336/6/5 339/6/5
f 341/1/5 339/1/5 338/1/5
f 342/1/5 339/1/5 341/1/5
f 347/3/5 344/3/5 343/3/5
f 348/3/5 344/3/5 347/3/5
f 349/4/5 346/4/5 345/4/5
f 350/4/5 346/4/5 349/4/5
f 355/2/5 352/2/5 351/2/5
f 356/2/5 352/2/5 355/2/5
f 357/3/5 354/3/5 353/3/5
f 358/3/5 354/3/5 357/3/5
f 363/2/5 360/2/5 359/2/5
f 364/2/5 360/2/5 363/2/5
f 365/3/5 362/3/5 361/3/5
f 366/3/5 362/3/5 365/3/5
f 367/5/6 368/5/6 369/5/6
f 369/5/6 368/5/6 370/5/6
f 371/5/6 372/5/6 373/5/6
f 373/5/6 372/5/6 374/5/6
f 375/5/6 376/5/6 377/5/6
f 377/5/6 376/5/6 378/5/6
f 379/2/6 380/2/6 384/2/6
f 384/2/6 380/2/6 385/2/6
f 381/3/6 382/3/6 386/3/6
f 386/3/6 382/3/6 387/3/6
f 383/3/6 384/3/6 389/3/6
f 389/3/6 384/3/6 390/3/6
f 387/4/6 388/4/6 393/4/6
f 393/4/6 388/4/6 394/4/6
f 390/2/6 391/2/6 395/2/6
f 395/2/6 391/2/6 396/2/6
f 392/3/6 393/3/6 397/3/6
f 397/3/6 393/3/6 398/3/6
f 399/2/6 400/2/6 402/2/6
f 402/2/6 400/2/6 403/2/6
f 401/3/6 402/3/6 405/3/6
f 405/3/6 402/3/6 406/3/6
f 403/4/6 404/4/6 407/4/6
f 407/4/6 404/4/6 408/4/6
f 406/2/6 407/2/6 409/2/6
f 409/2/6 407/2/6 410/2/6
f 411/3/6 412/3/6 413/3/6
f 413/3/6 412/3/6 414/3/6
