# MagicaVoxel @ Ephtracy

# group
o 

# material
mtllib hiyayakkomini.mtl
usemtl palette

# normals
vn -1 0 0
vn 1 0 0
vn 0 0 1
vn 0 0 -1
vn 0 -1 0
vn 0 1 0

# texcoords
vt 0.373047 0.5
vt 0.896484 0.5
vt 0.904297 0.5
vt 0.958984 0.5

# verts
v -0.5 0 0.4
v -0.5 0 -0.4
v -0.5 0.1 0.4
v -0.5 0.1 -0.4
v -0.4 0 0.5
v -0.4 0 0.4
v -0.4 0 -0.4
v -0.4 0 -0.5
v -0.4 0.1 0.5
v -0.4 0.1 0.4
v -0.4 0.1 -0.4
v -0.4 0.1 -0.5
v -0.3 0.1 0.4
v -0.3 0.1 0.3
v -0.3 0.1 0.1
v -0.3 0.1 -0.1
v -0.3 0.1 -0.2
v -0.3 0.1 -0.4
v -0.3 0.2 0
v -0.3 0.2 -0.1
v -0.3 0.5 0
v -0.3 0.5 -0.1
v -0.3 0.6 0.4
v -0.3 0.6 0.1
v -0.3 0.6 -0.1
v -0.3 0.6 -0.4
v 0.3 0.1 0.4
v 0.3 0.1 0.3
v 0.3 0.1 0.2
v 0.3 0.1 0.1
v 0.3 0.1 -0.1
v 0.3 0.1 -0.2
v 0.3 0.1 -0.3
v 0.3 0.1 -0.4
v 0.3 0.2 0
v 0.3 0.2 -0.1
v 0.3 0.2 -0.2
v 0.3 0.4 0.2
v 0.3 0.4 0.1
v 0.3 0.4 0
v 0.3 0.6 0.4
v 0.3 0.6 0.1
v 0.3 0.6 -0.1
v 0.3 0.6 -0.4
v 0.4 0 0.5
v 0.4 0 0.4
v 0.4 0 -0.4
v 0.4 0 -0.5
v 0.4 0.1 0.5
v 0.4 0.1 0.4
v 0.4 0.1 -0.4
v 0.4 0.1 -0.5
v 0.5 0 0.4
v 0.5 0 -0.4
v 0.5 0.1 0.4
v 0.5 0.1 -0.4
v -0.4 0 0.5
v -0.4 0.1 0.5
v 0.4 0 0.5
v 0.4 0.1 0.5
v -0.5 0 0.4
v -0.5 0.1 0.4
v -0.4 0 0.4
v -0.4 0.1 0.4
v -0.3 0.1 0.4
v -0.3 0.6 0.4
v -0.1 0.4 0.4
v -0.1 0.5 0.4
v 0 0.4 0.4
v 0 0.5 0.4
v 0 0.6 0.4
v 0.1 0.5 0.4
v 0.1 0.6 0.4
v 0.3 0.1 0.4
v 0.3 0.6 0.4
v 0.4 0 0.4
v 0.4 0.1 0.4
v 0.5 0 0.4
v 0.5 0.1 0.4
v -0.5 0 -0.4
v -0.5 0.1 -0.4
v -0.4 0 -0.4
v -0.4 0.1 -0.4
v -0.3 0.1 -0.4
v -0.3 0.6 -0.4
v 0.3 0.1 -0.4
v 0.3 0.6 -0.4
v 0.4 0 -0.4
v 0.4 0.1 -0.4
v 0.5 0 -0.4
v 0.5 0.1 -0.4
v -0.4 0 -0.5
v -0.4 0.1 -0.5
v 0.4 0 -0.5
v 0.4 0.1 -0.5
v -0.4 0 0.5
v 0.4 0 0.5
v -0.5 0 0.4
v -0.4 0 0.4
v 0.4 0 0.4
v 0.5 0 0.4
v -0.4 0 0.3
v -0.3 0 0.3
v 0.3 0 0.3
v 0.4 0 0.3
v -0.4 0 -0.2
v -0.3 0 -0.2
v 0.3 0 -0.3
v 0.4 0 -0.3
v -0.5 0 -0.4
v -0.4 0 -0.4
v 0.4 0 -0.4
v 0.5 0 -0.4
v -0.4 0 -0.5
v 0.4 0 -0.5
v -0.4 0.1 0.5
v 0.4 0.1 0.5
v -0.5 0.1 0.4
v -0.4 0.1 0.4
v -0.3 0.1 0.4
v 0.3 0.1 0.4
v 0.4 0.1 0.4
v 0.5 0.1 0.4
v -0.4 0.1 0.3
v -0.3 0.1 0.3
v 0.3 0.1 0.3
v 0.4 0.1 0.3
v 0.3 0.1 0.2
v -0.3 0.1 0.1
v 0.3 0.1 0.1
v -0.3 0.1 -0.1
v 0.3 0.1 -0.1
v -0.4 0.1 -0.2
v -0.3 0.1 -0.2
v 0.3 0.1 -0.2
v 0.3 0.1 -0.3
v 0.4 0.1 -0.3
v -0.5 0.1 -0.4
v -0.4 0.1 -0.4
v -0.3 0.1 -0.4
v 0.3 0.1 -0.4
v 0.4 0.1 -0.4
v 0.5 0.1 -0.4
v -0.4 0.1 -0.5
v 0.4 0.1 -0.5
v -0.3 0.6 0.4
v 0 0.6 0.4
v 0.1 0.6 0.4
v 0.3 0.6 0.4
v -0.1 0.6 0.3
v 0 0.6 0.3
v 0.1 0.6 0.3
v -0.1 0.6 0.2
v 0 0.6 0.2
v 0.1 0.6 0.2
v -0.3 0.6 0.1
v -0.1 0.6 0.1
v 0 0.6 0.1
v 0.1 0.6 0.1
v 0.2 0.6 0.1
v 0.3 0.6 0.1
v -0.2 0.6 0
v -0.1 0.6 0
v 0 0.6 0
v 0.1 0.6 0
v 0.2 0.6 0
v -0.3 0.6 -0.1
v -0.2 0.6 -0.1
v -0.1 0.6 -0.1
v 0 0.6 -0.1
v 0.1 0.6 -0.1
v 0.2 0.6 -0.1
v 0.3 0.6 -0.1
v -0.1 0.6 -0.2
v 0.2 0.6 -0.2
v -0.3 0.6 -0.4
v 0.3 0.6 -0.4

# faces
f 3/3/1 2/3/1 1/3/1
f 4/3/1 2/3/1 3/3/1
f 9/3/1 6/3/1 5/3/1
f 10/3/1 6/3/1 9/3/1
f 11/3/1 8/3/1 7/3/1
f 12/3/1 8/3/1 11/3/1
f 19/1/1 16/1/1 15/1/1
f 20/4/1 18/4/1 17/4/1
f 20/1/1 16/1/1 19/1/1
f 20/4/1 17/4/1 16/4/1
f 21/1/1 19/1/1 15/1/1
f 21/4/1 20/4/1 19/4/1
f 22/4/1 18/4/1 20/4/1
f 22/4/1 20/4/1 21/4/1
f 23/4/1 14/4/1 13/4/1
f 23/4/1 15/4/1 14/4/1
f 24/1/1 22/1/1 21/1/1
f 24/4/1 15/4/1 23/4/1
f 24/1/1 21/1/1 15/1/1
f 25/4/1 18/4/1 22/4/1
f 25/1/1 22/1/1 24/1/1
f 26/4/1 18/4/1 25/4/1
f 30/4/2 31/4/2 35/4/2
f 31/1/2 32/1/2 36/1/2
f 35/4/2 31/4/2 36/4/2
f 33/4/2 34/4/2 37/4/2
f 36/1/2 32/1/2 37/1/2
f 32/4/2 33/4/2 37/4/2
f 27/4/2 28/4/2 38/4/2
f 28/4/2 29/4/2 38/4/2
f 29/1/2 30/1/2 38/1/2
f 30/4/2 35/4/2 39/4/2
f 38/1/2 30/1/2 39/1/2
f 35/1/2 36/1/2 40/1/2
f 39/4/2 35/4/2 40/4/2
f 27/4/2 38/4/2 41/4/2
f 38/4/2 39/4/2 41/4/2
f 39/1/2 40/1/2 42/1/2
f 41/4/2 39/4/2 42/4/2
f 36/4/2 37/4/2 43/4/2
f 42/1/2 40/1/2 43/1/2
f 40/1/2 36/1/2 43/1/2
f 37/4/2 34/4/2 44/4/2
f 43/4/2 37/4/2 44/4/2
f 45/3/2 46/3/2 49/3/2
f 49/3/2 46/3/2 50/3/2
f 47/3/2 48/3/2 51/3/2
f 51/3/2 48/3/2 52/3/2
f 53/3/2 54/3/2 55/3/2
f 55/3/2 54/3/2 56/3/2
f 59/3/3 58/3/3 57/3/3
f 60/3/3 58/3/3 59/3/3
f 63/3/3 62/3/3 61/3/3
f 64/3/3 62/3/3 63/3/3
f 67/4/3 66/4/3 65/4/3
f 68/4/3 66/4/3 67/4/3
f 69/4/3 67/4/3 65/4/3
f 69/1/3 68/1/3 67/1/3
f 70/4/3 66/4/3 68/4/3
f 70/1/3 68/1/3 69/1/3
f 71/4/3 66/4/3 70/4/3
f 72/4/3 70/4/3 69/4/3
f 72/1/3 71/1/3 70/1/3
f 73/1/3 71/1/3 72/1/3
f 74/4/3 69/4/3 65/4/3
f 74/4/3 72/4/3 69/4/3
f 74/4/3 73/4/3 72/4/3
f 75/4/3 73/4/3 74/4/3
f 78/3/3 77/3/3 76/3/3
f 79/3/3 77/3/3 78/3/3
f 80/3/4 81/3/4 82/3/4
f 82/3/4 81/3/4 83/3/4
f 84/4/4 85/4/4 86/4/4
f 86/4/4 85/4/4 87/4/4
f 88/3/4 89/3/4 90/3/4
f 90/3/4 89/3/4 91/3/4
f 92/3/4 93/3/4 94/3/4
f 94/3/4 93/3/4 95/3/4
f 99/3/5 97/3/5 96/3/5
f 100/3/5 97/3/5 99/3/5
f 102/3/5 99/3/5 98/3/5
f 102/3/5 101/3/5 100/3/5
f 102/3/5 100/3/5 99/3/5
f 103/3/5 101/3/5 102/3/5
f 104/3/5 101/3/5 103/3/5
f 105/3/5 101/3/5 104/3/5
f 106/3/5 102/3/5 98/3/5
f 106/1/5 103/1/5 102/1/5
f 107/3/5 104/3/5 103/3/5
f 107/1/5 103/1/5 106/1/5
f 108/1/5 105/1/5 104/1/5
f 108/3/5 104/3/5 107/3/5
f 108/3/5 107/3/5 106/3/5
f 109/3/5 101/3/5 105/3/5
f 109/1/5 105/1/5 108/1/5
f 110/3/5 108/3/5 106/3/5
f 110/3/5 106/3/5 98/3/5
f 110/3/5 109/3/5 108/3/5
f 111/3/5 109/3/5 110/3/5
f 112/3/5 101/3/5 109/3/5
f 112/3/5 109/3/5 111/3/5
f 113/3/5 101/3/5 112/3/5
f 114/3/5 112/3/5 111/3/5
f 115/3/5 112/3/5 114/3/5
f 116/3/6 117/3/6 119/3/6
f 119/3/6 117/3/6 120/3/6
f 120/3/6 117/3/6 121/3/6
f 121/3/6 117/3/6 122/3/6
f 118/3/6 119/3/6 124/3/6
f 119/3/6 120/3/6 124/3/6
f 124/3/6 120/3/6 125/3/6
f 122/3/6 123/3/6 126/3/6
f 121/3/6 122/3/6 126/3/6
f 126/3/6 123/3/6 127/3/6
f 126/1/6 127/1/6 128/1/6
f 124/1/6 125/1/6 129/1/6
f 128/1/6 127/1/6 130/1/6
f 124/1/6 129/1/6 131/1/6
f 130/1/6 127/1/6 132/1/6
f 124/1/6 131/1/6 133/1/6
f 118/3/6 124/3/6 133/3/6
f 133/1/6 131/1/6 134/1/6
f 132/1/6 127/1/6 135/1/6
f 135/1/6 127/1/6 136/1/6
f 127/3/6 123/3/6 137/3/6
f 136/1/6 127/1/6 137/1/6
f 133/3/6 134/3/6 138/3/6
f 118/3/6 133/3/6 138/3/6
f 138/3/6 134/3/6 139/3/6
f 139/3/6 134/3/6 140/3/6
f 136/3/6 137/3/6 141/3/6
f 137/3/6 123/3/6 142/3/6
f 141/3/6 137/3/6 142/3/6
f 142/3/6 123/3/6 143/3/6
f 140/3/6 141/3/6 144/3/6
f 139/3/6 140/3/6 144/3/6
f 141/3/6 142/3/6 144/3/6
f 144/3/6 142/3/6 145/3/6
f 146/4/6 147/4/6 150/4/6
f 147/1/6 148/1/6 151/1/6
f 150/4/6 147/4/6 151/4/6
f 148/4/6 149/4/6 152/4/6
f 151/1/6 148/1/6 152/1/6
f 150/1/6 151/1/6 153/1/6
f 146/4/6 150/4/6 153/4/6
f 151/4/6 152/4/6 154/4/6
f 153/1/6 151/1/6 154/1/6
f 152/4/6 149/4/6 155/4/6
f 154/4/6 152/4/6 155/4/6
f 146/4/6 153/4/6 156/4/6
f 153/2/6 154/2/6 157/2/6
f 156/4/6 153/4/6 157/4/6
f 154/1/6 155/1/6 158/1/6
f 157/2/6 154/2/6 158/2/6
f 155/4/6 149/4/6 159/4/6
f 158/1/6 155/1/6 159/1/6
f 159/4/6 149/4/6 160/4/6
f 160/4/6 149/4/6 161/4/6
f 157/1/6 158/1/6 162/1/6
f 156/1/6 157/1/6 162/1/6
f 158/1/6 159/1/6 162/1/6
f 162/1/6 159/1/6 163/1/6
f 163/1/6 159/1/6 164/1/6
f 159/2/6 160/2/6 165/2/6
f 164/1/6 159/1/6 165/1/6
f 160/1/6 161/1/6 166/1/6
f 165/2/6 160/2/6 166/2/6
f 156/1/6 162/1/6 167/1/6
f 162/2/6 163/2/6 168/2/6
f 167/1/6 162/1/6 168/1/6
f 163/1/6 164/1/6 169/1/6
f 168/2/6 163/2/6 169/2/6
f 164/2/6 165/2/6 170/2/6
f 169/1/6 164/1/6 170/1/6
f 165/1/6 166/1/6 171/1/6
f 170/2/6 165/2/6 171/2/6
f 166/1/6 161/1/6 172/1/6
f 171/1/6 166/1/6 172/1/6
f 172/1/6 161/1/6 173/1/6
f 168/4/6 169/4/6 174/4/6
f 167/4/6 168/4/6 174/4/6
f 170/1/6 171/1/6 174/1/6
f 171/1/6 172/1/6 174/1/6
f 169/1/6 170/1/6 174/1/6
f 172/4/6 173/4/6 175/4/6
f 174/1/6 172/1/6 175/1/6
f 167/4/6 174/4/6 176/4/6
f 174/4/6 175/4/6 176/4/6
f 175/4/6 173/4/6 177/4/6
f 176/4/6 175/4/6 177/4/6
