# MagicaVoxel @ Ephtracy

# group
o 

# material
mtllib hotguy.mtl
usemtl palette

# normals
vn -1 0 0
vn 1 0 0
vn 0 0 1
vn 0 0 -1
vn 0 -1 0
vn 0 1 0

# texcoords
vt 0.0175781 0.5
vt 0.0332031 0.5
vt 0.0488281 0.5
vt 0.255859 0.5
vt 0.783203 0.5
vt 0.845703 0.5
vt 0.876953 0.5
vt 0.958984 0.5

# verts
v -0.5 0.6 0.3
v -0.5 0.6 0.2
v -0.5 0.7 0.3
v -0.5 0.7 0.2
v -0.5 0.7 0.1
v -0.5 0.7 -2.98023e-08
v -0.5 0.8 0.1
v -0.5 0.8 -2.98023e-08
v -0.5 0.9 0.1
v -0.5 0.9 -2.98023e-08
v -0.4 0.7 0.3
v -0.4 0.7 0.2
v -0.4 0.8 0.3
v -0.4 0.8 0.2
v -0.4 0.8 0.1
v -0.4 0.9 0.2
v -0.4 0.9 0.1
v -0.3 0.2 0.1
v -0.3 0.2 -2.98023e-08
v -0.3 0.4 0.1
v -0.3 0.4 -2.98023e-08
v -0.3 0.6 0.1
v -0.3 0.6 -2.98023e-08
v -0.3 0.8 0.3
v -0.3 0.8 0.2
v -0.3 0.8 0.1
v -0.3 0.8 -2.98023e-08
v -0.3 0.8 -0.1
v -0.3 0.8 -0.2
v -0.3 0.9 0.3
v -0.3 0.9 0.2
v -0.3 0.9 0.1
v -0.3 0.9 -2.98023e-08
v -0.3 0.9 -0.1
v -0.3 0.9 -0.2
v -0.2 0 0.1
v -0.2 0 -2.98023e-08
v -0.2 0.1 0.1
v -0.2 0.1 -2.98023e-08
v -0.2 0.2 0.2
v -0.2 0.2 0.1
v -0.2 0.2 -2.98023e-08
v -0.2 0.2 -0.1
v -0.2 0.4 0.2
v -0.2 0.4 0.1
v -0.2 0.4 -2.98023e-08
v -0.2 0.4 -0.1
v -0.2 0.6 0.2
v -0.2 0.6 0.1
v -0.2 0.6 -2.98023e-08
v -0.2 0.6 -0.1
v -0.2 0.7 -2.98023e-08
v -0.2 0.7 -0.1
v -0.2 0.8 0.2
v -0.2 0.8 0.1
v -0.2 0.8 -2.98023e-08
v -0.2 0.8 -0.1
v -0.2 0.9 0.2
v -0.2 0.9 0.1
v -0.2 0.9 -2.98023e-08
v -0.2 0.9 -0.1
v -0.2 1 0.2
v -0.2 1 -0.1
v 0.1 0 0.1
v 0.1 0 -2.98023e-08
v 0.1 0.1 0.1
v 0.1 0.1 -2.98023e-08
v 0.1 0.2 0.1
v 0.1 0.2 -2.98023e-08
v -0.4 0.6 0.3
v -0.4 0.6 0.2
v -0.4 0.7 0.3
v -0.4 0.7 0.2
v -0.4 0.7 0.1
v -0.4 0.7 -2.98023e-08
v -0.4 0.8 0.1
v -0.4 0.8 -2.98023e-08
v -0.4 0.9 0.1
v -0.4 0.9 -2.98023e-08
v -0.3 0.7 0.3
v -0.3 0.7 0.2
v -0.3 0.8 0.3
v -0.3 0.8 0.2
v -0.1 0 0.1
v -0.1 0 -2.98023e-08
v -0.1 0.1 0.1
v -0.1 0.1 -2.98023e-08
v -0.1 0.2 0.1
v -0.1 0.2 -2.98023e-08
v 0.2 0 0.1
v 0.2 0 -2.98023e-08
v 0.2 0.1 0.1
v 0.2 0.1 -2.98023e-08
v 0.2 0.2 0.2
v 0.2 0.2 0.1
v 0.2 0.2 -2.98023e-08
v 0.2 0.2 -0.1
v 0.2 0.4 0.2
v 0.2 0.4 0.1
v 0.2 0.4 -2.98023e-08
v 0.2 0.4 -0.1
v 0.2 0.6 0.2
v 0.2 0.6 0.1
v 0.2 0.6 -2.98023e-08
v 0.2 0.6 -0.1
v 0.2 0.7 -2.98023e-08
v 0.2 0.7 -0.1
v 0.2 0.8 0.2
v 0.2 0.8 0.1
v 0.2 0.8 -2.98023e-08
v 0.2 0.8 -0.1
v 0.2 0.9 0.2
v 0.2 0.9 0.1
v 0.2 0.9 -2.98023e-08
v 0.2 0.9 -0.1
v 0.2 1 0.2
v 0.2 1 -0.1
v 0.3 0.2 0.1
v 0.3 0.2 -2.98023e-08
v 0.3 0.4 0.1
v 0.3 0.4 -2.98023e-08
v 0.3 0.6 0.1
v 0.3 0.6 -2.98023e-08
v 0.3 0.8 0.3
v 0.3 0.8 0.2
v 0.3 0.8 0.1
v 0.3 0.8 -2.98023e-08
v 0.3 0.8 -0.1
v 0.3 0.8 -0.2
v 0.3 0.9 0.3
v 0.3 0.9 0.2
v 0.3 0.9 0.1
v 0.3 0.9 -2.98023e-08
v 0.3 0.9 -0.1
v 0.3 0.9 -0.2
v -0.5 0.6 0.3
v -0.5 0.7 0.3
v -0.4 0.6 0.3
v -0.4 0.7 0.3
v -0.4 0.8 0.3
v -0.3 0.7 0.3
v -0.3 0.8 0.3
v -0.3 0.9 0.3
v -0.2 0.8 0.3
v -0.2 0.9 0.3
v -0.1 0.8 0.3
v -0.1 0.9 0.3
v 0 0.8 0.3
v 0 0.9 0.3
v 0.1 0.8 0.3
v 0.1 0.9 0.3
v 0.2 0.8 0.3
v 0.2 0.9 0.3
v 0.3 0.8 0.3
v 0.3 0.9 0.3
v -0.4 0.8 0.2
v -0.4 0.9 0.2
v -0.3 0.8 0.2
v -0.3 0.9 0.2
v -0.2 0.2 0.2
v -0.2 0.4 0.2
v -0.2 0.6 0.2
v -0.2 0.8 0.2
v -0.2 0.9 0.2
v -0.2 1 0.2
v -0.1 0.2 0.2
v -0.1 0.4 0.2
v -0.1 0.8 0.2
v -0.1 0.9 0.2
v 0 0.2 0.2
v 0 0.4 0.2
v 0 0.8 0.2
v 0 0.9 0.2
v 0.1 0.2 0.2
v 0.1 0.4 0.2
v 0.1 0.8 0.2
v 0.1 0.9 0.2
v 0.2 0.2 0.2
v 0.2 0.4 0.2
v 0.2 0.6 0.2
v 0.2 0.8 0.2
v 0.2 0.9 0.2
v 0.2 1 0.2
v -0.5 0.7 0.1
v -0.5 0.8 0.1
v -0.5 0.9 0.1
v -0.4 0.7 0.1
v -0.4 0.8 0.1
v -0.4 0.9 0.1
v -0.3 0.2 0.1
v -0.3 0.4 0.1
v -0.3 0.6 0.1
v -0.2 0 0.1
v -0.2 0.1 0.1
v -0.2 0.2 0.1
v -0.2 0.4 0.1
v -0.2 0.6 0.1
v -0.1 0 0.1
v -0.1 0.1 0.1
v -0.1 0.2 0.1
v 0.1 0 0.1
v 0.1 0.1 0.1
v 0.1 0.2 0.1
v 0.2 0 0.1
v 0.2 0.1 0.1
v 0.2 0.2 0.1
v 0.2 0.4 0.1
v 0.2 0.6 0.1
v 0.3 0.2 0.1
v 0.3 0.4 0.1
v 0.3 0.6 0.1
v -0.5 0.6 0.2
v -0.5 0.7 0.2
v -0.4 0.6 0.2
v -0.4 0.7 0.2
v -0.4 0.8 0.2
v -0.3 0.7 0.2
v -0.3 0.8 0.2
v -0.4 0.8 0.1
v -0.4 0.9 0.1
v -0.3 0.8 0.1
v -0.3 0.9 0.1
v -0.5 0.7 -2.98023e-08
v -0.5 0.8 -2.98023e-08
v -0.5 0.9 -2.98023e-08
v -0.4 0.7 -2.98023e-08
v -0.4 0.8 -2.98023e-08
v -0.4 0.9 -2.98023e-08
v -0.3 0.2 -2.98023e-08
v -0.3 0.4 -2.98023e-08
v -0.3 0.6 -2.98023e-08
v -0.2 0 -2.98023e-08
v -0.2 0.1 -2.98023e-08
v -0.2 0.2 -2.98023e-08
v -0.2 0.4 -2.98023e-08
v -0.2 0.6 -2.98023e-08
v -0.1 0 -2.98023e-08
v -0.1 0.1 -2.98023e-08
v -0.1 0.2 -2.98023e-08
v 0.1 0 -2.98023e-08
v 0.1 0.1 -2.98023e-08
v 0.1 0.2 -2.98023e-08
v 0.2 0 -2.98023e-08
v 0.2 0.1 -2.98023e-08
v 0.2 0.2 -2.98023e-08
v 0.2 0.4 -2.98023e-08
v 0.2 0.6 -2.98023e-08
v 0.3 0.2 -2.98023e-08
v 0.3 0.4 -2.98023e-08
v 0.3 0.6 -2.98023e-08
v -0.2 0.2 -0.1
v -0.2 0.4 -0.1
v -0.2 0.6 -0.1
v -0.2 0.7 -0.1
v -0.2 0.8 -0.1
v -0.2 0.9 -0.1
v -0.2 1 -0.1
v -0.1 0.2 -0.1
v -0.1 0.4 -0.1
v -0.1 0.7 -0.1
v -0.1 0.8 -0.1
v -0.1 0.9 -0.1
v 0 0.2 -0.1
v 0 0.4 -0.1
v 0 0.8 -0.1
v 0 0.9 -0.1
v 0.1 0.2 -0.1
v 0.1 0.4 -0.1
v 0.1 0.7 -0.1
v 0.1 0.8 -0.1
v 0.1 0.9 -0.1
v 0.2 0.2 -0.1
v 0.2 0.4 -0.1
v 0.2 0.6 -0.1
v 0.2 0.7 -0.1
v 0.2 0.8 -0.1
v 0.2 0.9 -0.1
v 0.2 1 -0.1
v -0.3 0.8 -0.2
v -0.3 0.9 -0.2
v -0.2 0.8 -0.2
v -0.2 0.9 -0.2
v -0.1 0.8 -0.2
v -0.1 0.9 -0.2
v 0 0.8 -0.2
v 0 0.9 -0.2
v 0.1 0.8 -0.2
v 0.1 0.9 -0.2
v 0.2 0.8 -0.2
v 0.2 0.9 -0.2
v 0.3 0.8 -0.2
v 0.3 0.9 -0.2
v -0.2 0 0.1
v -0.1 0 0.1
v 0.1 0 0.1
v 0.2 0 0.1
v -0.2 0 -2.98023e-08
v -0.1 0 -2.98023e-08
v 0.1 0 -2.98023e-08
v 0.2 0 -2.98023e-08
v -0.2 0.2 0.2
v -0.1 0.2 0.2
v 0 0.2 0.2
v 0.1 0.2 0.2
v 0.2 0.2 0.2
v -0.3 0.2 0.1
v -0.2 0.2 0.1
v -0.1 0.2 0.1
v 0 0.2 0.1
v 0.1 0.2 0.1
v 0.2 0.2 0.1
v 0.3 0.2 0.1
v -0.3 0.2 -2.98023e-08
v -0.2 0.2 -2.98023e-08
v -0.1 0.2 -2.98023e-08
v 0 0.2 -2.98023e-08
v 0.1 0.2 -2.98023e-08
v 0.2 0.2 -2.98023e-08
v 0.3 0.2 -2.98023e-08
v -0.2 0.2 -0.1
v -0.1 0.2 -0.1
v 0 0.2 -0.1
v 0.1 0.2 -0.1
v 0.2 0.2 -0.1
v -0.5 0.6 0.3
v -0.4 0.6 0.3
v -0.5 0.6 0.2
v -0.4 0.6 0.2
v -0.4 0.7 0.3
v -0.3 0.7 0.3
v -0.4 0.7 0.2
v -0.3 0.7 0.2
v -0.5 0.7 0.1
v -0.4 0.7 0.1
v -0.5 0.7 -2.98023e-08
v -0.4 0.7 -2.98023e-08
v -0.3 0.8 0.3
v -0.2 0.8 0.3
v -0.1 0.8 0.3
v 0 0.8 0.3
v 0.1 0.8 0.3
v 0.2 0.8 0.3
v 0.3 0.8 0.3
v -0.4 0.8 0.2
v -0.3 0.8 0.2
v -0.2 0.8 0.2
v -0.1 0.8 0.2
v 0 0.8 0.2
v 0.1 0.8 0.2
v 0.2 0.8 0.2
v 0.3 0.8 0.2
v -0.4 0.8 0.1
v -0.3 0.8 0.1
v -0.2 0.8 0.1
v 0.2 0.8 0.1
v 0.3 0.8 0.1
v -0.3 0.8 -2.98023e-08
v -0.2 0.8 -2.98023e-08
v 0.2 0.8 -2.98023e-08
v 0.3 0.8 -2.98023e-08
v -0.3 0.8 -0.1
v -0.2 0.8 -0.1
v -0.1 0.8 -0.1
v 0 0.8 -0.1
v 0.1 0.8 -0.1
v 0.2 0.8 -0.1
v 0.3 0.8 -0.1
v -0.3 0.8 -0.2
v -0.2 0.8 -0.2
v -0.1 0.8 -0.2
v 0 0.8 -0.2
v 0.1 0.8 -0.2
v 0.2 0.8 -0.2
v 0.3 0.8 -0.2
v -0.3 0.6 0.1
v -0.2 0.6 0.1
v 0.2 0.6 0.1
v 0.3 0.6 0.1
v -0.3 0.6 -2.98023e-08
v -0.2 0.6 -2.98023e-08
v 0.2 0.6 -2.98023e-08
v 0.3 0.6 -2.98023e-08
v -0.5 0.7 0.3
v -0.4 0.7 0.3
v -0.5 0.7 0.2
v -0.4 0.7 0.2
v -0.4 0.8 0.3
v -0.3 0.8 0.3
v -0.4 0.8 0.2
v -0.3 0.8 0.2
v -0.3 0.9 0.3
v -0.2 0.9 0.3
v -0.1 0.9 0.3
v 0 0.9 0.3
v 0.1 0.9 0.3
v 0.2 0.9 0.3
v 0.3 0.9 0.3
v -0.4 0.9 0.2
v -0.3 0.9 0.2
v -0.2 0.9 0.2
v -0.1 0.9 0.2
v 0 0.9 0.2
v 0.1 0.9 0.2
v 0.2 0.9 0.2
v 0.3 0.9 0.2
v -0.5 0.9 0.1
v -0.4 0.9 0.1
v -0.3 0.9 0.1
v -0.2 0.9 0.1
v 0.2 0.9 0.1
v 0.3 0.9 0.1
v -0.5 0.9 -2.98023e-08
v -0.4 0.9 -2.98023e-08
v -0.3 0.9 -2.98023e-08
v -0.2 0.9 -2.98023e-08
v 0.2 0.9 -2.98023e-08
v 0.3 0.9 -2.98023e-08
v -0.3 0.9 -0.1
v -0.2 0.9 -0.1
v -0.1 0.9 -0.1
v 0 0.9 -0.1
v 0.1 0.9 -0.1
v 0.2 0.9 -0.1
v 0.3 0.9 -0.1
v -0.3 0.9 -0.2
v -0.2 0.9 -0.2
v -0.1 0.9 -0.2
v 0 0.9 -0.2
v 0.1 0.9 -0.2
v 0.2 0.9 -0.2
v 0.3 0.9 -0.2
v -0.2 1 0.2
v 0.2 1 0.2
v -0.2 1 -0.1
v 0.2 1 -0.1

# faces
f 3/6/1 2/6/1 1/6/1
f 4/6/1 2/6/1 3/6/1
f 7/6/1 6/6/1 5/6/1
f 8/6/1 6/6/1 7/6/1
f 9/1/1 8/1/1 7/1/1
f 10/1/1 8/1/1 9/1/1
f 13/1/1 12/1/1 11/1/1
f 14/1/1 12/1/1 13/1/1
f 16/6/1 15/6/1 14/6/1
f 17/6/1 15/6/1 16/6/1
f 20/2/1 19/2/1 18/2/1
f 21/2/1 19/2/1 20/2/1
f 22/8/1 21/8/1 20/8/1
f 23/8/1 21/8/1 22/8/1
f 30/6/1 25/6/1 24/6/1
f 31/6/1 25/6/1 30/6/1
f 32/6/1 27/6/1 26/6/1
f 33/1/1 28/1/1 27/1/1
f 33/6/1 27/6/1 32/6/1
f 34/6/1 29/6/1 28/6/1
f 34/1/1 28/1/1 33/1/1
f 35/6/1 29/6/1 34/6/1
f 38/4/1 37/4/1 36/4/1
f 39/4/1 37/4/1 38/4/1
f 41/5/1 39/5/1 38/5/1
f 42/5/1 39/5/1 41/5/1
f 44/7/1 41/7/1 40/7/1
f 45/7/1 41/7/1 44/7/1
f 46/7/1 43/7/1 42/7/1
f 47/7/1 43/7/1 46/7/1
f 48/8/1 45/8/1 44/8/1
f 49/8/1 45/8/1 48/8/1
f 50/8/1 47/8/1 46/8/1
f 51/8/1 47/8/1 50/8/1
f 52/2/1 49/2/1 48/2/1
f 52/2/1 50/2/1 49/2/1
f 52/2/1 51/2/1 50/2/1
f 53/2/1 51/2/1 52/2/1
f 54/2/1 52/2/1 48/2/1
f 55/2/1 52/2/1 54/2/1
f 56/7/1 53/7/1 52/7/1
f 56/2/1 52/2/1 55/2/1
f 57/7/1 53/7/1 56/7/1
f 62/7/1 59/7/1 58/7/1
f 62/7/1 61/7/1 60/7/1
f 62/7/1 60/7/1 59/7/1
f 63/7/1 61/7/1 62/7/1
f 66/2/1 65/2/1 64/2/1
f 67/2/1 65/2/1 66/2/1
f 68/5/1 67/5/1 66/5/1
f 69/5/1 67/5/1 68/5/1
f 70/6/2 71/6/2 72/6/2
f 72/6/2 71/6/2 73/6/2
f 74/6/2 75/6/2 76/6/2
f 76/6/2 75/6/2 77/6/2
f 76/1/2 77/1/2 78/1/2
f 78/1/2 77/1/2 79/1/2
f 80/1/2 81/1/2 82/1/2
f 82/1/2 81/1/2 83/1/2
f 84/4/2 85/4/2 86/4/2
f 86/4/2 85/4/2 87/4/2
f 86/5/2 87/5/2 88/5/2
f 88/5/2 87/5/2 89/5/2
f 90/2/2 91/2/2 92/2/2
f 92/2/2 91/2/2 93/2/2
f 92/5/2 93/5/2 95/5/2
f 95/5/2 93/5/2 96/5/2
f 94/3/2 95/3/2 98/3/2
f 98/3/2 95/3/2 99/3/2
f 96/3/2 97/3/2 100/3/2
f 100/3/2 97/3/2 101/3/2
f 98/8/2 99/8/2 102/8/2
f 102/8/2 99/8/2 103/8/2
f 100/8/2 101/8/2 104/8/2
f 104/8/2 101/8/2 105/8/2
f 102/2/2 103/2/2 106/2/2
f 103/2/2 104/2/2 106/2/2
f 104/2/2 105/2/2 106/2/2
f 106/2/2 105/2/2 107/2/2
f 102/2/2 106/2/2 108/2/2
f 108/2/2 106/2/2 109/2/2
f 106/7/2 107/7/2 110/7/2
f 109/2/2 106/2/2 110/2/2
f 110/7/2 107/7/2 111/7/2
f 112/7/2 113/7/2 116/7/2
f 114/7/2 115/7/2 116/7/2
f 113/7/2 114/7/2 116/7/2
f 116/7/2 115/7/2 117/7/2
f 118/2/2 119/2/2 120/2/2
f 120/2/2 119/2/2 121/2/2
f 120/8/2 121/8/2 122/8/2
f 122/8/2 121/8/2 123/8/2
f 124/1/2 125/1/2 130/1/2
f 125/6/2 126/6/2 131/6/2
f 130/1/2 125/1/2 131/1/2
f 126/1/2 127/1/2 132/1/2
f 131/6/2 126/6/2 132/6/2
f 127/6/2 128/6/2 133/6/2
f 132/1/2 127/1/2 133/1/2
f 128/1/2 129/1/2 134/1/2
f 133/6/2 128/6/2 134/6/2
f 134/1/2 129/1/2 135/1/2
f 138/6/3 137/6/3 136/6/3
f 139/6/3 137/6/3 138/6/3
f 141/1/3 140/1/3 139/1/3
f 142/1/3 140/1/3 141/1/3
f 144/6/3 143/6/3 142/6/3
f 145/6/3 143/6/3 144/6/3
f 146/1/3 145/1/3 144/1/3
f 147/1/3 145/1/3 146/1/3
f 148/6/3 147/6/3 146/6/3
f 149/6/3 147/6/3 148/6/3
f 150/1/3 149/1/3 148/1/3
f 151/1/3 149/1/3 150/1/3
f 152/6/3 151/6/3 150/6/3
f 153/6/3 151/6/3 152/6/3
f 154/1/3 153/1/3 152/1/3
f 155/1/3 153/1/3 154/1/3
f 158/6/3 157/6/3 156/6/3
f 159/6/3 157/6/3 158/6/3
f 166/7/3 161/7/3 160/7/3
f 167/8/3 162/8/3 161/8/3
f 167/7/3 161/7/3 166/7/3
f 168/2/3 163/2/3 162/2/3
f 169/7/3 165/7/3 164/7/3
f 170/3/3 167/3/3 166/3/3
f 171/8/3 162/8/3 167/8/3
f 171/3/3 167/3/3 170/3/3
f 172/2/3 168/2/3 162/2/3
f 173/7/3 165/7/3 169/7/3
f 174/7/3 171/7/3 170/7/3
f 175/8/3 162/8/3 171/8/3
f 175/7/3 171/7/3 174/7/3
f 176/2/3 172/2/3 162/2/3
f 177/7/3 165/7/3 173/7/3
f 178/3/3 175/3/3 174/3/3
f 179/8/3 162/8/3 175/8/3
f 179/3/3 175/3/3 178/3/3
f 180/2/3 176/2/3 162/2/3
f 180/8/3 162/8/3 179/8/3
f 181/2/3 176/2/3 180/2/3
f 182/7/3 165/7/3 177/7/3
f 183/7/3 165/7/3 182/7/3
f 187/6/3 185/6/3 184/6/3
f 188/1/3 186/1/3 185/1/3
f 188/6/3 185/6/3 187/6/3
f 189/1/3 186/1/3 188/1/3
f 195/2/3 191/2/3 190/2/3
f 196/8/3 192/8/3 191/8/3
f 196/2/3 191/2/3 195/2/3
f 197/8/3 192/8/3 196/8/3
f 198/4/3 194/4/3 193/4/3
f 199/5/3 195/5/3 194/5/3
f 199/4/3 194/4/3 198/4/3
f 200/5/3 195/5/3 199/5/3
f 204/2/3 202/2/3 201/2/3
f 205/5/3 203/5/3 202/5/3
f 205/2/3 202/2/3 204/2/3
f 206/5/3 203/5/3 205/5/3
f 209/2/3 207/2/3 206/2/3
f 210/8/3 208/8/3 207/8/3
f 210/2/3 207/2/3 209/2/3
f 211/8/3 208/8/3 210/8/3
f 212/6/4 213/6/4 214/6/4
f 214/6/4 213/6/4 215/6/4
f 215/1/4 216/1/4 217/1/4
f 217/1/4 216/1/4 218/1/4
f 219/6/4 220/6/4 221/6/4
f 221/6/4 220/6/4 222/6/4
f 223/6/4 224/6/4 226/6/4
f 224/1/4 225/1/4 227/1/4
f 226/6/4 224/6/4 227/6/4
f 227/1/4 225/1/4 228/1/4
f 229/2/4 230/2/4 234/2/4
f 230/8/4 231/8/4 235/8/4
f 234/2/4 230/2/4 235/2/4
f 235/8/4 231/8/4 236/8/4
f 232/4/4 233/4/4 237/4/4
f 233/5/4 234/5/4 238/5/4
f 237/4/4 233/4/4 238/4/4
f 238/5/4 234/5/4 239/5/4
f 240/2/4 241/2/4 243/2/4
f 241/5/4 242/5/4 244/5/4
f 243/2/4 241/2/4 244/2/4
f 244/5/4 242/5/4 245/5/4
f 245/2/4 246/2/4 248/2/4
f 246/8/4 247/8/4 249/8/4
f 248/2/4 246/2/4 249/2/4
f 249/8/4 247/8/4 250/8/4
f 251/7/4 252/7/4 258/7/4
f 252/8/4 253/8/4 259/8/4
f 258/7/4 252/7/4 259/7/4
f 253/2/4 254/2/4 260/2/4
f 254/7/4 255/7/4 260/7/4
f 260/7/4 255/7/4 261/7/4
f 256/7/4 257/7/4 262/7/4
f 258/3/4 259/3/4 263/3/4
f 259/8/4 253/8/4 264/8/4
f 263/3/4 259/3/4 264/3/4
f 260/2/4 261/2/4 265/2/4
f 262/7/4 257/7/4 266/7/4
f 263/7/4 264/7/4 267/7/4
f 264/8/4 253/8/4 268/8/4
f 267/7/4 264/7/4 268/7/4
f 260/2/4 265/2/4 269/2/4
f 253/2/4 260/2/4 269/2/4
f 269/2/4 265/2/4 270/2/4
f 266/7/4 257/7/4 271/7/4
f 267/3/4 268/3/4 272/3/4
f 268/8/4 253/8/4 273/8/4
f 272/3/4 268/3/4 273/3/4
f 253/2/4 269/2/4 274/2/4
f 273/8/4 253/8/4 274/8/4
f 269/7/4 270/7/4 275/7/4
f 274/2/4 269/2/4 275/2/4
f 275/7/4 270/7/4 276/7/4
f 271/7/4 257/7/4 277/7/4
f 277/7/4 257/7/4 278/7/4
f 279/6/4 280/6/4 281/6/4
f 281/6/4 280/6/4 282/6/4
f 281/1/4 282/1/4 283/1/4
f 283/1/4 282/1/4 284/1/4
f 283/6/4 284/6/4 285/6/4
f 285/6/4 284/6/4 286/6/4
f 285/1/4 286/1/4 287/1/4
f 287/1/4 286/1/4 288/1/4
f 287/6/4 288/6/4 289/6/4
f 289/6/4 288/6/4 290/6/4
f 289/1/4 290/1/4 291/1/4
f 291/1/4 290/1/4 292/1/4
f 297/4/5 294/4/5 293/4/5
f 298/4/5 294/4/5 297/4/5
f 299/2/5 296/2/5 295/2/5
f 300/2/5 296/2/5 299/2/5
f 307/7/5 302/7/5 301/7/5
f 308/3/5 303/3/5 302/3/5
f 308/7/5 302/7/5 307/7/5
f 309/7/5 304/7/5 303/7/5
f 309/3/5 303/3/5 308/3/5
f 310/3/5 305/3/5 304/3/5
f 310/7/5 304/7/5 309/7/5
f 311/3/5 305/3/5 310/3/5
f 313/2/5 307/2/5 306/2/5
f 314/2/5 307/2/5 313/2/5
f 315/3/5 309/3/5 308/3/5
f 315/3/5 310/3/5 309/3/5
f 316/3/5 310/3/5 315/3/5
f 317/3/5 310/3/5 316/3/5
f 318/2/5 312/2/5 311/2/5
f 319/2/5 312/2/5 318/2/5
f 320/7/5 315/7/5 314/7/5
f 321/3/5 316/3/5 315/3/5
f 321/7/5 315/7/5 320/7/5
f 322/7/5 317/7/5 316/7/5
f 322/3/5 316/3/5 321/3/5
f 323/3/5 318/3/5 317/3/5
f 323/7/5 317/7/5 322/7/5
f 324/3/5 318/3/5 323/3/5
f 327/6/5 326/6/5 325/6/5
f 328/6/5 326/6/5 327/6/5
f 331/1/5 330/1/5 329/1/5
f 332/1/5 330/1/5 331/1/5
f 335/6/5 334/6/5 333/6/5
f 336/6/5 334/6/5 335/6/5
f 345/6/5 338/6/5 337/6/5
f 346/1/5 339/1/5 338/1/5
f 346/6/5 338/6/5 345/6/5
f 347/6/5 340/6/5 339/6/5
f 347/1/5 339/1/5 346/1/5
f 348/1/5 341/1/5 340/1/5
f 348/6/5 340/6/5 347/6/5
f 349/6/5 342/6/5 341/6/5
f 349/1/5 341/1/5 348/1/5
f 350/1/5 343/1/5 342/1/5
f 350/6/5 342/6/5 349/6/5
f 351/1/5 343/1/5 350/1/5
f 352/6/5 345/6/5 344/6/5
f 353/1/5 346/1/5 345/1/5
f 353/6/5 345/6/5 352/6/5
f 354/1/5 346/1/5 353/1/5
f 355/6/5 351/6/5 350/6/5
f 356/6/5 351/6/5 355/6/5
f 357/6/5 354/6/5 353/6/5
f 358/6/5 354/6/5 357/6/5
f 359/1/5 356/1/5 355/1/5
f 360/1/5 356/1/5 359/1/5
f 361/1/5 358/1/5 357/1/5
f 362/1/5 358/1/5 361/1/5
f 366/6/5 360/6/5 359/6/5
f 367/6/5 360/6/5 366/6/5
f 368/6/5 362/6/5 361/6/5
f 369/1/5 363/1/5 362/1/5
f 369/6/5 362/6/5 368/6/5
f 370/6/5 364/6/5 363/6/5
f 370/1/5 363/1/5 369/1/5
f 371/1/5 365/1/5 364/1/5
f 371/6/5 364/6/5 370/6/5
f 372/6/5 366/6/5 365/6/5
f 372/1/5 365/1/5 371/1/5
f 373/1/5 367/1/5 366/1/5
f 373/6/5 366/6/5 372/6/5
f 374/1/5 367/1/5 373/1/5
f 375/8/6 376/8/6 379/8/6
f 379/8/6 376/8/6 380/8/6
f 377/8/6 378/8/6 381/8/6
f 381/8/6 378/8/6 382/8/6
f 383/6/6 384/6/6 385/6/6
f 385/6/6 384/6/6 386/6/6
f 387/1/6 388/1/6 389/1/6
f 389/1/6 388/1/6 390/1/6
f 391/6/6 392/6/6 399/6/6
f 392/1/6 393/1/6 400/1/6
f 399/6/6 392/6/6 400/6/6
f 393/6/6 394/6/6 401/6/6
f 400/1/6 393/1/6 401/1/6
f 394/1/6 395/1/6 402/1/6
f 401/6/6 394/6/6 402/6/6
f 395/6/6 396/6/6 403/6/6
f 402/1/6 395/1/6 403/1/6
f 396/1/6 397/1/6 404/1/6
f 403/6/6 396/6/6 404/6/6
f 404/1/6 397/1/6 405/1/6
f 398/6/6 399/6/6 407/6/6
f 399/1/6 400/1/6 408/1/6
f 407/6/6 399/6/6 408/6/6
f 408/1/6 400/1/6 409/1/6
f 404/6/6 405/6/6 410/6/6
f 410/6/6 405/6/6 411/6/6
f 406/1/6 407/1/6 412/1/6
f 412/1/6 407/1/6 413/1/6
f 408/6/6 409/6/6 414/6/6
f 414/6/6 409/6/6 415/6/6
f 410/1/6 411/1/6 416/1/6
f 416/1/6 411/1/6 417/1/6
f 414/1/6 415/1/6 418/1/6
f 418/1/6 415/1/6 419/1/6
f 416/6/6 417/6/6 423/6/6
f 423/6/6 417/6/6 424/6/6
f 418/6/6 419/6/6 425/6/6
f 419/1/6 420/1/6 426/1/6
f 425/6/6 419/6/6 426/6/6
f 420/6/6 421/6/6 427/6/6
f 426/1/6 420/1/6 427/1/6
f 421/1/6 422/1/6 428/1/6
f 427/6/6 421/6/6 428/6/6
f 422/6/6 423/6/6 429/6/6
f 428/1/6 422/1/6 429/1/6
f 423/1/6 424/1/6 430/1/6
f 429/6/6 423/6/6 430/6/6
f 430/1/6 424/1/6 431/1/6
f 432/7/6 433/7/6 434/7/6
f 434/7/6 433/7/6 435/7/6
