# MagicaVoxel @ Ephtracy

# group
g tree_1

# material
mtllib tree_1.mtl
usemtl palette

# normals
vn -1 0 0
vn 1 0 0
vn 0 0 1
vn 0 0 -1
vn 0 -1 0
vn 0 1 0

# texcoords
vt 0.373047 0.5
vt 0.486328 0.5
vt 0.654297 0.5

# verts
v -4 4 4
v -4 4 -4
v -4 6 4
v -4 6 -4
v -4 8 4
v -4 8 -4
v -4 10 4
v -4 10 -4
v -4 12 4
v -4 12 -4
v -4 14 4
v -4 14 -4
v -4 16 4
v -4 16 -4
v -4 18 4
v -4 18 -4
v -4 20 4
v -4 20 -4
v -1 0 1
v -1 0 -1
v -1 4 1
v -1 4 -1
v 1 0 1
v 1 0 -1
v 1 4 1
v 1 4 -1
v 4 4 4
v 4 4 -4
v 4 6 4
v 4 6 -4
v 4 8 4
v 4 8 -4
v 4 10 4
v 4 10 -4
v 4 12 4
v 4 12 -4
v 4 14 4
v 4 14 -4
v 4 16 4
v 4 16 -4
v 4 18 4
v 4 18 -4
v 4 20 4
v 4 20 -4
v -4 4 4
v -4 6 4
v -4 8 4
v -4 10 4
v -4 12 4
v -4 14 4
v -4 16 4
v -4 18 4
v -4 20 4
v 4 4 4
v 4 6 4
v 4 8 4
v 4 10 4
v 4 12 4
v 4 14 4
v 4 16 4
v 4 18 4
v 4 20 4
v -1 0 1
v -1 4 1
v 1 0 1
v 1 4 1
v -1 0 -1
v -1 4 -1
v 1 0 -1
v 1 4 -1
v -4 4 -4
v -4 6 -4
v -4 8 -4
v -4 10 -4
v -4 12 -4
v -4 14 -4
v -4 16 -4
v -4 18 -4
v -4 20 -4
v 4 4 -4
v 4 6 -4
v 4 8 -4
v 4 10 -4
v 4 12 -4
v 4 14 -4
v 4 16 -4
v 4 18 -4
v 4 20 -4
v -1 0 1
v 1 0 1
v -1 0 -1
v 1 0 -1
v -4 4 4
v 4 4 4
v -1 4 1
v 1 4 1
v -1 4 -1
v 1 4 -1
v -4 4 -4
v 4 4 -4
v -4 20 4
v 4 20 4
v -4 20 -4
v 4 20 -4

# faces
f 3/3/1 2/3/1 1/3/1
f 4/3/1 2/3/1 3/3/1
f 5/2/1 4/2/1 3/2/1
f 6/2/1 4/2/1 5/2/1
f 7/3/1 6/3/1 5/3/1
f 8/3/1 6/3/1 7/3/1
f 9/2/1 8/2/1 7/2/1
f 10/2/1 8/2/1 9/2/1
f 11/3/1 10/3/1 9/3/1
f 12/3/1 10/3/1 11/3/1
f 13/2/1 12/2/1 11/2/1
f 14/2/1 12/2/1 13/2/1
f 15/3/1 14/3/1 13/3/1
f 16/3/1 14/3/1 15/3/1
f 17/2/1 16/2/1 15/2/1
f 18/2/1 16/2/1 17/2/1
f 21/1/1 20/1/1 19/1/1
f 22/1/1 20/1/1 21/1/1
f 23/1/2 24/1/2 25/1/2
f 25/1/2 24/1/2 26/1/2
f 27/3/2 28/3/2 29/3/2
f 29/3/2 28/3/2 30/3/2
f 29/2/2 30/2/2 31/2/2
f 31/2/2 30/2/2 32/2/2
f 31/3/2 32/3/2 33/3/2
f 33/3/2 32/3/2 34/3/2
f 33/2/2 34/2/2 35/2/2
f 35/2/2 34/2/2 36/2/2
f 35/3/2 36/3/2 37/3/2
f 37/3/2 36/3/2 38/3/2
f 37/2/2 38/2/2 39/2/2
f 39/2/2 38/2/2 40/2/2
f 39/3/2 40/3/2 41/3/2
f 41/3/2 40/3/2 42/3/2
f 41/2/2 42/2/2 43/2/2
f 43/2/2 42/2/2 44/2/2
f 54/3/3 46/3/3 45/3/3
f 55/2/3 47/2/3 46/2/3
f 55/3/3 46/3/3 54/3/3
f 56/3/3 48/3/3 47/3/3
f 56/2/3 47/2/3 55/2/3
f 57/2/3 49/2/3 48/2/3
f 57/3/3 48/3/3 56/3/3
f 58/3/3 50/3/3 49/3/3
f 58/2/3 49/2/3 57/2/3
f 59/2/3 51/2/3 50/2/3
f 59/3/3 50/3/3 58/3/3
f 60/3/3 52/3/3 51/3/3
f 60/2/3 51/2/3 59/2/3
f 61/2/3 53/2/3 52/2/3
f 61/3/3 52/3/3 60/3/3
f 62/2/3 53/2/3 61/2/3
f 65/1/3 64/1/3 63/1/3
f 66/1/3 64/1/3 65/1/3
f 67/1/4 68/1/4 69/1/4
f 69/1/4 68/1/4 70/1/4
f 71/3/4 72/3/4 80/3/4
f 72/2/4 73/2/4 81/2/4
f 80/3/4 72/3/4 81/3/4
f 73/3/4 74/3/4 82/3/4
f 81/2/4 73/2/4 82/2/4
f 74/2/4 75/2/4 83/2/4
f 82/3/4 74/3/4 83/3/4
f 75/3/4 76/3/4 84/3/4
f 83/2/4 75/2/4 84/2/4
f 76/2/4 77/2/4 85/2/4
f 84/3/4 76/3/4 85/3/4
f 77/3/4 78/3/4 86/3/4
f 85/2/4 77/2/4 86/2/4
f 78/2/4 79/2/4 87/2/4
f 86/3/4 78/3/4 87/3/4
f 87/2/4 79/2/4 88/2/4
f 91/1/5 90/1/5 89/1/5
f 92/1/5 90/1/5 91/1/5
f 95/3/5 94/3/5 93/3/5
f 96/3/5 94/3/5 95/3/5
f 97/3/5 95/3/5 93/3/5
f 98/3/5 94/3/5 96/3/5
f 99/3/5 97/3/5 93/3/5
f 99/3/5 98/3/5 97/3/5
f 100/3/5 94/3/5 98/3/5
f 100/3/5 98/3/5 99/3/5
f 101/2/6 102/2/6 103/2/6
f 103/2/6 102/2/6 104/2/6
