# MagicaVoxel @ Ephtracy

# group
g car_2

# material
mtllib car_2.mtl
usemtl palette

# normals
vn -1 0 0
vn 1 0 0
vn 0 0 1
vn 0 0 -1
vn 0 -1 0
vn 0 1 0

# texcoords
vt 0.0214844 0.5
vt 0.0253906 0.5
vt 0.111328 0.5
vt 0.142578 0.5
vt 0.587891 0.5
vt 0.705078 0.5
vt 0.775391 0.5
vt 0.958984 0.5
vt 0.978516 0.5
vt 0.994141 0.5

# verts
v -8 1 5
v -8 1 -5
v -8 2 5
v -8 2 4
v -8 2 2
v -8 2 -2
v -8 2 -4
v -8 2 -5
v -8 3 4
v -8 3 2
v -8 3 -2
v -8 3 -4
v -8 4 5
v -8 4 -5
v -7 4 5
v -7 4 -5
v -7 5 5
v -7 5 -5
v -5 0 5
v -5 0 4
v -5 0 -4
v -5 0 -5
v -5 1 5
v -5 1 4
v -5 1 -4
v -5 1 -5
v -3 4 6
v -3 4 5
v -3 4 -5
v -3 4 -6
v -3 5 6
v -3 5 5
v -3 5 4
v -3 5 2
v -3 5 1
v -3 5 -1
v -3 5 -3
v -3 5 -4
v -3 5 -5
v -3 5 -6
v -3 6 4
v -3 6 3
v -3 6 2
v -3 6 1
v -3 6 -0
v -3 6 -1
v -3 6 -3
v -3 7 4
v -3 7 3
v -3 7 2
v -3 7 1
v -3 7 -0
v -3 7 -1
v -3 8 3
v -3 8 2
v -3 8 1
v -3 8 -0
v -3 8 -1
v -3 8 -2
v -3 9 4
v -3 9 2
v -3 9 1
v -3 9 -1
v -3 9 -2
v -3 9 -4
v -3 10 5
v -3 10 -5
v 4 0 5
v 4 0 4
v 4 0 -4
v 4 0 -5
v 4 1 5
v 4 1 4
v 4 1 -4
v 4 1 -5
v -2 0 5
v -2 0 4
v -2 0 -4
v -2 0 -5
v -2 1 5
v -2 1 4
v -2 1 -4
v -2 1 -5
v -2 4 6
v -2 4 5
v -2 4 -5
v -2 4 -6
v -2 5 6
v -2 5 5
v -2 5 -5
v -2 5 -6
v 7 0 5
v 7 0 4
v 7 0 -4
v 7 0 -5
v 7 1 5
v 7 1 4
v 7 1 -4
v 7 1 -5
v 7 5 5
v 7 5 4
v 7 5 -4
v 7 5 -5
v 7 8 1
v 7 8 -1
v 7 9 4
v 7 9 1
v 7 9 -1
v 7 9 -4
v 7 10 5
v 7 10 -5
v 8 1 5
v 8 1 1
v 8 1 -1
v 8 1 -5
v 8 2 5
v 8 2 4
v 8 2 3
v 8 2 1
v 8 2 -1
v 8 2 -3
v 8 2 -4
v 8 2 -5
v 8 3 4
v 8 3 3
v 8 3 -3
v 8 3 -4
v 8 5 5
v 8 5 -5
v -3 4 6
v -3 5 6
v -2 4 6
v -2 5 6
v -8 1 5
v -8 2 5
v -8 4 5
v -7 4 5
v -7 5 5
v -5 0 5
v -5 1 5
v -5 2 5
v -5 3 5
v -4 1 5
v -4 2 5
v -3 1 5
v -3 2 5
v -3 4 5
v -3 5 5
v -3 10 5
v -2 0 5
v -2 1 5
v -2 2 5
v -2 3 5
v -2 4 5
v -2 5 5
v -2 9 5
v 0 8 5
v 0 9 5
v 1 7 5
v 1 8 5
v 1 9 5
v 2 5 5
v 2 7 5
v 2 8 5
v 2 9 5
v 3 5 5
v 3 9 5
v 4 0 5
v 4 1 5
v 4 2 5
v 4 3 5
v 4 8 5
v 4 9 5
v 5 1 5
v 5 2 5
v 5 7 5
v 5 8 5
v 5 9 5
v 6 1 5
v 6 2 5
v 6 5 5
v 6 7 5
v 6 8 5
v 6 9 5
v 7 0 5
v 7 1 5
v 7 2 5
v 7 3 5
v 7 5 5
v 7 10 5
v 8 1 5
v 8 2 5
v 8 5 5
v -5 0 -4
v -5 1 -4
v -2 0 -4
v -2 1 -4
v 4 0 -4
v 4 1 -4
v 7 0 -4
v 7 1 -4
v -5 0 4
v -5 1 4
v -2 0 4
v -2 1 4
v 4 0 4
v 4 1 4
v 7 0 4
v 7 1 4
v -8 1 -5
v -8 2 -5
v -8 4 -5
v -7 4 -5
v -7 5 -5
v -5 0 -5
v -5 1 -5
v -5 2 -5
v -5 3 -5
v -4 1 -5
v -4 2 -5
v -3 1 -5
v -3 2 -5
v -3 4 -5
v -3 5 -5
v -3 10 -5
v -2 0 -5
v -2 1 -5
v -2 2 -5
v -2 3 -5
v -2 4 -5
v -2 5 -5
v -2 9 -5
v 0 8 -5
v 0 9 -5
v 1 7 -5
v 1 8 -5
v 1 9 -5
v 2 5 -5
v 2 7 -5
v 2 8 -5
v 2 9 -5
v 3 5 -5
v 3 9 -5
v 4 0 -5
v 4 1 -5
v 4 2 -5
v 4 3 -5
v 4 8 -5
v 4 9 -5
v 5 1 -5
v 5 2 -5
v 5 7 -5
v 5 8 -5
v 5 9 -5
v 6 1 -5
v 6 2 -5
v 6 5 -5
v 6 7 -5
v 6 8 -5
v 6 9 -5
v 7 0 -5
v 7 1 -5
v 7 2 -5
v 7 3 -5
v 7 5 -5
v 7 10 -5
v 8 1 -5
v 8 2 -5
v 8 5 -5
v -3 4 -6
v -3 5 -6
v -2 4 -6
v -2 5 -6
v -5 0 5
v -2 0 5
v 4 0 5
v 7 0 5
v -5 0 4
v -2 0 4
v 4 0 4
v 7 0 4
v -5 0 -4
v -2 0 -4
v 4 0 -4
v 7 0 -4
v -5 0 -5
v -2 0 -5
v 4 0 -5
v 7 0 -5
v -8 1 5
v -5 1 5
v -2 1 5
v 4 1 5
v 7 1 5
v 8 1 5
v -5 1 4
v -2 1 4
v 4 1 4
v 7 1 4
v 7 1 1
v 8 1 1
v 7 1 -1
v 8 1 -1
v -5 1 -4
v -2 1 -4
v 4 1 -4
v 7 1 -4
v -8 1 -5
v -5 1 -5
v -2 1 -5
v 4 1 -5
v 7 1 -5
v 8 1 -5
v -3 4 6
v -2 4 6
v -3 4 5
v -2 4 5
v -3 4 -5
v -2 4 -5
v -3 4 -6
v -2 4 -6
v -8 4 5
v -7 4 5
v -8 4 -5
v -7 4 -5
v -3 5 6
v -2 5 6
v -7 5 5
v -3 5 5
v -2 5 5
v 7 5 5
v 8 5 5
v -3 5 4
v 7 5 4
v -3 5 2
v -3 5 1
v -3 5 -1
v -3 5 -3
v -3 5 -4
v 7 5 -4
v -7 5 -5
v -3 5 -5
v -2 5 -5
v 7 5 -5
v 8 5 -5
v -3 5 -6
v -2 5 -6
v -3 10 5
v 7 10 5
v -3 10 -5
v 7 10 -5

# faces
f 3/6/1 2/6/1 1/6/1
f 4/6/1 2/6/1 3/6/1
f 5/6/1 2/6/1 4/6/1
f 6/6/1 2/6/1 5/6/1
f 7/6/1 2/6/1 6/6/1
f 8/6/1 2/6/1 7/6/1
f 9/7/1 4/7/1 3/7/1
f 9/1/1 5/1/1 4/1/1
f 10/7/1 6/7/1 5/7/1
f 10/1/1 5/1/1 9/1/1
f 11/1/1 7/1/1 6/1/1
f 11/7/1 6/7/1 10/7/1
f 12/7/1 8/7/1 7/7/1
f 12/1/1 7/1/1 11/1/1
f 13/7/1 11/7/1 10/7/1
f 13/7/1 9/7/1 3/7/1
f 13/7/1 12/7/1 11/7/1
f 13/7/1 10/7/1 9/7/1
f 14/7/1 8/7/1 12/7/1
f 14/7/1 12/7/1 13/7/1
f 17/7/1 16/7/1 15/7/1
f 18/7/1 16/7/1 17/7/1
f 23/10/1 20/10/1 19/10/1
f 24/10/1 20/10/1 23/10/1
f 25/10/1 22/10/1 21/10/1
f 26/10/1 22/10/1 25/10/1
f 31/6/1 28/6/1 27/6/1
f 32/6/1 28/6/1 31/6/1
f 39/6/1 30/6/1 29/6/1
f 40/6/1 30/6/1 39/6/1
f 41/8/1 33/8/1 32/8/1
f 41/5/1 34/5/1 33/5/1
f 42/5/1 34/5/1 41/5/1
f 43/4/1 35/4/1 34/4/1
f 43/5/1 34/5/1 42/5/1
f 44/5/1 36/5/1 35/5/1
f 44/4/1 35/4/1 43/4/1
f 45/5/1 36/5/1 44/5/1
f 46/9/1 37/9/1 36/9/1
f 46/5/1 36/5/1 45/5/1
f 47/5/1 38/5/1 37/5/1
f 47/9/1 37/9/1 46/9/1
f 48/4/1 42/4/1 41/4/1
f 48/8/1 41/8/1 32/8/1
f 49/5/1 43/5/1 42/5/1
f 49/4/1 42/4/1 48/4/1
f 49/5/1 44/5/1 43/5/1
f 50/5/1 44/5/1 49/5/1
f 51/4/1 45/4/1 44/4/1
f 51/5/1 44/5/1 50/5/1
f 52/5/1 46/5/1 45/5/1
f 52/4/1 45/4/1 51/4/1
f 52/5/1 47/5/1 46/5/1
f 53/5/1 47/5/1 52/5/1
f 54/4/1 50/4/1 49/4/1
f 54/5/1 49/5/1 48/5/1
f 55/5/1 51/5/1 50/5/1
f 55/4/1 50/4/1 54/4/1
f 55/5/1 52/5/1 51/5/1
f 56/5/1 52/5/1 55/5/1
f 57/4/1 53/4/1 52/4/1
f 57/5/1 52/5/1 56/5/1
f 58/5/1 47/5/1 53/5/1
f 58/4/1 53/4/1 57/4/1
f 59/5/1 47/5/1 58/5/1
f 60/5/1 54/5/1 48/5/1
f 60/8/1 48/8/1 32/8/1
f 60/5/1 55/5/1 54/5/1
f 61/4/1 56/4/1 55/4/1
f 61/5/1 55/5/1 60/5/1
f 62/5/1 57/5/1 56/5/1
f 62/4/1 56/4/1 61/4/1
f 62/5/1 58/5/1 57/5/1
f 63/4/1 59/4/1 58/4/1
f 63/5/1 58/5/1 62/5/1
f 64/5/1 47/5/1 59/5/1
f 64/4/1 59/4/1 63/4/1
f 65/8/1 39/8/1 38/8/1
f 65/5/1 47/5/1 64/5/1
f 65/5/1 38/5/1 47/5/1
f 66/8/1 63/8/1 62/8/1
f 66/8/1 64/8/1 63/8/1
f 66/8/1 65/8/1 64/8/1
f 66/8/1 61/8/1 60/8/1
f 66/8/1 62/8/1 61/8/1
f 66/8/1 60/8/1 32/8/1
f 67/8/1 39/8/1 65/8/1
f 67/8/1 65/8/1 66/8/1
f 72/10/1 69/10/1 68/10/1
f 73/10/1 69/10/1 72/10/1
f 74/10/1 71/10/1 70/10/1
f 75/10/1 71/10/1 74/10/1
f 76/10/2 77/10/2 80/10/2
f 80/10/2 77/10/2 81/10/2
f 78/10/2 79/10/2 82/10/2
f 82/10/2 79/10/2 83/10/2
f 84/6/2 85/6/2 88/6/2
f 88/6/2 85/6/2 89/6/2
f 86/6/2 87/6/2 90/6/2
f 90/6/2 87/6/2 91/6/2
f 92/10/2 93/10/2 96/10/2
f 96/10/2 93/10/2 97/10/2
f 94/10/2 95/10/2 98/10/2
f 98/10/2 95/10/2 99/10/2
f 101/5/2 102/5/2 104/5/2
f 104/5/2 102/5/2 105/5/2
f 100/8/2 101/8/2 106/8/2
f 101/5/2 104/5/2 106/5/2
f 104/9/2 105/9/2 107/9/2
f 106/5/2 104/5/2 107/5/2
f 105/5/2 102/5/2 108/5/2
f 107/9/2 105/9/2 108/9/2
f 102/8/2 103/8/2 109/8/2
f 108/5/2 102/5/2 109/5/2
f 106/8/2 107/8/2 110/8/2
f 107/8/2 108/8/2 110/8/2
f 108/8/2 109/8/2 110/8/2
f 100/8/2 106/8/2 110/8/2
f 109/8/2 103/8/2 111/8/2
f 110/8/2 109/8/2 111/8/2
f 112/6/2 113/6/2 116/6/2
f 116/6/2 113/6/2 117/6/2
f 117/6/2 113/6/2 118/6/2
f 113/8/2 114/8/2 119/8/2
f 118/6/2 113/6/2 119/6/2
f 114/6/2 115/6/2 120/6/2
f 119/8/2 114/8/2 120/8/2
f 120/6/2 115/6/2 121/6/2
f 121/6/2 115/6/2 122/6/2
f 122/6/2 115/6/2 123/6/2
f 117/3/2 118/3/2 124/3/2
f 116/7/2 117/7/2 124/7/2
f 118/7/2 119/7/2 125/7/2
f 124/3/2 118/3/2 125/3/2
f 119/7/2 120/7/2 125/7/2
f 120/7/2 121/7/2 125/7/2
f 121/3/2 122/3/2 126/3/2
f 125/7/2 121/7/2 126/7/2
f 122/7/2 123/7/2 127/7/2
f 126/3/2 122/3/2 127/3/2
f 116/7/2 124/7/2 128/7/2
f 125/7/2 126/7/2 128/7/2
f 126/7/2 127/7/2 128/7/2
f 124/7/2 125/7/2 128/7/2
f 127/7/2 123/7/2 129/7/2
f 128/7/2 127/7/2 129/7/2
f 132/6/3 131/6/3 130/6/3
f 133/6/3 131/6/3 132/6/3
f 137/7/3 136/7/3 135/7/3
f 140/6/3 135/6/3 134/6/3
f 141/7/3 138/7/3 137/7/3
f 141/7/3 137/7/3 135/7/3
f 141/6/3 135/6/3 140/6/3
f 142/7/3 138/7/3 141/7/3
f 143/10/3 140/10/3 139/10/3
f 143/10/3 141/10/3 140/10/3
f 143/10/3 142/10/3 141/10/3
f 144/10/3 142/10/3 143/10/3
f 145/10/3 143/10/3 139/10/3
f 145/8/3 144/8/3 143/8/3
f 146/10/3 142/10/3 144/10/3
f 146/8/3 144/8/3 145/8/3
f 147/7/3 138/7/3 142/7/3
f 148/7/3 138/7/3 147/7/3
f 150/10/3 145/10/3 139/10/3
f 150/10/3 146/10/3 145/10/3
f 151/10/3 146/10/3 150/10/3
f 152/10/3 142/10/3 146/10/3
f 152/10/3 146/10/3 151/10/3
f 153/7/3 147/7/3 142/7/3
f 153/10/3 142/10/3 152/10/3
f 154/7/3 147/7/3 153/7/3
f 155/8/3 149/8/3 148/8/3
f 156/8/3 149/8/3 155/8/3
f 157/5/3 156/5/3 155/5/3
f 158/8/3 149/8/3 156/8/3
f 158/5/3 156/5/3 157/5/3
f 159/5/3 157/5/3 155/5/3
f 160/4/3 158/4/3 157/4/3
f 160/5/3 157/5/3 159/5/3
f 161/8/3 149/8/3 158/8/3
f 161/4/3 158/4/3 160/4/3
f 162/7/3 154/7/3 153/7/3
f 162/7/3 153/7/3 152/7/3
f 162/7/3 155/7/3 154/7/3
f 162/5/3 159/5/3 155/5/3
f 163/4/3 160/4/3 159/4/3
f 163/5/3 159/5/3 162/5/3
f 164/5/3 161/5/3 160/5/3
f 164/4/3 160/4/3 163/4/3
f 165/8/3 149/8/3 161/8/3
f 165/5/3 161/5/3 164/5/3
f 166/7/3 162/7/3 152/7/3
f 166/8/3 164/8/3 163/8/3
f 166/8/3 165/8/3 164/8/3
f 166/8/3 163/8/3 162/8/3
f 167/8/3 149/8/3 165/8/3
f 167/8/3 165/8/3 166/8/3
f 169/6/3 152/6/3 151/6/3
f 170/7/3 166/7/3 152/7/3
f 170/6/3 152/6/3 169/6/3
f 171/7/3 166/7/3 170/7/3
f 172/5/3 167/5/3 166/5/3
f 173/8/3 149/8/3 167/8/3
f 173/5/3 167/5/3 172/5/3
f 174/10/3 169/10/3 168/10/3
f 174/10/3 170/10/3 169/10/3
f 174/10/3 171/10/3 170/10/3
f 175/10/3 171/10/3 174/10/3
f 176/5/3 172/5/3 166/5/3
f 177/4/3 173/4/3 172/4/3
f 177/5/3 172/5/3 176/5/3
f 178/8/3 149/8/3 173/8/3
f 178/4/3 173/4/3 177/4/3
f 179/10/3 174/10/3 168/10/3
f 179/8/3 175/8/3 174/8/3
f 180/10/3 171/10/3 175/10/3
f 180/8/3 175/8/3 179/8/3
f 181/7/3 166/7/3 171/7/3
f 181/5/3 176/5/3 166/5/3
f 182/4/3 177/4/3 176/4/3
f 182/5/3 176/5/3 181/5/3
f 183/5/3 178/5/3 177/5/3
f 183/4/3 177/4/3 182/4/3
f 184/8/3 149/8/3 178/8/3
f 184/5/3 178/5/3 183/5/3
f 185/10/3 179/10/3 168/10/3
f 185/10/3 180/10/3 179/10/3
f 186/10/3 180/10/3 185/10/3
f 187/10/3 171/10/3 180/10/3
f 187/10/3 180/10/3 186/10/3
f 188/7/3 181/7/3 171/7/3
f 188/10/3 171/10/3 187/10/3
f 189/8/3 184/8/3 183/8/3
f 189/7/3 181/7/3 188/7/3
f 189/8/3 183/8/3 182/8/3
f 189/8/3 182/8/3 181/8/3
f 190/8/3 149/8/3 184/8/3
f 190/8/3 184/8/3 189/8/3
f 191/6/3 187/6/3 186/6/3
f 192/7/3 189/7/3 188/7/3
f 192/6/3 187/6/3 191/6/3
f 192/7/3 188/7/3 187/7/3
f 193/7/3 189/7/3 192/7/3
f 196/10/3 195/10/3 194/10/3
f 197/10/3 195/10/3 196/10/3
f 200/10/3 199/10/3 198/10/3
f 201/10/3 199/10/3 200/10/3
f 202/10/4 203/10/4 204/10/4
f 204/10/4 203/10/4 205/10/4
f 206/10/4 207/10/4 208/10/4
f 208/10/4 207/10/4 209/10/4
f 211/7/4 212/7/4 213/7/4
f 210/6/4 211/6/4 216/6/4
f 213/7/4 214/7/4 217/7/4
f 211/7/4 213/7/4 217/7/4
f 216/6/4 211/6/4 217/6/4
f 217/7/4 214/7/4 218/7/4
f 215/10/4 216/10/4 219/10/4
f 216/10/4 217/10/4 219/10/4
f 217/10/4 218/10/4 219/10/4
f 219/10/4 218/10/4 220/10/4
f 215/10/4 219/10/4 221/10/4
f 219/8/4 220/8/4 221/8/4
f 220/10/4 218/10/4 222/10/4
f 221/8/4 220/8/4 222/8/4
f 218/7/4 214/7/4 223/7/4
f 223/7/4 214/7/4 224/7/4
f 215/10/4 221/10/4 226/10/4
f 221/10/4 222/10/4 226/10/4
f 226/10/4 222/10/4 227/10/4
f 222/10/4 218/10/4 228/10/4
f 227/10/4 222/10/4 228/10/4
f 218/7/4 223/7/4 229/7/4
f 228/10/4 218/10/4 229/10/4
f 229/7/4 223/7/4 230/7/4
f 224/8/4 225/8/4 231/8/4
f 231/8/4 225/8/4 232/8/4
f 231/5/4 232/5/4 233/5/4
f 232/8/4 225/8/4 234/8/4
f 233/5/4 232/5/4 234/5/4
f 231/5/4 233/5/4 235/5/4
f 233/4/4 234/4/4 236/4/4
f 235/5/4 233/5/4 236/5/4
f 234/8/4 225/8/4 237/8/4
f 236/4/4 234/4/4 237/4/4
f 229/7/4 230/7/4 238/7/4
f 228/7/4 229/7/4 238/7/4
f 230/7/4 231/7/4 238/7/4
f 231/5/4 235/5/4 238/5/4
f 235/4/4 236/4/4 239/4/4
f 238/5/4 235/5/4 239/5/4
f 236/5/4 237/5/4 240/5/4
f 239/4/4 236/4/4 240/4/4
f 237/8/4 225/8/4 241/8/4
f 240/5/4 237/5/4 241/5/4
f 228/7/4 238/7/4 242/7/4
f 239/8/4 240/8/4 242/8/4
f 240/8/4 241/8/4 242/8/4
f 238/8/4 239/8/4 242/8/4
f 241/8/4 225/8/4 243/8/4
f 242/8/4 241/8/4 243/8/4
f 227/6/4 228/6/4 245/6/4
f 228/7/4 242/7/4 246/7/4
f 245/6/4 228/6/4 246/6/4
f 246/7/4 242/7/4 247/7/4
f 242/5/4 243/5/4 248/5/4
f 243/8/4 225/8/4 249/8/4
f 248/5/4 243/5/4 249/5/4
f 244/10/4 245/10/4 250/10/4
f 245/10/4 246/10/4 250/10/4
f 246/10/4 247/10/4 250/10/4
f 250/10/4 247/10/4 251/10/4
f 242/5/4 248/5/4 252/5/4
f 248/4/4 249/4/4 253/4/4
f 252/5/4 248/5/4 253/5/4
f 249/8/4 225/8/4 254/8/4
f 253/4/4 249/4/4 254/4/4
f 244/10/4 250/10/4 255/10/4
f 250/8/4 251/8/4 255/8/4
f 251/10/4 247/10/4 256/10/4
f 255/8/4 251/8/4 256/8/4
f 247/7/4 242/7/4 257/7/4
f 242/5/4 252/5/4 257/5/4
f 252/4/4 253/4/4 258/4/4
f 257/5/4 252/5/4 258/5/4
f 253/5/4 254/5/4 259/5/4
f 258/4/4 253/4/4 259/4/4
f 254/8/4 225/8/4 260/8/4
f 259/5/4 254/5/4 260/5/4
f 244/10/4 255/10/4 261/10/4
f 255/10/4 256/10/4 261/10/4
f 261/10/4 256/10/4 262/10/4
f 256/10/4 247/10/4 263/10/4
f 262/10/4 256/10/4 263/10/4
f 247/7/4 257/7/4 264/7/4
f 263/10/4 247/10/4 264/10/4
f 259/8/4 260/8/4 265/8/4
f 264/7/4 257/7/4 265/7/4
f 258/8/4 259/8/4 265/8/4
f 257/8/4 258/8/4 265/8/4
f 260/8/4 225/8/4 266/8/4
f 265/8/4 260/8/4 266/8/4
f 262/6/4 263/6/4 267/6/4
f 264/7/4 265/7/4 268/7/4
f 267/6/4 263/6/4 268/6/4
f 263/7/4 264/7/4 268/7/4
f 268/7/4 265/7/4 269/7/4
f 270/6/4 271/6/4 272/6/4
f 272/6/4 271/6/4 273/6/4
f 278/10/5 275/10/5 274/10/5
f 279/10/5 275/10/5 278/10/5
f 280/10/5 277/10/5 276/10/5
f 281/10/5 277/10/5 280/10/5
f 286/10/5 283/10/5 282/10/5
f 287/10/5 283/10/5 286/10/5
f 288/10/5 285/10/5 284/10/5
f 289/10/5 285/10/5 288/10/5
f 296/6/5 291/6/5 290/6/5
f 297/6/5 293/6/5 292/6/5
f 298/6/5 293/6/5 297/6/5
f 299/6/5 295/6/5 294/6/5
f 300/6/5 298/6/5 297/6/5
f 300/6/5 299/6/5 298/6/5
f 300/6/5 295/6/5 299/6/5
f 300/6/5 297/6/5 296/6/5
f 301/6/5 295/6/5 300/6/5
f 302/6/5 300/6/5 296/6/5
f 302/8/5 301/8/5 300/8/5
f 303/8/5 301/8/5 302/8/5
f 304/6/5 296/6/5 290/6/5
f 304/6/5 302/6/5 296/6/5
f 304/6/5 303/6/5 302/6/5
f 305/6/5 303/6/5 304/6/5
f 306/6/5 303/6/5 305/6/5
f 307/6/5 303/6/5 306/6/5
f 308/6/5 304/6/5 290/6/5
f 309/6/5 304/6/5 308/6/5
f 310/6/5 306/6/5 305/6/5
f 311/6/5 306/6/5 310/6/5
f 312/6/5 303/6/5 307/6/5
f 313/6/5 303/6/5 312/6/5
f 316/6/5 315/6/5 314/6/5
f 317/6/5 315/6/5 316/6/5
f 320/6/5 319/6/5 318/6/5
f 321/6/5 319/6/5 320/6/5
f 322/7/6 323/7/6 324/7/6
f 324/7/6 323/7/6 325/7/6
f 326/6/6 327/6/6 329/6/6
f 329/6/6 327/6/6 330/6/6
f 328/7/6 329/7/6 333/7/6
f 331/7/6 332/7/6 334/7/6
f 328/7/6 333/7/6 335/7/6
f 328/7/6 335/7/6 336/7/6
f 328/7/6 336/7/6 337/7/6
f 328/7/6 337/7/6 338/7/6
f 328/7/6 338/7/6 339/7/6
f 334/7/6 332/7/6 340/7/6
f 328/7/6 339/7/6 341/7/6
f 341/7/6 339/7/6 342/7/6
f 340/7/6 332/7/6 344/7/6
f 344/7/6 332/7/6 345/7/6
f 342/6/6 343/6/6 346/6/6
f 346/6/6 343/6/6 347/6/6
f 348/8/6 349/8/6 350/8/6
f 350/8/6 349/8/6 351/8/6
